<svg width="133" height="38" viewBox="0 0 133 38" fill="none" xmlns="http://www.w3.org/2000/svg">
<rect width="38" height="38" rx="19" fill="#6C2FED"/>
<path d="M8.94928 17.8085L14.903 12.2952L21.711 10.6311L23.6768 14.0086L16.8822 15.6306L10.915 21.186L8.94928 17.8085Z" fill="white"/>
<path d="M11.6121 22.2154L17.5657 16.7022L24.3738 15.0381L26.3395 18.4156L19.545 20.0375L13.5778 25.593L11.6121 22.2154Z" fill="white"/>
<path d="M14.2727 26.6224L20.2264 21.1091L27.0344 19.445L29.0002 22.8226L22.2056 24.4445L16.2384 30L14.2727 26.6224Z" fill="white"/>
<path d="M50.043 11.2812V25.5H47.3574V11.2812H50.043ZM55.7754 17.4238V19.543H49.3398V17.4238H55.7754ZM56.5273 11.2812V13.4004H49.3398V11.2812H56.5273ZM60.8926 10.5V25.5H58.3047V10.5H60.8926ZM62.8945 20.3242V20.1191C62.8945 19.3444 63.0052 18.6315 63.2266 17.9805C63.4479 17.3229 63.7702 16.7533 64.1934 16.2715C64.6165 15.7897 65.1341 15.4154 65.7461 15.1484C66.3581 14.875 67.0547 14.7383 67.8359 14.7383C68.6302 14.7383 69.3333 14.875 69.9453 15.1484C70.5638 15.4154 71.0846 15.7897 71.5078 16.2715C71.931 16.7533 72.2533 17.3229 72.4746 17.9805C72.696 18.6315 72.8066 19.3444 72.8066 20.1191V20.3242C72.8066 21.0924 72.696 21.8053 72.4746 22.4629C72.2533 23.1139 71.931 23.6836 71.5078 24.1719C71.0846 24.6536 70.5671 25.028 69.9551 25.2949C69.3431 25.5618 68.6432 25.6953 67.8555 25.6953C67.0742 25.6953 66.3743 25.5618 65.7559 25.2949C65.1374 25.028 64.6165 24.6536 64.1934 24.1719C63.7702 23.6836 63.4479 23.1139 63.2266 22.4629C63.0052 21.8053 62.8945 21.0924 62.8945 20.3242ZM65.4727 20.1191V20.3242C65.4727 20.7865 65.5182 21.2194 65.6094 21.623C65.7005 22.0267 65.8405 22.3815 66.0293 22.6875C66.2181 22.9935 66.4622 23.2344 66.7617 23.4102C67.0677 23.5794 67.4323 23.6641 67.8555 23.6641C68.2721 23.6641 68.6302 23.5794 68.9297 23.4102C69.2292 23.2344 69.4733 22.9935 69.6621 22.6875C69.8574 22.3815 70.0007 22.0267 70.0918 21.623C70.1829 21.2194 70.2285 20.7865 70.2285 20.3242V20.1191C70.2285 19.6634 70.1829 19.237 70.0918 18.8398C70.0007 18.4362 69.8574 18.0814 69.6621 17.7754C69.4733 17.4629 69.2259 17.2188 68.9199 17.043C68.6204 16.8607 68.2591 16.7695 67.8359 16.7695C67.4193 16.7695 67.0612 16.8607 66.7617 17.043C66.4622 17.2188 66.2181 17.4629 66.0293 17.7754C65.8405 18.0814 65.7005 18.4362 65.6094 18.8398C65.5182 19.237 65.4727 19.6634 65.4727 20.1191ZM77.6211 22.9609L79.9355 14.9336H81.5762L81.0879 17.707L78.7539 25.5H77.3379L77.6211 22.9609ZM76.3418 14.9336L78.0801 22.9805L78.2363 25.5H76.6055L73.832 14.9336H76.3418ZM83.7246 22.8633L85.4238 14.9336H87.9238L85.1699 25.5H83.5391L83.7246 22.8633ZM81.8301 14.9336L84.125 22.8828L84.4277 25.5H83.0117L80.6582 17.707L80.1797 14.9336H81.8301ZM89.4375 10.5H92.0254V23.166L91.7715 25.5H89.4375V10.5ZM98.8223 20.1094V20.3145C98.8223 21.1022 98.7344 21.8249 98.5586 22.4824C98.3893 23.14 98.1322 23.7096 97.7871 24.1914C97.4421 24.6667 97.0124 25.0378 96.498 25.3047C95.9902 25.5651 95.3945 25.6953 94.7109 25.6953C94.0599 25.6953 93.4935 25.5684 93.0117 25.3145C92.5365 25.0605 92.1361 24.7025 91.8105 24.2402C91.485 23.7715 91.2246 23.2214 91.0293 22.5898C90.834 21.9518 90.6875 21.2552 90.5898 20.5V19.9434C90.6875 19.1816 90.834 18.485 91.0293 17.8535C91.2246 17.222 91.485 16.6719 91.8105 16.2031C92.1361 15.7344 92.5365 15.373 93.0117 15.1191C93.487 14.8652 94.0469 14.7383 94.6914 14.7383C95.3815 14.7383 95.9837 14.8717 96.498 15.1387C97.0189 15.3991 97.4486 15.7702 97.7871 16.252C98.1322 16.7272 98.3893 17.2936 98.5586 17.9512C98.7344 18.6022 98.8223 19.3216 98.8223 20.1094ZM96.2344 20.3145V20.1094C96.2344 19.6602 96.1986 19.237 96.127 18.8398C96.0553 18.4362 95.9382 18.0814 95.7754 17.7754C95.6126 17.4694 95.3913 17.2285 95.1113 17.0527C94.8314 16.877 94.4798 16.7891 94.0566 16.7891C93.653 16.7891 93.3079 16.8574 93.0215 16.9941C92.7415 17.1309 92.5072 17.3197 92.3184 17.5605C92.1361 17.8014 91.9928 18.0846 91.8887 18.4102C91.791 18.7357 91.7259 19.0872 91.6934 19.4648V20.9883C91.7389 21.4896 91.8464 21.9421 92.0156 22.3457C92.1849 22.7428 92.4355 23.0586 92.7676 23.293C93.1061 23.5273 93.5423 23.6445 94.0762 23.6445C94.4928 23.6445 94.8411 23.5632 95.1211 23.4004C95.401 23.2311 95.6224 22.9967 95.7852 22.6973C95.9479 22.3913 96.0618 22.0365 96.127 21.6328C96.1986 21.2292 96.2344 20.7897 96.2344 20.3145ZM106.518 23.2539V18.3809C106.518 18.0228 106.456 17.7135 106.332 17.4531C106.208 17.1927 106.02 16.9909 105.766 16.8477C105.512 16.7044 105.189 16.6328 104.799 16.6328C104.454 16.6328 104.151 16.6914 103.891 16.8086C103.637 16.9258 103.441 17.0918 103.305 17.3066C103.168 17.515 103.1 17.7559 103.1 18.0293H100.512C100.512 17.5931 100.616 17.1797 100.824 16.7891C101.033 16.3919 101.329 16.0404 101.713 15.7344C102.104 15.4219 102.569 15.1777 103.109 15.002C103.656 14.8262 104.268 14.7383 104.945 14.7383C105.746 14.7383 106.459 14.875 107.084 15.1484C107.715 15.4154 108.21 15.819 108.568 16.3594C108.933 16.8997 109.115 17.5801 109.115 18.4004V23.0098C109.115 23.5371 109.148 23.9896 109.213 24.3672C109.285 24.7383 109.389 25.0605 109.525 25.334V25.5H106.898C106.775 25.2331 106.68 24.8945 106.615 24.4844C106.55 24.0677 106.518 23.6576 106.518 23.2539ZM106.879 19.0645L106.898 20.5977H105.268C104.864 20.5977 104.509 20.64 104.203 20.7246C103.897 20.8027 103.646 20.9199 103.451 21.0762C103.256 21.2259 103.109 21.4082 103.012 21.623C102.914 21.8314 102.865 22.069 102.865 22.3359C102.865 22.5964 102.924 22.8307 103.041 23.0391C103.165 23.2474 103.34 23.4134 103.568 23.5371C103.803 23.6543 104.076 23.7129 104.389 23.7129C104.844 23.7129 105.242 23.6217 105.58 23.4395C105.919 23.2507 106.182 23.0228 106.371 22.7559C106.56 22.4889 106.661 22.235 106.674 21.9941L107.416 23.1074C107.325 23.3743 107.188 23.6576 107.006 23.957C106.824 24.2565 106.589 24.5365 106.303 24.7969C106.016 25.0573 105.671 25.2721 105.268 25.4414C104.864 25.6107 104.395 25.6953 103.861 25.6953C103.178 25.6953 102.566 25.5586 102.025 25.2852C101.485 25.0117 101.059 24.6374 100.746 24.1621C100.434 23.6868 100.277 23.1465 100.277 22.541C100.277 21.9811 100.382 21.4863 100.59 21.0566C100.798 20.627 101.107 20.2656 101.518 19.9727C101.928 19.6732 102.436 19.4486 103.041 19.2988C103.653 19.1426 104.353 19.0645 105.141 19.0645H106.879ZM113.969 17.1895V25.5H111.391V14.9336H113.812L113.969 17.1895ZM113.559 19.8359H112.797C112.803 19.0677 112.908 18.3711 113.109 17.7461C113.311 17.1211 113.594 16.584 113.959 16.1348C114.33 15.6855 114.77 15.3405 115.277 15.0996C115.785 14.8587 116.352 14.7383 116.977 14.7383C117.484 14.7383 117.943 14.8099 118.354 14.9531C118.764 15.0964 119.115 15.3242 119.408 15.6367C119.708 15.9492 119.936 16.3594 120.092 16.8672C120.255 17.3685 120.336 17.987 120.336 18.7227V25.5H117.738V18.7031C117.738 18.2214 117.667 17.8405 117.523 17.5605C117.387 17.2806 117.185 17.082 116.918 16.9648C116.658 16.8477 116.335 16.7891 115.951 16.7891C115.554 16.7891 115.206 16.8704 114.906 17.0332C114.613 17.1895 114.366 17.4076 114.164 17.6875C113.969 17.9674 113.819 18.2897 113.715 18.6543C113.611 19.0189 113.559 19.4128 113.559 19.8359ZM125.189 10.4902V25.5H122.611V10.4902H125.189ZM131.811 14.9336L127.211 20.0996L124.721 22.6289L123.9 20.627L125.824 18.2051L128.695 14.9336H131.811ZM129.174 25.5L125.902 20.5781L127.621 18.9082L132.162 25.5H129.174Z" fill="#13103C"/>
</svg>
