<svg width="312" height="211" viewBox="0 0 312 211" fill="none" xmlns="http://www.w3.org/2000/svg">
<g clip-path="url(#clip0_1_1216)">
<rect width="312" height="211" fill="#6C2FED"/>
<rect x="78" y="-78" width="156" height="156" rx="78" fill="#312844"/>
<g clip-path="url(#clip1_1_1216)">
<rect opacity="0.2" x="113.6" y="139.6" width="84.8" height="84.8" stroke="#FF35D3" stroke-width="0.533333"/>
<rect opacity="0.2" x="129.6" y="155.6" width="52.8" height="52.8" stroke="#FF35D3" stroke-width="0.533333"/>
<rect opacity="0.2" x="124.267" y="134.267" width="63.4667" height="95.4667" stroke="#FF35D3" stroke-width="0.533333"/>
<rect opacity="0.2" x="203.733" y="150.267" width="63.4667" height="95.4667" transform="rotate(90 203.733 150.267)" stroke="#FF35D3" stroke-width="0.533333"/>
<circle opacity="0.2" cx="156" cy="182" r="53.0667" stroke="#FF35D3" stroke-width="0.533333"/>
<circle opacity="0.2" cx="156" cy="182" r="15.7333" stroke="#FF35D3" stroke-width="0.533333"/>
<circle opacity="0.2" cx="156" cy="182" r="37.0667" stroke="#FF35D3" stroke-width="0.533333"/>
<line opacity="0.2" x1="113.522" y1="139.145" x2="198.855" y2="224.478" stroke="#FF35D3" stroke-width="0.533333"/>
<line opacity="0.2" x1="95.6602" y1="181.733" x2="216.34" y2="181.733" stroke="#FF35D3" stroke-width="0.533333"/>
<line opacity="0.2" x1="198.855" y1="139.522" x2="113.522" y2="224.855" stroke="#FF35D3" stroke-width="0.533333"/>
<line opacity="0.2" x1="156.267" y1="121.66" x2="156.267" y2="242.34" stroke="#FF35D3" stroke-width="0.533333"/>
<path d="M126.667 224.667V147.333H129.333L182.667 216.667H185.333V139.333M108 168.667H204M108 195.333H204" stroke="#312844" stroke-width="16"/>
</g>
<g clip-path="url(#clip2_1_1216)">
<rect opacity="0.2" x="245.606" y="64.6063" width="33.7875" height="33.7875" stroke="#FF35D3" stroke-width="0.2125"/>
<rect opacity="0.2" x="251.981" y="70.9813" width="21.0375" height="21.0375" stroke="#FF35D3" stroke-width="0.2125"/>
<rect opacity="0.2" x="249.856" y="62.4813" width="25.2875" height="38.0375" stroke="#FF35D3" stroke-width="0.2125"/>
<rect opacity="0.2" x="281.519" y="68.8562" width="25.2875" height="38.0375" transform="rotate(90 281.519 68.8562)" stroke="#FF35D3" stroke-width="0.2125"/>
<circle opacity="0.2" cx="262.5" cy="81.5" r="21.1437" stroke="#FF35D3" stroke-width="0.2125"/>
<circle opacity="0.2" cx="262.5" cy="81.5" r="6.26875" stroke="#FF35D3" stroke-width="0.2125"/>
<circle opacity="0.2" cx="262.5" cy="81.5" r="14.7688" stroke="#FF35D3" stroke-width="0.2125"/>
<line opacity="0.2" x1="245.575" y1="64.4249" x2="279.575" y2="98.4249" stroke="#FF35D3" stroke-width="0.2125"/>
<line opacity="0.2" x1="238.458" y1="81.3937" x2="286.542" y2="81.3938" stroke="#FF35D3" stroke-width="0.2125"/>
<line opacity="0.2" x1="279.575" y1="64.5751" x2="245.575" y2="98.5751" stroke="#FF35D3" stroke-width="0.2125"/>
<line opacity="0.2" x1="262.606" y1="57.4583" x2="262.606" y2="105.542" stroke="#FF35D3" stroke-width="0.2125"/>
<path d="M250.812 98.5V67.6875H251.875L273.125 95.3125H274.188V64.5M243.375 76.1875H281.625M243.375 86.8125H281.625" stroke="white" stroke-width="6.375"/>
</g>
<g clip-path="url(#clip3_1_1216)">
<rect opacity="0.2" x="32.6063" y="63.6063" width="33.7875" height="33.7875" stroke="#FF35D3" stroke-width="0.2125"/>
<rect opacity="0.2" x="38.9813" y="69.9813" width="21.0375" height="21.0375" stroke="#FF35D3" stroke-width="0.2125"/>
<rect opacity="0.2" x="36.8563" y="61.4813" width="25.2875" height="38.0375" stroke="#FF35D3" stroke-width="0.2125"/>
<rect opacity="0.2" x="68.5187" y="67.8562" width="25.2875" height="38.0375" transform="rotate(90 68.5187 67.8562)" stroke="#FF35D3" stroke-width="0.2125"/>
<circle opacity="0.2" cx="49.5" cy="80.5" r="21.1437" stroke="#FF35D3" stroke-width="0.2125"/>
<circle opacity="0.2" cx="49.5" cy="80.5" r="6.26875" stroke="#FF35D3" stroke-width="0.2125"/>
<circle opacity="0.2" cx="49.5" cy="80.5" r="14.7688" stroke="#FF35D3" stroke-width="0.2125"/>
<line opacity="0.2" x1="32.5751" y1="63.4249" x2="66.5751" y2="97.4249" stroke="#FF35D3" stroke-width="0.2125"/>
<line opacity="0.2" x1="25.4583" y1="80.3937" x2="73.5416" y2="80.3938" stroke="#FF35D3" stroke-width="0.2125"/>
<line opacity="0.2" x1="66.5751" y1="63.5751" x2="32.5751" y2="97.5751" stroke="#FF35D3" stroke-width="0.2125"/>
<line opacity="0.2" x1="49.6063" y1="56.4583" x2="49.6062" y2="104.542" stroke="#FF35D3" stroke-width="0.2125"/>
<path d="M37.8125 97.5V66.6875H38.875L60.125 94.3125H61.1875V63.5M30.375 75.1875H68.625M30.375 85.8125H68.625" stroke="white" stroke-width="6.375"/>
</g>
</g>
<defs>
<clipPath id="clip0_1_1216">
<rect width="312" height="211" fill="white"/>
</clipPath>
<clipPath id="clip1_1_1216">
<rect width="128" height="128" fill="white" transform="translate(92 118)"/>
</clipPath>
<clipPath id="clip2_1_1216">
<rect width="51" height="51" fill="white" transform="translate(237 56)"/>
</clipPath>
<clipPath id="clip3_1_1216">
<rect width="51" height="51" fill="white" transform="translate(24 55)"/>
</clipPath>
</defs>
</svg>
