<svg width="515" height="575" viewBox="0 0 515 575" fill="none" xmlns="http://www.w3.org/2000/svg">
<rect x="160" y="569" width="168" height="260" transform="rotate(-90 160 569)" fill="url(#paint0_linear_1_1316)"/>
<rect x="342" width="168" height="453" fill="url(#paint1_linear_1_1316)"/>
<rect x="82" y="168" width="168" height="260" transform="rotate(-90 82 168)" fill="url(#paint2_linear_1_1316)"/>
<rect x="210" y="490" width="168" height="453" transform="rotate(180 210 490)" fill="url(#paint3_linear_1_1316)"/>
<rect x="471" y="315" width="6" height="185" rx="3" fill="#6C2FED"/>
<rect x="454" y="348" width="6" height="185" rx="3" fill="#6C2FED"/>
<rect x="437" y="321" width="6" height="185" rx="3" fill="#6C2FED"/>
<rect x="420" y="294" width="6" height="185" rx="3" fill="#6C2FED"/>
<g filter="url(#filter0_dd_1_1316)">
<rect x="216" y="32" width="236" height="147" rx="16" fill="white"/>
<path d="M248.799 70.3086C248.799 70.0352 248.757 69.791 248.672 69.5762C248.594 69.3548 248.447 69.1562 248.232 68.9805C248.024 68.7982 247.728 68.6224 247.344 68.4531C246.966 68.2773 246.478 68.0951 245.879 67.9062C245.215 67.6979 244.596 67.4635 244.023 67.2031C243.451 66.9427 242.946 66.64 242.51 66.2949C242.08 65.9499 241.745 65.5527 241.504 65.1035C241.263 64.6478 241.143 64.1204 241.143 63.5215C241.143 62.9355 241.266 62.4017 241.514 61.9199C241.768 61.4382 242.126 61.0247 242.588 60.6797C243.05 60.3281 243.594 60.0579 244.219 59.8691C244.85 59.6803 245.547 59.5859 246.309 59.5859C247.363 59.5859 248.275 59.778 249.043 60.1621C249.818 60.5462 250.417 61.0671 250.84 61.7246C251.263 62.3822 251.475 63.1211 251.475 63.9414H248.799C248.799 63.4987 248.704 63.1081 248.516 62.7695C248.333 62.431 248.053 62.1641 247.676 61.9688C247.305 61.7734 246.836 61.6758 246.27 61.6758C245.723 61.6758 245.267 61.7572 244.902 61.9199C244.544 62.0827 244.274 62.304 244.092 62.584C243.916 62.8639 243.828 63.1764 243.828 63.5215C243.828 63.7819 243.89 64.0163 244.014 64.2246C244.137 64.4264 244.323 64.6185 244.57 64.8008C244.818 64.9766 245.124 65.1426 245.488 65.2988C245.859 65.4486 246.289 65.5983 246.777 65.748C247.559 65.9824 248.242 66.2428 248.828 66.5293C249.421 66.8158 249.912 67.1413 250.303 67.5059C250.7 67.8704 250.996 68.2806 251.191 68.7363C251.393 69.1921 251.494 69.7096 251.494 70.2891C251.494 70.901 251.374 71.4479 251.133 71.9297C250.892 72.4115 250.547 72.8216 250.098 73.1602C249.648 73.4987 249.108 73.7559 248.477 73.9316C247.852 74.1074 247.152 74.1953 246.377 74.1953C245.687 74.1953 245.003 74.1042 244.326 73.9219C243.656 73.7331 243.047 73.4531 242.5 73.082C241.953 72.7044 241.517 72.2292 241.191 71.6562C240.866 71.0768 240.703 70.3997 240.703 69.625H243.398C243.398 70.0742 243.47 70.4583 243.613 70.7773C243.763 71.0898 243.971 71.347 244.238 71.5488C244.512 71.7441 244.831 71.8874 245.195 71.9785C245.56 72.0697 245.954 72.1152 246.377 72.1152C246.924 72.1152 247.373 72.0404 247.725 71.8906C248.083 71.7344 248.35 71.5195 248.525 71.2461C248.708 70.9727 248.799 70.6602 248.799 70.3086ZM255.947 65.4648V78.0625H253.359V63.4336H255.752L255.947 65.4648ZM262.734 68.6094V68.8145C262.734 69.5827 262.643 70.2956 262.461 70.9531C262.285 71.6042 262.025 72.1738 261.68 72.6621C261.335 73.1439 260.905 73.5215 260.391 73.7949C259.883 74.0618 259.297 74.1953 258.633 74.1953C257.982 74.1953 257.415 74.0716 256.934 73.8242C256.452 73.5703 256.045 73.2122 255.713 72.75C255.381 72.2878 255.114 71.7507 254.912 71.1387C254.717 70.5202 254.57 69.8464 254.473 69.1172V68.4629C254.57 67.6882 254.717 66.985 254.912 66.3535C255.114 65.7155 255.381 65.1654 255.713 64.7031C256.045 64.2344 256.449 63.873 256.924 63.6191C257.406 63.3652 257.969 63.2383 258.613 63.2383C259.284 63.2383 259.873 63.3652 260.381 63.6191C260.895 63.873 261.328 64.2376 261.68 64.7129C262.031 65.1882 262.295 65.7546 262.471 66.4121C262.647 67.0697 262.734 67.8021 262.734 68.6094ZM260.147 68.8145V68.6094C260.147 68.1406 260.104 67.7077 260.02 67.3105C259.935 66.9069 259.805 66.5553 259.629 66.2559C259.453 65.9499 259.225 65.7122 258.945 65.543C258.665 65.3737 258.327 65.2891 257.93 65.2891C257.533 65.2891 257.191 65.3542 256.904 65.4844C256.618 65.6146 256.384 65.8001 256.201 66.041C256.019 66.2819 255.876 66.5684 255.772 66.9004C255.674 67.2259 255.609 67.5872 255.576 67.9844V69.6055C255.635 70.0872 255.749 70.5202 255.918 70.9043C256.087 71.2884 256.335 71.5944 256.66 71.8223C256.992 72.0501 257.422 72.1641 257.949 72.1641C258.346 72.1641 258.685 72.0762 258.965 71.9004C259.245 71.7246 259.473 71.4837 259.648 71.1777C259.824 70.8652 259.951 70.5072 260.029 70.1035C260.107 69.6999 260.147 69.2702 260.147 68.8145ZM269.365 74.1953C268.565 74.1953 267.845 74.0651 267.207 73.8047C266.569 73.5443 266.025 73.1829 265.576 72.7207C265.134 72.252 264.792 71.7083 264.551 71.0898C264.316 70.4648 264.199 69.7943 264.199 69.0781V68.6875C264.199 67.8737 264.316 67.1348 264.551 66.4707C264.785 65.8001 265.117 65.224 265.547 64.7422C265.977 64.2604 266.491 63.8893 267.09 63.6289C267.689 63.3685 268.35 63.2383 269.072 63.2383C269.821 63.2383 270.482 63.3652 271.055 63.6191C271.628 63.8665 272.106 64.2181 272.49 64.6738C272.874 65.1296 273.164 65.6764 273.359 66.3145C273.555 66.946 273.652 67.6458 273.652 68.4141V69.498H265.371V67.7207H271.113V67.5254C271.1 67.1152 271.022 66.7409 270.879 66.4023C270.736 66.0573 270.514 65.7839 270.215 65.582C269.915 65.3737 269.528 65.2695 269.053 65.2695C268.669 65.2695 268.333 65.3542 268.047 65.5234C267.767 65.6862 267.533 65.9206 267.344 66.2266C267.162 66.526 267.025 66.8841 266.934 67.3008C266.843 67.7174 266.797 68.1797 266.797 68.6875V69.0781C266.797 69.5208 266.856 69.931 266.973 70.3086C267.096 70.6862 267.275 71.015 267.51 71.2949C267.751 71.5684 268.037 71.7832 268.369 71.9395C268.708 72.0892 269.092 72.1641 269.522 72.1641C270.062 72.1641 270.55 72.0599 270.986 71.8516C271.429 71.6367 271.813 71.321 272.139 70.9043L273.438 72.252C273.216 72.5775 272.917 72.89 272.539 73.1895C272.168 73.4889 271.719 73.7331 271.191 73.9219C270.664 74.1042 270.055 74.1953 269.365 74.1953ZM277.91 65.6895V74H275.332V63.4336H277.754L277.91 65.6895ZM277.5 68.3359H276.738C276.745 67.5677 276.849 66.8711 277.051 66.2461C277.253 65.6211 277.536 65.084 277.9 64.6348C278.272 64.1855 278.711 63.8405 279.219 63.5996C279.727 63.3587 280.293 63.2383 280.918 63.2383C281.426 63.2383 281.885 63.3099 282.295 63.4531C282.705 63.5964 283.057 63.8242 283.35 64.1367C283.649 64.4492 283.877 64.8594 284.033 65.3672C284.196 65.8685 284.277 66.487 284.277 67.2227V74H281.68V67.2031C281.68 66.7214 281.608 66.3405 281.465 66.0605C281.328 65.7806 281.126 65.582 280.859 65.4648C280.599 65.3477 280.277 65.2891 279.893 65.2891C279.496 65.2891 279.147 65.3704 278.848 65.5332C278.555 65.6895 278.307 65.9076 278.106 66.1875C277.91 66.4674 277.76 66.7897 277.656 67.1543C277.552 67.5189 277.5 67.9128 277.5 68.3359ZM292.891 71.7539V59H295.488V74H293.145L292.891 71.7539ZM286.104 68.8438V68.6387C286.104 67.8314 286.195 67.099 286.377 66.4414C286.566 65.7773 286.839 65.2077 287.197 64.7324C287.555 64.2572 287.988 63.8893 288.496 63.6289C289.01 63.3685 289.593 63.2383 290.244 63.2383C290.876 63.2383 291.426 63.3652 291.895 63.6191C292.37 63.873 292.773 64.2344 293.106 64.7031C293.444 65.1719 293.714 65.7285 293.916 66.373C294.118 67.0111 294.264 67.7142 294.356 68.4824V69.0391C294.264 69.7878 294.118 70.4746 293.916 71.0996C293.714 71.7246 293.444 72.2715 293.106 72.7402C292.773 73.2025 292.37 73.5605 291.895 73.8145C291.419 74.0684 290.863 74.1953 290.225 74.1953C289.58 74.1953 289.001 74.0618 288.486 73.7949C287.979 73.528 287.546 73.1536 287.188 72.6719C286.836 72.1901 286.566 71.6237 286.377 70.9727C286.195 70.3216 286.104 69.612 286.104 68.8438ZM288.691 68.6387V68.8438C288.691 69.2995 288.731 69.7259 288.809 70.123C288.887 70.5202 289.014 70.8717 289.19 71.1777C289.365 71.4772 289.59 71.7116 289.863 71.8809C290.143 72.0501 290.482 72.1348 290.879 72.1348C291.387 72.1348 291.803 72.0241 292.129 71.8027C292.461 71.5749 292.718 71.2656 292.9 70.875C293.083 70.4779 293.2 70.0319 293.252 69.5371V68.0039C293.226 67.6133 293.158 67.252 293.047 66.9199C292.943 66.5879 292.793 66.3014 292.598 66.0605C292.409 65.8197 292.175 65.6309 291.895 65.4941C291.615 65.3574 291.283 65.2891 290.898 65.2891C290.501 65.2891 290.163 65.377 289.883 65.5527C289.603 65.722 289.375 65.9596 289.199 66.2656C289.023 66.5716 288.893 66.9264 288.809 67.3301C288.731 67.7337 288.691 68.1699 288.691 68.6387ZM300.557 63.4336V74H297.969V63.4336H300.557ZM297.793 60.6699C297.793 60.2858 297.923 59.9668 298.184 59.7129C298.451 59.459 298.809 59.332 299.258 59.332C299.707 59.332 300.062 59.459 300.322 59.7129C300.589 59.9668 300.723 60.2858 300.723 60.6699C300.723 61.0475 300.589 61.3633 300.322 61.6172C300.062 61.8711 299.707 61.998 299.258 61.998C298.809 61.998 298.451 61.8711 298.184 61.6172C297.923 61.3633 297.793 61.0475 297.793 60.6699ZM305.547 65.6895V74H302.969V63.4336H305.391L305.547 65.6895ZM305.137 68.3359H304.375C304.382 67.5677 304.486 66.8711 304.688 66.2461C304.889 65.6211 305.173 65.084 305.537 64.6348C305.908 64.1855 306.348 63.8405 306.856 63.5996C307.363 63.3587 307.93 63.2383 308.555 63.2383C309.063 63.2383 309.522 63.3099 309.932 63.4531C310.342 63.5964 310.693 63.8242 310.986 64.1367C311.286 64.4492 311.514 64.8594 311.67 65.3672C311.833 65.8685 311.914 66.487 311.914 67.2227V74H309.316V67.2031C309.316 66.7214 309.245 66.3405 309.102 66.0605C308.965 65.7806 308.763 65.582 308.496 65.4648C308.236 65.3477 307.913 65.2891 307.529 65.2891C307.132 65.2891 306.784 65.3704 306.484 65.5332C306.191 65.6895 305.944 65.9076 305.742 66.1875C305.547 66.4674 305.397 66.7897 305.293 67.1543C305.189 67.5189 305.137 67.9128 305.137 68.3359ZM320.908 63.4336H323.252V73.6777C323.252 74.6348 323.044 75.4453 322.627 76.1094C322.217 76.7799 321.641 77.2878 320.898 77.6328C320.156 77.9844 319.294 78.1602 318.311 78.1602C317.887 78.1602 317.428 78.1016 316.934 77.9844C316.445 77.8672 315.973 77.6816 315.518 77.4277C315.068 77.1803 314.694 76.8581 314.395 76.4609L315.557 74.9375C315.908 75.3477 316.305 75.6569 316.748 75.8652C317.191 76.0801 317.669 76.1875 318.184 76.1875C318.704 76.1875 319.147 76.0898 319.512 75.8945C319.883 75.7057 320.166 75.4258 320.361 75.0547C320.563 74.6901 320.664 74.2409 320.664 73.707V65.8457L320.908 63.4336ZM313.77 68.8438V68.6387C313.77 67.8314 313.867 67.099 314.063 66.4414C314.258 65.7773 314.538 65.2077 314.902 64.7324C315.273 64.2572 315.719 63.8893 316.24 63.6289C316.768 63.3685 317.36 63.2383 318.018 63.2383C318.714 63.2383 319.3 63.3652 319.775 63.6191C320.257 63.873 320.654 64.2344 320.967 64.7031C321.286 65.1719 321.533 65.7285 321.709 66.373C321.891 67.0111 322.031 67.7142 322.129 68.4824V69.0391C322.038 69.7878 321.891 70.4746 321.69 71.0996C321.494 71.7246 321.234 72.2715 320.908 72.7402C320.583 73.2025 320.179 73.5605 319.697 73.8145C319.216 74.0684 318.649 74.1953 317.998 74.1953C317.347 74.1953 316.761 74.0618 316.24 73.7949C315.719 73.528 315.273 73.1536 314.902 72.6719C314.538 72.1901 314.258 71.6237 314.063 70.9727C313.867 70.3216 313.77 69.612 313.77 68.8438ZM316.348 68.6387V68.8438C316.348 69.2995 316.393 69.7259 316.484 70.123C316.576 70.5202 316.716 70.8717 316.904 71.1777C317.093 71.4772 317.331 71.7116 317.617 71.8809C317.904 72.0501 318.246 72.1348 318.643 72.1348C319.176 72.1348 319.613 72.0241 319.951 71.8027C320.296 71.5749 320.557 71.2656 320.732 70.875C320.915 70.4779 321.032 70.0319 321.084 69.5371V68.0039C321.051 67.6133 320.98 67.252 320.869 66.9199C320.765 66.5879 320.619 66.3014 320.43 66.0605C320.241 65.8197 320 65.6309 319.707 65.4941C319.414 65.3574 319.066 65.2891 318.662 65.2891C318.272 65.2891 317.93 65.377 317.637 65.5527C317.344 65.722 317.103 65.9596 316.914 66.2656C316.725 66.5716 316.582 66.9264 316.484 67.3301C316.393 67.7337 316.348 68.1699 316.348 68.6387ZM336.406 61.9395L332.354 74H329.512L334.824 59.7812H336.641L336.406 61.9395ZM339.795 74L335.723 61.9395L335.479 59.7812H337.305L342.647 74H339.795ZM339.609 68.7168V70.8359H331.982V68.7168H339.609ZM346.231 65.6016V74H343.652V63.4336H346.084L346.231 65.6016ZM345.85 68.3359H345.059C345.059 67.6003 345.147 66.9232 345.322 66.3047C345.505 65.6862 345.772 65.1491 346.123 64.6934C346.475 64.2311 346.908 63.873 347.422 63.6191C347.943 63.3652 348.545 63.2383 349.229 63.2383C349.704 63.2383 350.14 63.3099 350.537 63.4531C350.934 63.5898 351.276 63.8079 351.563 64.1074C351.856 64.4004 352.08 64.7845 352.236 65.2598C352.393 65.7285 352.471 66.2917 352.471 66.9492V74H349.893V67.2129C349.893 66.7181 349.821 66.3307 349.678 66.0508C349.541 65.7708 349.343 65.5755 349.082 65.4648C348.822 65.3477 348.509 65.2891 348.145 65.2891C347.741 65.2891 347.393 65.3704 347.1 65.5332C346.813 65.6895 346.576 65.9076 346.387 66.1875C346.204 66.4674 346.068 66.7897 345.977 67.1543C345.892 67.5189 345.85 67.9128 345.85 68.3359ZM352.275 67.8574L351.211 68.0527C351.218 67.3887 351.309 66.7669 351.484 66.1875C351.66 65.6016 351.917 65.0905 352.256 64.6543C352.601 64.2116 353.027 63.8665 353.535 63.6191C354.05 63.3652 354.642 63.2383 355.313 63.2383C355.833 63.2383 356.302 63.3132 356.719 63.4629C357.142 63.6061 357.503 63.8372 357.803 64.1562C358.102 64.4688 358.33 64.8757 358.486 65.377C358.649 65.8783 358.731 66.4902 358.731 67.2129V74H356.133V67.2031C356.133 66.6888 356.061 66.2949 355.918 66.0215C355.781 65.748 355.583 65.5592 355.322 65.4551C355.062 65.3444 354.756 65.2891 354.404 65.2891C354.046 65.2891 353.734 65.3574 353.467 65.4941C353.206 65.6243 352.985 65.8066 352.803 66.041C352.627 66.2754 352.494 66.5488 352.402 66.8613C352.318 67.1673 352.275 67.4993 352.275 67.8574ZM360.586 68.8242V68.6191C360.586 67.8444 360.697 67.1315 360.918 66.4805C361.139 65.8229 361.462 65.2533 361.885 64.7715C362.308 64.2897 362.826 63.9154 363.438 63.6484C364.05 63.375 364.746 63.2383 365.527 63.2383C366.322 63.2383 367.025 63.375 367.637 63.6484C368.255 63.9154 368.776 64.2897 369.199 64.7715C369.622 65.2533 369.945 65.8229 370.166 66.4805C370.387 67.1315 370.498 67.8444 370.498 68.6191V68.8242C370.498 69.5924 370.387 70.3053 370.166 70.9629C369.945 71.6139 369.622 72.1836 369.199 72.6719C368.776 73.1536 368.259 73.528 367.647 73.7949C367.035 74.0618 366.335 74.1953 365.547 74.1953C364.766 74.1953 364.066 74.0618 363.447 73.7949C362.829 73.528 362.308 73.1536 361.885 72.6719C361.462 72.1836 361.139 71.6139 360.918 70.9629C360.697 70.3053 360.586 69.5924 360.586 68.8242ZM363.164 68.6191V68.8242C363.164 69.2865 363.21 69.7194 363.301 70.123C363.392 70.5267 363.532 70.8815 363.721 71.1875C363.91 71.4935 364.154 71.7344 364.453 71.9102C364.759 72.0794 365.124 72.1641 365.547 72.1641C365.964 72.1641 366.322 72.0794 366.621 71.9102C366.921 71.7344 367.165 71.4935 367.354 71.1875C367.549 70.8815 367.692 70.5267 367.783 70.123C367.874 69.7194 367.92 69.2865 367.92 68.8242V68.6191C367.92 68.1634 367.874 67.737 367.783 67.3398C367.692 66.9362 367.549 66.5814 367.354 66.2754C367.165 65.9629 366.917 65.7188 366.611 65.543C366.312 65.3607 365.951 65.2695 365.527 65.2695C365.111 65.2695 364.753 65.3607 364.453 65.543C364.154 65.7188 363.91 65.9629 363.721 66.2754C363.532 66.5814 363.392 66.9362 363.301 67.3398C363.21 67.737 363.164 68.1634 363.164 68.6191ZM378.662 71.4902V63.4336H381.26V74H378.818L378.662 71.4902ZM378.994 69.3027L379.795 69.2832C379.795 69.9928 379.717 70.6471 379.561 71.2461C379.404 71.8451 379.16 72.3659 378.828 72.8086C378.503 73.2448 378.089 73.5866 377.588 73.834C377.087 74.0749 376.494 74.1953 375.811 74.1953C375.29 74.1953 374.815 74.1237 374.385 73.9805C373.955 73.8307 373.584 73.5996 373.272 73.2871C372.966 72.9681 372.728 72.5612 372.559 72.0664C372.389 71.5651 372.305 70.9629 372.305 70.2598V63.4336H374.883V70.2793C374.883 70.6309 374.922 70.9238 375 71.1582C375.085 71.3926 375.199 71.5846 375.342 71.7344C375.492 71.8776 375.664 71.9818 375.859 72.0469C376.061 72.1055 376.276 72.1348 376.504 72.1348C377.129 72.1348 377.621 72.0111 377.979 71.7637C378.343 71.5098 378.604 71.1712 378.76 70.748C378.916 70.3184 378.994 69.8366 378.994 69.3027ZM386.074 65.6895V74H383.496V63.4336H385.918L386.074 65.6895ZM385.664 68.3359H384.902C384.909 67.5677 385.013 66.8711 385.215 66.2461C385.417 65.6211 385.7 65.084 386.065 64.6348C386.436 64.1855 386.875 63.8405 387.383 63.5996C387.891 63.3587 388.457 63.2383 389.082 63.2383C389.59 63.2383 390.049 63.3099 390.459 63.4531C390.869 63.5964 391.221 63.8242 391.514 64.1367C391.813 64.4492 392.041 64.8594 392.197 65.3672C392.36 65.8685 392.441 66.487 392.441 67.2227V74H389.844V67.2031C389.844 66.7214 389.772 66.3405 389.629 66.0605C389.492 65.7806 389.29 65.582 389.023 65.4648C388.763 65.3477 388.441 65.2891 388.057 65.2891C387.66 65.2891 387.311 65.3704 387.012 65.5332C386.719 65.6895 386.471 65.9076 386.27 66.1875C386.074 66.4674 385.925 66.7897 385.82 67.1543C385.716 67.5189 385.664 67.9128 385.664 68.3359ZM399.717 63.4336V65.2891H393.662V63.4336H399.717ZM395.283 60.8359H397.871V70.9531C397.871 71.2656 397.913 71.5065 397.998 71.6758C398.083 71.8451 398.21 71.959 398.379 72.0176C398.548 72.0762 398.75 72.1055 398.984 72.1055C399.154 72.1055 399.31 72.0957 399.453 72.0762C399.596 72.0566 399.717 72.0371 399.815 72.0176L399.824 73.9512C399.609 74.0228 399.365 74.0814 399.092 74.127C398.825 74.1725 398.522 74.1953 398.184 74.1953C397.604 74.1953 397.096 74.0977 396.66 73.9023C396.224 73.7005 395.885 73.3783 395.645 72.9355C395.404 72.4863 395.283 71.8939 395.283 71.1582V60.8359ZM407.246 71.1094C407.246 70.888 407.188 70.6895 407.07 70.5137C406.953 70.3379 406.732 70.1784 406.406 70.0352C406.087 69.8854 405.619 69.7454 405 69.6152C404.453 69.498 403.949 69.3516 403.486 69.1758C403.024 69 402.627 68.7884 402.295 68.541C401.963 68.2871 401.703 67.9909 401.514 67.6523C401.331 67.3073 401.24 66.9102 401.24 66.4609C401.24 66.0247 401.335 65.6146 401.523 65.2305C401.712 64.8398 401.986 64.498 402.344 64.2051C402.702 63.9056 403.138 63.6712 403.652 63.502C404.167 63.3262 404.746 63.2383 405.391 63.2383C406.289 63.2383 407.061 63.3848 407.705 63.6777C408.356 63.9707 408.854 64.3743 409.199 64.8887C409.544 65.3965 409.717 65.9694 409.717 66.6074H407.139C407.139 66.3275 407.074 66.0736 406.943 65.8457C406.82 65.6178 406.628 65.4355 406.367 65.2988C406.107 65.1556 405.778 65.084 405.381 65.084C405.023 65.084 404.72 65.1426 404.473 65.2598C404.232 65.377 404.05 65.5299 403.926 65.7188C403.802 65.9076 403.74 66.1159 403.74 66.3438C403.74 66.513 403.773 66.666 403.838 66.8027C403.91 66.9329 404.023 67.0534 404.18 67.1641C404.336 67.2747 404.548 67.3757 404.815 67.4668C405.088 67.5579 405.423 67.6458 405.82 67.7305C406.608 67.8867 407.295 68.0951 407.881 68.3555C408.473 68.6094 408.936 68.9479 409.268 69.3711C409.6 69.7943 409.766 70.3346 409.766 70.9922C409.766 71.4609 409.665 71.8906 409.463 72.2812C409.261 72.6654 408.968 73.0007 408.584 73.2871C408.2 73.5736 407.741 73.7982 407.207 73.9609C406.673 74.1172 406.071 74.1953 405.4 74.1953C404.43 74.1953 403.61 74.0228 402.94 73.6777C402.269 73.3262 401.761 72.8835 401.416 72.3496C401.071 71.8092 400.898 71.2493 400.898 70.6699H403.369C403.389 71.0801 403.499 71.4089 403.701 71.6562C403.903 71.9036 404.157 72.0827 404.463 72.1934C404.775 72.2975 405.104 72.3496 405.449 72.3496C405.84 72.3496 406.169 72.2975 406.436 72.1934C406.703 72.0827 406.904 71.9362 407.041 71.7539C407.178 71.5651 407.246 71.3503 407.246 71.1094Z" fill="black"/>
<rect x="240" y="114" width="12" height="41" fill="#4E3E70"/>
<rect x="256" y="95" width="12" height="60" fill="#6A2FEA"/>
<rect x="272" y="136" width="12" height="19" fill="#1B0057"/>
<rect x="288" y="105" width="12" height="50" fill="#4E3E70"/>
<rect x="304" y="95" width="12" height="60" fill="#6A2FEA"/>
<rect x="320" y="114" width="12" height="41" fill="#4E3E70"/>
<rect x="336" y="136" width="12" height="19" fill="#1B0057"/>
<rect x="352" y="105" width="12" height="50" fill="#4E3E70"/>
<rect x="368" y="114" width="12" height="41" fill="#4E3E70"/>
<rect x="384" y="95" width="12" height="60" fill="#6A2FEA"/>
<rect x="400" y="136" width="12" height="19" fill="#1B0057"/>
<rect x="416" y="105" width="12" height="50" fill="#4E3E70"/>
</g>
<g filter="url(#filter1_dd_1_1316)">
<g clip-path="url(#clip0_1_1316)">
<rect x="60.0001" y="225.32" width="250" height="340.986" rx="13.6054" transform="rotate(-34.6999 60.0001 225.32)" fill="white"/>
<path d="M171.541 440.18L-41.5486 132.439L155.598 -4.07185L187.957 42.6604L46.5584 140.569L104.409 224.116L232.284 135.572L264.643 182.304L136.768 270.849L227.289 401.579L171.541 440.18Z" fill="#F1F1F1"/>
<path d="M366.895 448.315L226.967 246.233L356.426 156.592L377.674 187.279L284.824 251.572L322.812 306.434L406.782 248.291L428.031 278.978L344.06 337.121L403.502 422.966L366.895 448.315Z" fill="#F1F1F1"/>
<path d="M88.1136 231.796L89.0762 233.186L84.5678 236.308L83.6051 234.918L88.1136 231.796ZM90.0131 241.764L84.2337 233.418C83.8785 232.904 83.6887 232.404 83.6645 231.917C83.6436 231.427 83.7551 230.972 83.999 230.554C84.2429 230.135 84.585 229.773 85.0252 229.468C85.3364 229.253 85.6299 229.086 85.906 228.969C86.182 228.851 86.3917 228.772 86.535 228.731L87.1402 230.369C87.048 230.399 86.936 230.442 86.8041 230.499C86.6699 230.553 86.5316 230.629 86.3893 230.728C86.055 230.959 85.8745 231.204 85.8477 231.463C85.822 231.715 85.9123 231.991 86.1186 232.289L91.8155 240.516L90.0131 241.764ZM89.5583 227.035L96.5995 237.204L94.8021 238.448L87.7609 228.279L89.5583 227.035ZM101.878 233.769C101.133 234.285 100.374 234.568 99.6008 234.618C98.8277 234.669 98.0866 234.504 97.3774 234.123C96.6715 233.74 96.0458 233.155 95.5003 232.367C94.9548 231.579 94.6258 230.786 94.5135 229.987C94.4044 229.186 94.5095 228.433 94.8288 227.727C95.148 227.021 95.6801 226.41 96.4248 225.894C97.1696 225.379 97.9286 225.095 98.7017 225.045C99.4747 224.995 100.215 225.162 100.924 225.549C101.635 225.933 102.264 226.518 102.809 227.306C103.355 228.094 103.681 228.887 103.787 229.685C103.898 230.48 103.793 231.231 103.474 231.937C103.154 232.643 102.622 233.253 101.878 233.769ZM100.891 232.322C101.294 232.043 101.555 231.698 101.673 231.288C101.789 230.875 101.782 230.434 101.653 229.965C101.528 229.494 101.304 229.026 100.983 228.563C100.66 228.096 100.3 227.721 99.9031 227.438C99.5071 227.149 99.0955 226.986 98.6682 226.949C98.2409 226.912 97.8253 227.033 97.4215 227.312C97.0077 227.599 96.7414 227.95 96.6225 228.365C96.507 228.778 96.5131 229.222 96.641 229.697C96.7699 230.166 96.9959 230.634 97.3191 231.1C97.64 231.564 97.9973 231.938 98.391 232.224C98.788 232.507 99.2001 232.668 99.6274 232.705C100.056 232.736 100.477 232.609 100.891 232.322ZM108.31 229.095L100.874 222.96L102.706 221.692L107.76 226.126L107.83 226.078L105.487 219.766L107.299 218.511L112.362 222.895L112.437 222.844L110.065 216.596L111.902 215.324L115.023 224.447L113.151 225.743L108.152 221.579L108.048 221.651L110.187 227.795L108.31 229.095ZM118.517 222.027L111.476 211.858L113.273 210.614L115.907 214.417L115.981 214.365C115.946 214.116 115.94 213.828 115.965 213.503C115.987 213.174 116.09 212.836 116.275 212.487C116.458 212.136 116.772 211.805 117.219 211.496C117.808 211.088 118.444 210.87 119.126 210.844C119.809 210.812 120.492 210.992 121.176 211.386C121.861 211.773 122.496 212.391 123.083 213.238C123.663 214.076 124.019 214.883 124.149 215.659C124.28 216.435 124.216 217.141 123.956 217.776C123.695 218.412 123.266 218.937 122.667 219.352C122.23 219.655 121.817 219.833 121.428 219.887C121.039 219.94 120.686 219.925 120.368 219.842C120.052 219.752 119.781 219.648 119.557 219.529L119.453 219.601L120.285 220.803L118.517 222.027ZM117.639 216.993C117.981 217.486 118.35 217.87 118.745 218.145C119.144 218.417 119.548 218.566 119.958 218.591C120.368 218.61 120.763 218.488 121.144 218.225C121.541 217.95 121.801 217.613 121.922 217.216C122.041 216.815 122.04 216.382 121.919 215.918C121.799 215.447 121.574 214.974 121.244 214.497C120.916 214.024 120.557 213.65 120.167 213.377C119.777 213.103 119.376 212.955 118.963 212.932C118.551 212.91 118.144 213.037 117.744 213.314C117.36 213.58 117.104 213.907 116.975 214.294C116.847 214.682 116.839 215.106 116.953 215.566C117.069 216.024 117.298 216.5 117.639 216.993ZM129.546 214.618C129.063 214.953 128.568 215.168 128.061 215.264C127.556 215.354 127.073 215.307 126.611 215.122C126.154 214.935 125.752 214.591 125.406 214.091C125.108 213.661 124.941 213.25 124.905 212.859C124.869 212.467 124.93 212.092 125.088 211.733C125.245 211.374 125.467 211.032 125.751 210.708C126.037 210.378 126.351 210.065 126.695 209.768C127.109 209.412 127.443 209.12 127.696 208.891C127.947 208.659 128.107 208.459 128.178 208.293C128.25 208.121 128.226 207.949 128.107 207.776L128.086 207.747C127.827 207.373 127.516 207.16 127.152 207.108C126.788 207.056 126.398 207.175 125.981 207.464C125.54 207.769 125.258 208.106 125.132 208.477C125.01 208.846 124.995 209.192 125.087 209.515L123.244 210.439C123.055 209.884 123.006 209.345 123.095 208.823C123.181 208.298 123.391 207.805 123.724 207.344C124.054 206.881 124.485 206.464 125.018 206.095C125.386 205.841 125.781 205.631 126.205 205.465C126.629 205.299 127.06 205.21 127.499 205.201C127.935 205.187 128.361 205.286 128.777 205.498C129.196 205.707 129.581 206.065 129.932 206.572L133.466 211.676L131.738 212.872L131.013 211.825L130.953 211.866C130.991 212.153 130.974 212.459 130.904 212.781C130.835 213.099 130.69 213.417 130.47 213.736C130.251 214.049 129.943 214.343 129.546 214.618ZM129.098 212.974C129.459 212.724 129.723 212.436 129.889 212.111C130.053 211.782 130.123 211.449 130.101 211.112C130.081 210.773 129.974 210.462 129.779 210.181L129.157 209.282C129.133 209.368 129.067 209.477 128.959 209.611C128.854 209.742 128.729 209.88 128.584 210.025C128.439 210.169 128.293 210.309 128.147 210.444C128.001 210.58 127.874 210.697 127.767 210.796C127.524 211.018 127.325 211.244 127.17 211.474C127.016 211.703 126.929 211.935 126.91 212.168C126.888 212.399 126.957 212.63 127.118 212.862C127.347 213.193 127.641 213.359 127.999 213.36C128.358 213.362 128.724 213.233 129.098 212.974ZM133.977 204.711L137.071 209.18L135.274 210.424L129.993 202.798L131.711 201.608L132.608 202.904L132.697 202.842C132.577 202.294 132.622 201.761 132.832 201.243C133.045 200.724 133.436 200.267 134.005 199.872C134.532 199.508 135.068 199.303 135.614 199.258C136.164 199.21 136.695 199.325 137.205 199.603C137.72 199.879 138.186 200.322 138.604 200.934L141.967 205.79L140.169 207.034L136.999 202.456C136.646 201.947 136.238 201.64 135.774 201.535C135.313 201.428 134.851 201.535 134.387 201.856C134.073 202.074 133.841 202.337 133.692 202.645C133.545 202.948 133.491 203.277 133.53 203.632C133.574 203.984 133.722 204.344 133.977 204.711ZM143.775 200.997L142.268 198.83L142.556 198.631L143.175 193.67L145.276 192.215L144.503 198.304L144.131 198.561L143.775 200.997ZM143.794 204.525L136.753 194.356L138.55 193.111L145.591 203.28L143.794 204.525ZM148.58 201.21L143.695 199.459L144.029 197.354L150.73 199.722L148.58 201.21Z" fill="#6C2FED"/>
<path d="M216.25 444.999L416.193 306.552L449.111 354.091C452.319 358.724 451.164 365.081 446.53 368.289L263.365 495.118C258.732 498.326 252.375 497.171 249.167 492.538L216.25 444.999Z" fill="#6C2FED"/>
<rect x="230.986" y="451.344" width="40.8163" height="40.8163" rx="20.4082" transform="rotate(-34.6999 230.986 451.344)" fill="white"/>
<path d="M277.178 431.383L278.478 430.483L284.797 434.964L282.82 427.476L284.125 426.572L286.677 436.571L285.634 437.293L277.178 431.383ZM276.523 431.837L277.795 430.955L281.833 436.297L283.531 438.749L282.029 439.789L276.523 431.837ZM283.503 427.003L284.781 426.118L290.287 434.071L288.785 435.111L287.087 432.658L283.503 427.003ZM289.256 426.041L293.348 431.951L291.901 432.953L287.809 427.044L289.256 426.041ZM286.64 425.566C286.492 425.351 286.441 425.122 286.488 424.88C286.539 424.634 286.69 424.424 286.942 424.25C287.193 424.077 287.44 424.01 287.684 424.051C287.932 424.09 288.13 424.217 288.279 424.431C288.425 424.643 288.473 424.871 288.422 425.116C288.375 425.359 288.225 425.568 287.974 425.742C287.723 425.916 287.473 425.983 287.226 425.945C286.982 425.903 286.787 425.777 286.64 425.566ZM290.466 421.527L296.279 429.922L294.837 430.921L289.024 422.526L290.466 421.527ZM295.89 421.448L295.318 426.119L294.904 428.498L293.67 427.696L293.808 425.596L294.147 422.655L295.89 421.448ZM298.507 428.379L294.771 426.893L295.086 425.294L300.178 427.222L298.507 428.379ZM303.479 425.098C303.031 425.408 302.578 425.614 302.121 425.715C301.663 425.817 301.219 425.825 300.789 425.741C300.36 425.65 299.958 425.478 299.584 425.226C299.21 424.967 298.885 424.637 298.608 424.237L298.457 424.018C298.141 423.563 297.921 423.104 297.795 422.642C297.666 422.176 297.629 421.726 297.682 421.29C297.736 420.854 297.88 420.447 298.114 420.07C298.348 419.692 298.668 419.363 299.072 419.083C299.49 418.793 299.909 418.609 300.328 418.529C300.744 418.445 301.148 418.456 301.539 418.563C301.931 418.669 302.304 418.862 302.661 419.144C303.015 419.421 303.34 419.775 303.638 420.204L304.057 420.811L299.426 424.018L298.738 423.024L301.949 420.8L301.873 420.691C301.707 420.466 301.519 420.287 301.308 420.153C301.094 420.016 300.864 419.949 300.618 419.952C300.37 419.951 300.113 420.043 299.847 420.227C299.633 420.376 299.478 420.553 299.383 420.759C299.29 420.958 299.249 421.18 299.262 421.424C299.276 421.662 299.339 421.915 299.449 422.184C299.559 422.452 299.713 422.728 299.909 423.012L300.061 423.231C300.232 423.478 300.424 423.685 300.636 423.851C300.851 424.014 301.078 424.129 301.318 424.194C301.559 424.254 301.802 424.263 302.048 424.222C302.295 424.175 302.539 424.068 302.78 423.901C303.082 423.692 303.315 423.445 303.478 423.159C303.642 422.868 303.735 422.542 303.756 422.183L305.004 422.434C305.006 422.702 304.96 422.993 304.864 423.306C304.773 423.618 304.616 423.928 304.394 424.238C304.17 424.544 303.865 424.831 303.479 425.098ZM302.6 413.134L308.409 421.523L306.961 422.525L301.152 414.136L302.6 413.134ZM310.533 415.769L310.454 415.654C310.154 415.221 309.94 414.78 309.811 414.33C309.68 413.876 309.64 413.433 309.69 412.999C309.74 412.566 309.885 412.156 310.124 411.77C310.36 411.38 310.697 411.034 311.134 410.731C311.578 410.424 312.024 410.228 312.472 410.144C312.922 410.054 313.358 410.061 313.781 410.167C314.204 410.272 314.605 410.466 314.984 410.748C315.36 411.027 315.697 411.382 315.998 411.816L316.077 411.93C316.374 412.36 316.589 412.802 316.719 413.255C316.848 413.705 316.888 414.148 316.841 414.585C316.79 415.019 316.646 415.429 316.407 415.815C316.168 416.201 315.828 416.547 315.388 416.852C314.951 417.154 314.508 417.351 314.059 417.441C313.609 417.531 313.173 417.524 312.75 417.418C312.324 417.309 311.923 417.115 311.547 416.837C311.169 416.555 310.831 416.199 310.533 415.769ZM311.896 414.656L311.975 414.771C312.154 415.029 312.347 415.254 312.555 415.444C312.762 415.635 312.978 415.779 313.202 415.877C313.426 415.975 313.656 416.015 313.891 415.997C314.128 415.974 314.365 415.88 314.601 415.716C314.834 415.554 315.002 415.368 315.104 415.158C315.203 414.943 315.246 414.714 315.233 414.47C315.224 414.223 315.167 413.969 315.062 413.708C314.956 413.447 314.814 413.187 314.635 412.929L314.556 412.814C314.379 412.559 314.188 412.338 313.984 412.152C313.776 411.961 313.559 411.818 313.331 411.723C313.105 411.621 312.872 411.58 312.632 411.6C312.394 411.615 312.157 411.703 311.92 411.867C311.687 412.029 311.522 412.218 311.425 412.436C311.326 412.651 311.284 412.882 311.299 413.13C311.312 413.374 311.371 413.626 311.477 413.888C311.58 414.145 311.719 414.401 311.896 414.656ZM313.427 405.636L314.875 404.634L319.78 411.718L320.542 413.122L319.236 414.025L313.427 405.636ZM322.398 407.376L322.477 407.491C322.782 407.931 323.013 408.37 323.169 408.805C323.329 409.239 323.406 409.657 323.399 410.06C323.39 410.459 323.294 410.833 323.11 411.182C322.926 411.524 322.644 411.828 322.261 412.092C321.897 412.345 321.531 412.493 321.164 412.537C320.799 412.579 320.437 412.534 320.076 412.402C319.712 412.266 319.353 412.059 319 411.781C318.643 411.5 318.292 411.167 317.945 410.783L317.729 410.471C317.489 410.008 317.301 409.561 317.165 409.132C317.03 408.704 316.963 408.295 316.963 407.907C316.964 407.519 317.048 407.161 317.215 406.835C317.383 406.509 317.647 406.222 318.007 405.972C318.393 405.705 318.782 405.546 319.173 405.496C319.565 405.44 319.949 405.481 320.325 405.62C320.702 405.752 321.065 405.969 321.414 406.271C321.765 406.567 322.092 406.936 322.398 407.376ZM321.03 408.493L320.95 408.378C320.776 408.127 320.592 407.904 320.398 407.71C320.202 407.512 319.999 407.359 319.79 407.251C319.58 407.143 319.363 407.094 319.138 407.104C318.914 407.114 318.683 407.201 318.446 407.365C318.221 407.521 318.054 407.693 317.947 407.88C317.843 408.065 317.785 408.261 317.773 408.469C317.764 408.675 317.794 408.889 317.862 409.111C317.933 409.331 318.033 409.553 318.161 409.776L318.751 410.628C318.97 410.891 319.206 411.103 319.457 411.263C319.705 411.419 319.968 411.499 320.244 411.501C320.524 411.501 320.814 411.398 321.112 411.191C321.345 411.03 321.508 410.85 321.602 410.65C321.693 410.447 321.726 410.23 321.701 410C321.674 409.765 321.6 409.523 321.48 409.272C321.364 409.018 321.214 408.759 321.03 408.493ZM323.083 402.619L327.175 408.529L325.728 409.531L321.636 403.621L323.083 402.619ZM320.467 402.143C320.318 401.929 320.267 401.7 320.315 401.457C320.366 401.212 320.517 401.002 320.768 400.828C321.019 400.654 321.267 400.588 321.511 400.629C321.759 400.667 321.957 400.794 322.105 401.009C322.252 401.22 322.299 401.448 322.248 401.694C322.201 401.937 322.052 402.145 321.801 402.319C321.549 402.493 321.3 402.561 321.052 402.522C320.808 402.481 320.613 402.355 320.467 402.143Z" fill="white"/>
<path d="M287.958 444.758L289.456 450.095L288.558 450.716L286.987 444.451L287.561 444.054L287.958 444.758ZM292.183 448.206L287.712 444.929L287.189 444.311L287.766 443.912L293.085 447.582L292.183 448.206ZM290.835 446.412L291.306 447.092L288.602 448.964L288.132 448.284L290.835 446.412ZM292.258 443.74L295.307 448.144L294.484 448.714L290.944 443.6L291.701 443.075L292.258 443.74ZM295.428 443.177L295.478 443.248C295.663 443.517 295.804 443.788 295.9 444.062C295.996 444.332 296.041 444.595 296.037 444.851C296.033 445.103 295.974 445.337 295.861 445.553C295.748 445.769 295.576 445.958 295.344 446.119C295.114 446.278 294.883 446.375 294.652 446.411C294.422 446.442 294.193 446.421 293.966 446.346C293.739 446.27 293.515 446.152 293.296 445.991C293.077 445.826 292.865 445.626 292.659 445.392L292.467 445.115C292.31 444.824 292.189 444.544 292.107 444.274C292.027 444.003 291.991 443.747 291.999 443.505C292.007 443.264 292.067 443.041 292.177 442.837C292.288 442.632 292.457 442.451 292.685 442.293C292.917 442.133 293.155 442.035 293.397 442.002C293.639 441.966 293.878 441.989 294.116 442.07C294.352 442.149 294.582 442.283 294.804 442.472C295.024 442.66 295.232 442.894 295.428 443.177ZM294.655 443.818L294.605 443.746C294.487 443.576 294.362 443.428 294.229 443.305C294.095 443.179 293.955 443.084 293.809 443.02C293.664 442.956 293.516 442.93 293.367 442.942C293.218 442.951 293.07 443.007 292.922 443.109C292.776 443.21 292.668 443.322 292.598 443.444C292.527 443.564 292.485 443.692 292.475 443.828C292.464 443.963 292.48 444.102 292.521 444.245C292.561 444.385 292.62 444.528 292.697 444.674L293.156 445.336C293.296 445.481 293.447 445.599 293.607 445.69C293.768 445.78 293.937 445.825 294.114 445.823C294.292 445.818 294.477 445.749 294.668 445.617C294.816 445.514 294.92 445.395 294.981 445.259C295.041 445.123 295.066 444.976 295.055 444.819C295.044 444.658 295.004 444.492 294.933 444.322C294.863 444.152 294.77 443.984 294.655 443.818ZM296.19 441.017L299.239 445.421L298.417 445.991L294.876 440.877L295.634 440.352L296.19 441.017ZM299.36 440.454L299.41 440.525C299.596 440.794 299.737 441.065 299.832 441.339C299.928 441.609 299.974 441.872 299.969 442.128C299.965 442.38 299.907 442.614 299.794 442.83C299.681 443.046 299.508 443.235 299.276 443.396C299.046 443.555 298.816 443.652 298.585 443.688C298.354 443.719 298.125 443.698 297.898 443.623C297.671 443.548 297.448 443.429 297.229 443.268C297.01 443.103 296.797 442.903 296.591 442.669L296.4 442.392C296.242 442.101 296.122 441.821 296.04 441.551C295.96 441.28 295.924 441.024 295.932 440.782C295.94 440.541 295.999 440.318 296.11 440.114C296.221 439.909 296.39 439.728 296.617 439.57C296.85 439.41 297.087 439.312 297.33 439.279C297.571 439.243 297.811 439.266 298.049 439.347C298.285 439.426 298.514 439.56 298.736 439.749C298.957 439.937 299.165 440.172 299.36 440.454ZM298.587 441.095L298.538 441.023C298.419 440.853 298.294 440.706 298.161 440.582C298.027 440.456 297.887 440.361 297.742 440.297C297.596 440.233 297.449 440.207 297.299 440.219C297.15 440.228 297.002 440.284 296.854 440.386C296.708 440.487 296.601 440.599 296.531 440.721C296.459 440.842 296.418 440.969 296.407 441.105C296.397 441.24 296.412 441.379 296.454 441.522C296.494 441.663 296.552 441.805 296.629 441.951L297.088 442.613C297.229 442.758 297.379 442.876 297.54 442.967C297.7 443.058 297.869 443.102 298.047 443.101C298.225 443.095 298.409 443.026 298.601 442.894C298.748 442.791 298.853 442.672 298.913 442.536C298.974 442.4 298.999 442.253 298.987 442.096C298.977 441.935 298.936 441.769 298.866 441.599C298.795 441.429 298.702 441.261 298.587 441.095ZM298.613 435.997L302.243 441.24L301.417 441.812L297.787 436.569L298.613 435.997ZM304.82 439.557C304.547 439.746 304.269 439.873 303.987 439.937C303.706 439.997 303.431 440 303.165 439.946C302.9 439.89 302.652 439.781 302.418 439.619C302.185 439.457 301.981 439.25 301.806 438.997L301.712 438.861C301.512 438.572 301.373 438.281 301.294 437.988C301.216 437.696 301.195 437.414 301.23 437.144C301.264 436.872 301.352 436.62 301.495 436.39C301.639 436.159 301.83 435.961 302.069 435.795C302.333 435.613 302.595 435.497 302.854 435.449C303.113 435.4 303.364 435.412 303.606 435.484C303.848 435.552 304.077 435.674 304.294 435.851C304.513 436.026 304.714 436.246 304.899 436.513L305.142 436.864L302.288 438.84L301.88 438.25L303.921 436.836L303.876 436.771C303.769 436.627 303.643 436.508 303.499 436.416C303.357 436.323 303.203 436.274 303.039 436.27C302.875 436.266 302.701 436.327 302.519 436.453C302.383 436.548 302.282 436.662 302.216 436.795C302.15 436.924 302.12 437.068 302.125 437.226C302.13 437.384 302.167 437.554 302.236 437.736C302.305 437.913 302.405 438.098 302.538 438.289L302.632 438.425C302.744 438.587 302.87 438.722 303.009 438.831C303.149 438.936 303.298 439.01 303.455 439.052C303.613 439.095 303.773 439.103 303.937 439.077C304.1 439.049 304.259 438.981 304.416 438.872C304.614 438.735 304.763 438.573 304.863 438.386C304.962 438.199 305.019 437.994 305.031 437.769L305.756 437.889C305.756 438.06 305.73 438.243 305.677 438.439C305.622 438.631 305.525 438.825 305.386 439.018C305.25 439.21 305.061 439.39 304.82 439.557ZM306.189 431.155L309.63 436.125L308.773 436.718L305.332 431.748L306.189 431.155ZM311.196 427.688L314.638 432.658L313.781 433.251L309.087 431.234L311.552 434.794L310.695 435.388L307.254 430.418L308.111 429.824L312.816 431.843L310.346 428.276L311.196 427.688ZM317.474 428.3L318.327 427.709C318.525 428.054 318.635 428.407 318.657 428.769C318.677 429.129 318.598 429.478 318.419 429.818C318.24 430.157 317.95 430.466 317.549 430.743C317.242 430.956 316.928 431.092 316.606 431.153C316.283 431.212 315.964 431.201 315.649 431.12C315.331 431.036 315.026 430.882 314.733 430.658C314.442 430.432 314.172 430.14 313.925 429.783L313.639 429.37C313.392 429.012 313.214 428.657 313.108 428.303C313.003 427.948 312.969 427.607 313.004 427.279C313.038 426.949 313.142 426.644 313.314 426.363C313.489 426.08 313.732 425.831 314.044 425.615C314.44 425.341 314.825 425.182 315.199 425.138C315.573 425.095 315.924 425.15 316.252 425.303C316.583 425.455 316.88 425.685 317.144 425.993L316.291 426.584C316.12 426.386 315.943 426.237 315.76 426.139C315.579 426.038 315.387 425.999 315.184 426.022C314.98 426.043 314.758 426.136 314.519 426.301C314.323 426.436 314.178 426.591 314.083 426.765C313.987 426.938 313.94 427.13 313.939 427.339C313.939 427.547 313.986 427.773 314.079 428.014C314.173 428.252 314.312 428.503 314.494 428.767L314.785 429.187C314.959 429.438 315.138 429.65 315.323 429.825C315.509 429.996 315.697 430.123 315.889 430.205C316.083 430.286 316.28 430.317 316.478 430.298C316.677 430.278 316.876 430.199 317.076 430.06C317.32 429.892 317.49 429.717 317.587 429.535C317.686 429.352 317.722 429.16 317.697 428.958C317.673 428.753 317.599 428.534 317.474 428.3Z" fill="white" fill-opacity="0.5"/>
<path d="M219.733 420.641L216.008 409.257L218.744 407.362L222.85 422.167L221.048 423.415L219.733 420.641ZM210.609 412.996L219.946 420.493L222.097 422.689L220.278 423.948L207.889 414.879L210.609 412.996ZM222.472 404.781L230.732 416.71L228.282 418.406L220.022 406.477L222.472 404.781ZM237.082 407.694C236.935 407.481 236.77 407.313 236.587 407.189C236.406 407.056 236.182 406.977 235.914 406.952C235.643 406.922 235.305 406.942 234.901 407.011C234.496 407.081 233.998 407.208 233.406 407.391C232.745 407.591 232.095 407.75 231.458 407.868C230.826 407.982 230.224 408.023 229.652 407.991C229.082 407.95 228.556 407.809 228.074 407.568C227.598 407.324 227.183 406.946 226.827 406.432C226.483 405.935 226.28 405.409 226.219 404.853C226.154 404.293 226.217 403.731 226.41 403.169C226.599 402.602 226.907 402.054 227.332 401.525C227.763 400.992 228.301 400.503 228.945 400.057C229.825 399.448 230.702 399.075 231.577 398.938C232.451 398.801 233.26 398.883 234.002 399.185C234.75 399.483 235.37 399.987 235.862 400.698L233.42 402.388C233.178 402.038 232.893 401.784 232.564 401.624C232.236 401.454 231.872 401.395 231.472 401.447C231.076 401.494 230.657 401.671 230.215 401.977C229.789 402.272 229.479 402.584 229.286 402.911C229.089 403.234 228.995 403.553 229.004 403.87C229.01 404.181 229.105 404.471 229.291 404.739C229.431 404.941 229.606 405.09 229.818 405.185C230.035 405.277 230.294 405.324 230.595 405.326C230.895 405.328 231.236 405.29 231.618 405.212C232 405.133 232.426 405.02 232.897 404.871C233.684 404.618 234.407 404.444 235.069 404.349C235.736 404.251 236.342 404.239 236.887 404.314C237.432 404.39 237.924 404.562 238.362 404.833C238.799 405.103 239.189 405.485 239.529 405.976C239.888 406.495 240.109 407.029 240.19 407.579C240.272 408.128 240.22 408.677 240.034 409.226C239.848 409.775 239.542 410.306 239.114 410.821C238.686 411.335 238.145 411.819 237.489 412.273C236.899 412.681 236.265 413.008 235.585 413.252C234.902 413.491 234.216 413.614 233.527 413.623C232.844 413.627 232.192 413.48 231.573 413.182C230.954 412.883 230.412 412.398 229.947 411.726L232.413 410.018C232.67 410.39 232.945 410.664 233.238 410.841C233.53 411.019 233.835 411.115 234.152 411.129C234.475 411.14 234.805 411.081 235.144 410.952C235.488 410.818 235.835 410.631 236.185 410.389C236.611 410.094 236.919 409.792 237.108 409.482C237.304 409.169 237.393 408.861 237.377 408.557C237.366 408.25 237.268 407.962 237.082 407.694ZM241.376 394.71L244.979 406.845L242.365 408.654L238.538 393.657L240.201 392.505L241.376 394.71ZM250.918 402.732L240.819 395.096L239.144 393.237L240.824 392.074L253.54 400.917L250.918 402.732ZM247.696 398.394L249.029 400.319L242.729 404.681L241.396 402.756L247.696 398.394Z" fill="black"/>
<rect x="240.514" y="117.565" width="26.0771" height="44.2177" rx="3.96825" transform="rotate(-34.6999 240.514 117.565)" stroke="black" stroke-width="1.13379"/>
<path d="M247.971 112.401L256.039 124.053L250.841 132.479L255.359 139.003L265.076 137.102L273.144 148.754L279.669 144.236L271.601 132.584L276.799 124.158L272.28 117.633L262.564 119.534L254.819 108.349" stroke="black" stroke-width="1.13379"/>
<mask id="path-34-inside-1_1_1316" fill="white">
<path d="M280.434 171.287C282.414 172.222 284.604 172.621 286.786 172.441C288.968 172.262 291.064 171.511 292.864 170.265C294.664 169.019 296.104 167.321 297.04 165.341C297.975 163.362 298.373 161.171 298.194 158.99L296.951 159.092C297.112 161.055 296.754 163.027 295.912 164.808C295.07 166.59 293.774 168.118 292.154 169.24C290.534 170.361 288.648 171.037 286.684 171.198C284.72 171.36 282.749 171.001 280.967 170.159L280.434 171.287Z"/>
</mask>
<path d="M280.434 171.287C282.414 172.222 284.604 172.621 286.786 172.441C288.968 172.262 291.064 171.511 292.864 170.265C294.664 169.019 296.104 167.321 297.04 165.341C297.975 163.362 298.373 161.171 298.194 158.99L296.951 159.092C297.112 161.055 296.754 163.027 295.912 164.808C295.07 166.59 293.774 168.118 292.154 169.24C290.534 170.361 288.648 171.037 286.684 171.198C284.72 171.36 282.749 171.001 280.967 170.159L280.434 171.287Z" stroke="black" stroke-width="2.26757" mask="url(#path-34-inside-1_1_1316)"/>
<mask id="path-35-inside-2_1_1316" fill="white">
<path d="M280.112 167.373C281.731 168.138 283.524 168.464 285.309 168.317C287.094 168.171 288.809 167.557 290.282 166.537C291.754 165.517 292.933 164.128 293.698 162.508C294.464 160.889 294.789 159.097 294.643 157.312L293.626 157.395C293.758 159.002 293.465 160.615 292.776 162.072C292.087 163.53 291.026 164.78 289.701 165.698C288.376 166.616 286.832 167.168 285.225 167.3C283.619 167.433 282.006 167.139 280.548 166.45L280.112 167.373Z"/>
</mask>
<path d="M280.112 167.373C281.731 168.138 283.524 168.464 285.309 168.317C287.094 168.171 288.809 167.557 290.282 166.537C291.754 165.517 292.933 164.128 293.698 162.508C294.464 160.889 294.789 159.097 294.643 157.312L293.626 157.395C293.758 159.002 293.465 160.615 292.776 162.072C292.087 163.53 291.026 164.78 289.701 165.698C288.376 166.616 286.832 167.168 285.225 167.3C283.619 167.433 282.006 167.139 280.548 166.45L280.112 167.373Z" stroke="black" stroke-width="2.26757" mask="url(#path-35-inside-2_1_1316)"/>
<mask id="path-36-inside-3_1_1316" fill="white">
<path d="M279.792 163.458C281.051 164.053 282.445 164.306 283.834 164.192C285.222 164.078 286.556 163.6 287.701 162.807C288.847 162.014 289.763 160.934 290.359 159.674C290.954 158.415 291.207 157.021 291.093 155.632L290.302 155.697C290.405 156.947 290.177 158.201 289.641 159.335C289.105 160.469 288.28 161.441 287.25 162.155C286.219 162.869 285.018 163.299 283.769 163.401C282.519 163.504 281.264 163.276 280.131 162.74L279.792 163.458Z"/>
</mask>
<path d="M279.792 163.458C281.051 164.053 282.445 164.306 283.834 164.192C285.222 164.078 286.556 163.6 287.701 162.807C288.847 162.014 289.763 160.934 290.359 159.674C290.954 158.415 291.207 157.021 291.093 155.632L290.302 155.697C290.405 156.947 290.177 158.201 289.641 159.335C289.105 160.469 288.28 161.441 287.25 162.155C286.219 162.869 285.018 163.299 283.769 163.401C282.519 163.504 281.264 163.276 280.131 162.74L279.792 163.458Z" stroke="black" stroke-width="2.26757" mask="url(#path-36-inside-3_1_1316)"/>
<mask id="path-37-inside-4_1_1316" fill="white">
<path d="M281.245 160.382C281.965 160.723 282.762 160.867 283.555 160.802C284.349 160.737 285.111 160.464 285.765 160.011C286.42 159.558 286.943 158.94 287.284 158.22C287.624 157.501 287.769 156.704 287.703 155.911L287.251 155.948C287.31 156.662 287.18 157.379 286.874 158.026C286.567 158.674 286.096 159.23 285.507 159.638C284.918 160.046 284.232 160.291 283.518 160.35C282.804 160.409 282.087 160.278 281.439 159.972L281.245 160.382Z"/>
</mask>
<path d="M281.245 160.382C281.965 160.723 282.762 160.867 283.555 160.802C284.349 160.737 285.111 160.464 285.765 160.011C286.42 159.558 286.943 158.94 287.284 158.22C287.624 157.501 287.769 156.704 287.703 155.911L287.251 155.948C287.31 156.662 287.18 157.379 286.874 158.026C286.567 158.674 286.096 159.23 285.507 159.638C284.918 160.046 284.232 160.291 283.518 160.35C282.804 160.409 282.087 160.278 281.439 159.972L281.245 160.382Z" stroke="black" stroke-width="2.26757" mask="url(#path-37-inside-4_1_1316)"/>
</g>
</g>
<defs>
<filter id="filter0_dd_1_1316" x="196" y="20" width="276" height="187" filterUnits="userSpaceOnUse" color-interpolation-filters="sRGB">
<feFlood flood-opacity="0" result="BackgroundImageFix"/>
<feColorMatrix in="SourceAlpha" type="matrix" values="0 0 0 0 0 0 0 0 0 0 0 0 0 0 0 0 0 0 127 0" result="hardAlpha"/>
<feMorphology radius="4" operator="erode" in="SourceAlpha" result="effect1_dropShadow_1_1316"/>
<feOffset dy="8"/>
<feGaussianBlur stdDeviation="12"/>
<feColorMatrix type="matrix" values="0 0 0 0 0.0941176 0 0 0 0 0.152941 0 0 0 0 0.294118 0 0 0 0.08 0"/>
<feBlend mode="normal" in2="BackgroundImageFix" result="effect1_dropShadow_1_1316"/>
<feColorMatrix in="SourceAlpha" type="matrix" values="0 0 0 0 0 0 0 0 0 0 0 0 0 0 0 0 0 0 127 0" result="hardAlpha"/>
<feMorphology radius="6" operator="erode" in="SourceAlpha" result="effect2_dropShadow_1_1316"/>
<feOffset dy="6"/>
<feGaussianBlur stdDeviation="6"/>
<feColorMatrix type="matrix" values="0 0 0 0 0.0941176 0 0 0 0 0.152941 0 0 0 0 0.294118 0 0 0 0.12 0"/>
<feBlend mode="normal" in2="effect1_dropShadow_1_1316" result="effect2_dropShadow_1_1316"/>
<feBlend mode="normal" in="SourceGraphic" in2="effect2_dropShadow_1_1316" result="shape"/>
</filter>
<filter id="filter1_dd_1_1316" x="6.10352e-05" y="37" width="519.652" height="542.66" filterUnits="userSpaceOnUse" color-interpolation-filters="sRGB">
<feFlood flood-opacity="0" result="BackgroundImageFix"/>
<feColorMatrix in="SourceAlpha" type="matrix" values="0 0 0 0 0 0 0 0 0 0 0 0 0 0 0 0 0 0 127 0" result="hardAlpha"/>
<feMorphology radius="4" operator="erode" in="SourceAlpha" result="effect1_dropShadow_1_1316"/>
<feOffset dy="14"/>
<feGaussianBlur stdDeviation="32"/>
<feColorMatrix type="matrix" values="0 0 0 0 0.0941176 0 0 0 0 0.152941 0 0 0 0 0.294118 0 0 0 0.12 0"/>
<feBlend mode="normal" in2="BackgroundImageFix" result="effect1_dropShadow_1_1316"/>
<feColorMatrix in="SourceAlpha" type="matrix" values="0 0 0 0 0 0 0 0 0 0 0 0 0 0 0 0 0 0 127 0" result="hardAlpha"/>
<feMorphology radius="6" operator="erode" in="SourceAlpha" result="effect2_dropShadow_1_1316"/>
<feOffset dy="8"/>
<feGaussianBlur stdDeviation="11"/>
<feColorMatrix type="matrix" values="0 0 0 0 0.0941176 0 0 0 0 0.152941 0 0 0 0 0.294118 0 0 0 0.12 0"/>
<feBlend mode="normal" in2="effect1_dropShadow_1_1316" result="effect2_dropShadow_1_1316"/>
<feBlend mode="normal" in="SourceGraphic" in2="effect2_dropShadow_1_1316" result="shape"/>
</filter>
<linearGradient id="paint0_linear_1_1316" x1="244" y1="553.503" x2="244" y2="894.43" gradientUnits="userSpaceOnUse">
<stop stop-color="#6C2FED" stop-opacity="0.48"/>
<stop offset="0.469765" stop-color="#6C2FED" stop-opacity="0"/>
<stop offset="1" stop-color="#2F37ED" stop-opacity="0.1"/>
</linearGradient>
<linearGradient id="paint1_linear_1_1316" x1="426" y1="-27" x2="426" y2="567" gradientUnits="userSpaceOnUse">
<stop stop-color="#6C2FED" stop-opacity="0.48"/>
<stop offset="0.469765" stop-color="#6C2FED" stop-opacity="0"/>
<stop offset="1" stop-color="#2F37ED" stop-opacity="0.1"/>
</linearGradient>
<linearGradient id="paint2_linear_1_1316" x1="166" y1="152.503" x2="166" y2="493.43" gradientUnits="userSpaceOnUse">
<stop stop-color="#6C2FED" stop-opacity="0.48"/>
<stop offset="0.469765" stop-color="#6C2FED" stop-opacity="0"/>
<stop offset="1" stop-color="#2F37ED" stop-opacity="0.1"/>
</linearGradient>
<linearGradient id="paint3_linear_1_1316" x1="294" y1="463" x2="294" y2="1057" gradientUnits="userSpaceOnUse">
<stop stop-color="#6C2FED" stop-opacity="0.48"/>
<stop offset="0.469765" stop-color="#6C2FED" stop-opacity="0"/>
<stop offset="1" stop-color="#2F37ED" stop-opacity="0.1"/>
</linearGradient>
<clipPath id="clip0_1_1316">
<rect x="60.0001" y="225.32" width="250" height="340.986" rx="13.6054" transform="rotate(-34.6999 60.0001 225.32)" fill="white"/>
</clipPath>
</defs>
</svg>
