<svg width="516" height="569" viewBox="0 0 516 569" fill="none" xmlns="http://www.w3.org/2000/svg">
<rect x="162" y="569" width="168" height="260" transform="rotate(-90 162 569)" fill="url(#paint0_linear_1_1058)"/>
<rect x="344" width="168" height="453" fill="url(#paint1_linear_1_1058)"/>
<rect x="84" y="168" width="168" height="260" transform="rotate(-90 84 168)" fill="url(#paint2_linear_1_1058)"/>
<rect x="212" y="490" width="168" height="453" transform="rotate(180 212 490)" fill="url(#paint3_linear_1_1058)"/>
<rect x="473" y="315" width="6" height="185" rx="3" fill="#6C2FED"/>
<rect x="456" y="348" width="6" height="185" rx="3" fill="#6C2FED"/>
<rect x="439" y="321" width="6" height="185" rx="3" fill="#6C2FED"/>
<rect x="422" y="294" width="6" height="185" rx="3" fill="#6C2FED"/>
<g filter="url(#filter0_dd_1_1058)">
<rect x="84" y="219" width="348" height="184" rx="16" fill="white"/>
<rect x="108" y="243" width="42" height="42" rx="21" fill="#2D2837"/>
<path d="M133.508 256.5V257.625C134.003 257.625 134.475 257.827 134.82 258.165C135.18 258.532 135.375 259.005 135.375 259.5V261.315C135.375 261.87 135.128 262.125 134.565 262.125H133.125V258.008C133.125 257.798 133.298 257.625 133.508 257.625V256.5ZM133.508 256.5C132.675 256.5 132 257.175 132 258.008V263.25H134.565C135.75 263.25 136.5 262.5 136.5 261.315V259.5C136.5 258.675 136.162 257.925 135.622 257.378C135.075 256.838 134.333 256.507 133.508 256.5C133.515 256.5 133.508 256.5 133.508 256.5Z" fill="#6C2FED"/>
<path d="M125.25 256.5H124.5C122.25 256.5 121.5 257.842 121.5 259.5V260.25V270.75C121.5 271.372 122.205 271.725 122.7 271.35L123.983 270.39C124.283 270.165 124.703 270.195 124.973 270.465L126.217 271.717C126.51 272.01 126.99 272.01 127.283 271.717L128.543 270.457C128.805 270.195 129.225 270.165 129.517 270.39L130.8 271.35C131.295 271.717 132 271.365 132 270.75V258C132 257.175 132.675 256.5 133.5 256.5H125.25ZM128.812 263.062H127.312V264.562C127.312 264.87 127.057 265.125 126.75 265.125C126.443 265.125 126.188 264.87 126.188 264.562V263.062H124.688C124.38 263.062 124.125 262.807 124.125 262.5C124.125 262.192 124.38 261.937 124.688 261.937H126.188V260.437C126.188 260.13 126.443 259.875 126.75 259.875C127.057 259.875 127.312 260.13 127.312 260.437V261.937H128.812C129.12 261.937 129.375 262.192 129.375 262.5C129.375 262.807 129.12 263.062 128.812 263.062Z" fill="#6C2FED"/>
<path d="M159.734 254.938H165.77C167.066 254.938 168.172 255.133 169.086 255.523C170 255.914 170.699 256.492 171.184 257.258C171.676 258.016 171.922 258.953 171.922 260.07C171.922 260.922 171.766 261.672 171.453 262.32C171.141 262.969 170.699 263.516 170.129 263.961C169.559 264.398 168.879 264.738 168.09 264.98L167.199 265.414H161.773L161.75 263.082H165.816C166.52 263.082 167.105 262.957 167.574 262.707C168.043 262.457 168.395 262.117 168.629 261.688C168.871 261.25 168.992 260.758 168.992 260.211C168.992 259.617 168.875 259.102 168.641 258.664C168.414 258.219 168.062 257.879 167.586 257.645C167.109 257.402 166.504 257.281 165.77 257.281H162.676V272H159.734V254.938ZM169.473 272L165.465 264.336L168.547 264.324L172.613 271.848V272H169.473ZM180.16 272.234C179.223 272.234 178.375 272.082 177.617 271.777C176.867 271.465 176.227 271.031 175.695 270.477C175.172 269.922 174.77 269.27 174.488 268.52C174.207 267.77 174.066 266.961 174.066 266.094V265.625C174.066 264.633 174.211 263.734 174.5 262.93C174.789 262.125 175.191 261.438 175.707 260.867C176.223 260.289 176.832 259.848 177.535 259.543C178.238 259.238 179 259.086 179.82 259.086C180.727 259.086 181.52 259.238 182.199 259.543C182.879 259.848 183.441 260.277 183.887 260.832C184.34 261.379 184.676 262.031 184.895 262.789C185.121 263.547 185.234 264.383 185.234 265.297V266.504H175.438V264.477H182.445V264.254C182.43 263.746 182.328 263.27 182.141 262.824C181.961 262.379 181.684 262.02 181.309 261.746C180.934 261.473 180.434 261.336 179.809 261.336C179.34 261.336 178.922 261.438 178.555 261.641C178.195 261.836 177.895 262.121 177.652 262.496C177.41 262.871 177.223 263.324 177.09 263.855C176.965 264.379 176.902 264.969 176.902 265.625V266.094C176.902 266.648 176.977 267.164 177.125 267.641C177.281 268.109 177.508 268.52 177.805 268.871C178.102 269.223 178.461 269.5 178.883 269.703C179.305 269.898 179.785 269.996 180.324 269.996C181.004 269.996 181.609 269.859 182.141 269.586C182.672 269.312 183.133 268.926 183.523 268.426L185.012 269.867C184.738 270.266 184.383 270.648 183.945 271.016C183.508 271.375 182.973 271.668 182.34 271.895C181.715 272.121 180.988 272.234 180.16 272.234ZM191.398 269.762L194.504 259.32H197.434L193.027 272H191.199L191.398 269.762ZM189.02 259.32L192.184 269.809L192.336 272H190.508L186.078 259.32H189.02ZM204.605 272.234C203.668 272.234 202.82 272.082 202.062 271.777C201.312 271.465 200.672 271.031 200.141 270.477C199.617 269.922 199.215 269.27 198.934 268.52C198.652 267.77 198.512 266.961 198.512 266.094V265.625C198.512 264.633 198.656 263.734 198.945 262.93C199.234 262.125 199.637 261.438 200.152 260.867C200.668 260.289 201.277 259.848 201.98 259.543C202.684 259.238 203.445 259.086 204.266 259.086C205.172 259.086 205.965 259.238 206.645 259.543C207.324 259.848 207.887 260.277 208.332 260.832C208.785 261.379 209.121 262.031 209.34 262.789C209.566 263.547 209.68 264.383 209.68 265.297V266.504H199.883V264.477H206.891V264.254C206.875 263.746 206.773 263.27 206.586 262.824C206.406 262.379 206.129 262.02 205.754 261.746C205.379 261.473 204.879 261.336 204.254 261.336C203.785 261.336 203.367 261.438 203 261.641C202.641 261.836 202.34 262.121 202.098 262.496C201.855 262.871 201.668 263.324 201.535 263.855C201.41 264.379 201.348 264.969 201.348 265.625V266.094C201.348 266.648 201.422 267.164 201.57 267.641C201.727 268.109 201.953 268.52 202.25 268.871C202.547 269.223 202.906 269.5 203.328 269.703C203.75 269.898 204.23 269.996 204.77 269.996C205.449 269.996 206.055 269.859 206.586 269.586C207.117 269.312 207.578 268.926 207.969 268.426L209.457 269.867C209.184 270.266 208.828 270.648 208.391 271.016C207.953 271.375 207.418 271.668 206.785 271.895C206.16 272.121 205.434 272.234 204.605 272.234ZM214.684 262.027V272H211.859V259.32H214.52L214.684 262.027ZM214.18 265.191L213.266 265.18C213.273 264.281 213.398 263.457 213.641 262.707C213.891 261.957 214.234 261.312 214.672 260.773C215.117 260.234 215.648 259.82 216.266 259.531C216.883 259.234 217.57 259.086 218.328 259.086C218.938 259.086 219.488 259.172 219.98 259.344C220.48 259.508 220.906 259.777 221.258 260.152C221.617 260.527 221.891 261.016 222.078 261.617C222.266 262.211 222.359 262.941 222.359 263.809V272H219.523V263.797C219.523 263.188 219.434 262.707 219.254 262.355C219.082 261.996 218.828 261.742 218.492 261.594C218.164 261.438 217.754 261.359 217.262 261.359C216.777 261.359 216.344 261.461 215.961 261.664C215.578 261.867 215.254 262.145 214.988 262.496C214.73 262.848 214.531 263.254 214.391 263.715C214.25 264.176 214.18 264.668 214.18 265.191ZM232.871 269.012V259.32H235.707V272H233.035L232.871 269.012ZM233.27 266.375L234.219 266.352C234.219 267.203 234.125 267.988 233.938 268.707C233.75 269.418 233.461 270.039 233.07 270.57C232.68 271.094 232.18 271.504 231.57 271.801C230.961 272.09 230.23 272.234 229.379 272.234C228.762 272.234 228.195 272.145 227.68 271.965C227.164 271.785 226.719 271.508 226.344 271.133C225.977 270.758 225.691 270.27 225.488 269.668C225.285 269.066 225.184 268.348 225.184 267.512V259.32H228.008V267.535C228.008 267.996 228.062 268.383 228.172 268.695C228.281 269 228.43 269.246 228.617 269.434C228.805 269.621 229.023 269.754 229.273 269.832C229.523 269.91 229.789 269.949 230.07 269.949C230.875 269.949 231.508 269.793 231.969 269.48C232.438 269.16 232.77 268.73 232.965 268.191C233.168 267.652 233.27 267.047 233.27 266.375ZM244.191 272.234C243.254 272.234 242.406 272.082 241.648 271.777C240.898 271.465 240.258 271.031 239.727 270.477C239.203 269.922 238.801 269.27 238.52 268.52C238.238 267.77 238.098 266.961 238.098 266.094V265.625C238.098 264.633 238.242 263.734 238.531 262.93C238.82 262.125 239.223 261.438 239.738 260.867C240.254 260.289 240.863 259.848 241.566 259.543C242.27 259.238 243.031 259.086 243.852 259.086C244.758 259.086 245.551 259.238 246.23 259.543C246.91 259.848 247.473 260.277 247.918 260.832C248.371 261.379 248.707 262.031 248.926 262.789C249.152 263.547 249.266 264.383 249.266 265.297V266.504H239.469V264.477H246.477V264.254C246.461 263.746 246.359 263.27 246.172 262.824C245.992 262.379 245.715 262.02 245.34 261.746C244.965 261.473 244.465 261.336 243.84 261.336C243.371 261.336 242.953 261.438 242.586 261.641C242.227 261.836 241.926 262.121 241.684 262.496C241.441 262.871 241.254 263.324 241.121 263.855C240.996 264.379 240.934 264.969 240.934 265.625V266.094C240.934 266.648 241.008 267.164 241.156 267.641C241.312 268.109 241.539 268.52 241.836 268.871C242.133 269.223 242.492 269.5 242.914 269.703C243.336 269.898 243.816 269.996 244.355 269.996C245.035 269.996 245.641 269.859 246.172 269.586C246.703 269.312 247.164 268.926 247.555 268.426L249.043 269.867C248.77 270.266 248.414 270.648 247.977 271.016C247.539 271.375 247.004 271.668 246.371 271.895C245.746 272.121 245.02 272.234 244.191 272.234Z" fill="#2D2837"/>
<path d="M118.859 304.625V309.266H116.438V304.625H118.859ZM118.562 330.141V334.328H116.156V330.141H118.562ZM120.594 325.047C120.594 324.453 120.479 323.938 120.25 323.5C120.031 323.062 119.661 322.672 119.141 322.328C118.63 321.984 117.943 321.656 117.078 321.344C115.734 320.854 114.557 320.318 113.547 319.734C112.536 319.141 111.75 318.406 111.188 317.531C110.635 316.656 110.359 315.552 110.359 314.219C110.359 312.938 110.656 311.828 111.25 310.891C111.854 309.943 112.693 309.214 113.766 308.703C114.839 308.182 116.083 307.922 117.5 307.922C118.604 307.922 119.594 308.089 120.469 308.422C121.354 308.745 122.109 309.219 122.734 309.844C123.37 310.469 123.854 311.24 124.188 312.156C124.531 313.062 124.703 314.099 124.703 315.266H120.578C120.578 314.62 120.505 314.047 120.359 313.547C120.214 313.047 120.005 312.625 119.734 312.281C119.464 311.927 119.135 311.661 118.75 311.484C118.375 311.307 117.948 311.219 117.469 311.219C116.781 311.219 116.214 311.349 115.766 311.609C115.328 311.87 115.005 312.224 114.797 312.672C114.599 313.12 114.5 313.635 114.5 314.219C114.5 314.781 114.604 315.276 114.812 315.703C115.031 316.12 115.396 316.5 115.906 316.844C116.427 317.188 117.141 317.536 118.047 317.891C119.401 318.391 120.578 318.943 121.578 319.547C122.578 320.141 123.354 320.87 123.906 321.734C124.458 322.599 124.734 323.693 124.734 325.016C124.734 326.37 124.422 327.516 123.797 328.453C123.182 329.391 122.318 330.104 121.203 330.594C120.089 331.083 118.792 331.328 117.312 331.328C116.365 331.328 115.427 331.203 114.5 330.953C113.573 330.703 112.729 330.297 111.969 329.734C111.219 329.161 110.62 328.406 110.172 327.469C109.724 326.521 109.5 325.359 109.5 323.984H113.641C113.641 324.776 113.745 325.432 113.953 325.953C114.161 326.474 114.443 326.891 114.797 327.203C115.151 327.505 115.547 327.719 115.984 327.844C116.422 327.969 116.865 328.031 117.312 328.031C118.042 328.031 118.646 327.906 119.125 327.656C119.615 327.406 119.979 327.057 120.219 326.609C120.469 326.151 120.594 325.63 120.594 325.047ZM138.547 308.188V331H134.406V313.016L128.922 314.828V311.484L138.078 308.188H138.547ZM161.609 327.75V331H146.203V328.219L153.594 320.234C154.365 319.359 154.974 318.599 155.422 317.953C155.87 317.307 156.188 316.724 156.375 316.203C156.573 315.672 156.672 315.167 156.672 314.688C156.672 313.99 156.547 313.38 156.297 312.859C156.047 312.328 155.682 311.917 155.203 311.625C154.734 311.333 154.156 311.188 153.469 311.188C152.708 311.188 152.057 311.365 151.516 311.719C150.984 312.062 150.578 312.542 150.297 313.156C150.026 313.771 149.891 314.474 149.891 315.266H145.75C145.75 313.922 146.062 312.698 146.688 311.594C147.312 310.479 148.208 309.589 149.375 308.922C150.542 308.255 151.927 307.922 153.531 307.922C155.094 307.922 156.417 308.182 157.5 308.703C158.583 309.214 159.406 309.943 159.969 310.891C160.531 311.839 160.812 312.969 160.812 314.281C160.812 315.01 160.693 315.729 160.453 316.438C160.214 317.146 159.875 317.849 159.438 318.547C159.01 319.234 158.5 319.932 157.906 320.641C157.312 321.349 156.651 322.073 155.922 322.812L151.484 327.75H161.609ZM169 317.797H171.328C172.151 317.797 172.828 317.656 173.359 317.375C173.901 317.083 174.302 316.688 174.562 316.188C174.833 315.677 174.969 315.089 174.969 314.422C174.969 313.766 174.849 313.198 174.609 312.719C174.37 312.229 174.005 311.854 173.516 311.594C173.036 311.323 172.422 311.188 171.672 311.188C171.068 311.188 170.51 311.307 170 311.547C169.5 311.786 169.099 312.13 168.797 312.578C168.505 313.016 168.359 313.542 168.359 314.156H164.219C164.219 312.927 164.542 311.849 165.188 310.922C165.844 309.984 166.729 309.25 167.844 308.719C168.958 308.188 170.203 307.922 171.578 307.922C173.078 307.922 174.391 308.172 175.516 308.672C176.651 309.161 177.531 309.885 178.156 310.844C178.792 311.802 179.109 312.99 179.109 314.406C179.109 315.083 178.948 315.76 178.625 316.438C178.312 317.104 177.849 317.708 177.234 318.25C176.63 318.781 175.885 319.214 175 319.547C174.125 319.87 173.12 320.031 171.984 320.031H169V317.797ZM169 320.984V318.781H171.984C173.266 318.781 174.375 318.932 175.312 319.234C176.26 319.526 177.042 319.943 177.656 320.484C178.271 321.016 178.724 321.635 179.016 322.344C179.318 323.052 179.469 323.812 179.469 324.625C179.469 325.688 179.271 326.635 178.875 327.469C178.479 328.292 177.922 328.99 177.203 329.562C176.495 330.135 175.661 330.573 174.703 330.875C173.745 331.167 172.708 331.312 171.594 331.312C170.625 331.312 169.682 331.182 168.766 330.922C167.859 330.651 167.042 330.25 166.312 329.719C165.583 329.177 165.005 328.5 164.578 327.688C164.151 326.865 163.938 325.911 163.938 324.828H168.078C168.078 325.453 168.229 326.01 168.531 326.5C168.844 326.99 169.271 327.375 169.812 327.656C170.365 327.927 170.984 328.062 171.672 328.062C172.432 328.062 173.083 327.927 173.625 327.656C174.177 327.375 174.599 326.979 174.891 326.469C175.182 325.948 175.328 325.328 175.328 324.609C175.328 323.755 175.167 323.062 174.844 322.531C174.521 322 174.057 321.609 173.453 321.359C172.859 321.109 172.151 320.984 171.328 320.984H169ZM186.875 327.281L186.844 330.141C186.844 331.255 186.568 332.385 186.016 333.531C185.464 334.677 184.75 335.625 183.875 336.375L181.688 335.172C181.969 334.703 182.229 334.229 182.469 333.75C182.719 333.271 182.917 332.75 183.062 332.188C183.219 331.635 183.297 331.016 183.297 330.328V327.281H186.875ZM201.781 308.062H202.344V311.391H202.078C200.818 311.391 199.708 311.583 198.75 311.969C197.802 312.354 197.01 312.896 196.375 313.594C195.75 314.281 195.276 315.099 194.953 316.047C194.63 316.984 194.469 318.01 194.469 319.125V322.812C194.469 323.677 194.557 324.438 194.734 325.094C194.922 325.74 195.177 326.286 195.5 326.734C195.833 327.172 196.219 327.5 196.656 327.719C197.104 327.938 197.594 328.047 198.125 328.047C198.656 328.047 199.135 327.938 199.562 327.719C199.99 327.5 200.354 327.193 200.656 326.797C200.969 326.391 201.203 325.917 201.359 325.375C201.526 324.833 201.609 324.24 201.609 323.594C201.609 322.958 201.531 322.37 201.375 321.828C201.219 321.286 200.99 320.812 200.688 320.406C200.385 319.99 200.01 319.672 199.562 319.453C199.125 319.224 198.625 319.109 198.062 319.109C197.333 319.109 196.682 319.281 196.109 319.625C195.536 319.958 195.083 320.396 194.75 320.938C194.417 321.479 194.234 322.052 194.203 322.656L192.812 321.969C192.865 321.083 193.052 320.271 193.375 319.531C193.708 318.792 194.151 318.146 194.703 317.594C195.266 317.042 195.927 316.615 196.688 316.312C197.458 316.01 198.312 315.859 199.25 315.859C200.333 315.859 201.281 316.068 202.094 316.484C202.906 316.891 203.578 317.448 204.109 318.156C204.651 318.865 205.057 319.682 205.328 320.609C205.599 321.526 205.734 322.495 205.734 323.516C205.734 324.609 205.557 325.63 205.203 326.578C204.859 327.526 204.359 328.354 203.703 329.062C203.047 329.771 202.255 330.323 201.328 330.719C200.401 331.115 199.359 331.312 198.203 331.312C196.984 331.312 195.891 331.083 194.922 330.625C193.964 330.167 193.141 329.531 192.453 328.719C191.766 327.906 191.24 326.958 190.875 325.875C190.51 324.792 190.328 323.62 190.328 322.359V320.703C190.328 318.922 190.573 317.266 191.062 315.734C191.552 314.203 192.276 312.865 193.234 311.719C194.203 310.562 195.401 309.667 196.828 309.031C198.255 308.385 199.906 308.062 201.781 308.062ZM223.859 308.25V310.5L214.922 331H210.562L219.5 311.5H207.938V308.25H223.859ZM238.344 308.062H238.906V311.391H238.641C237.38 311.391 236.271 311.583 235.312 311.969C234.365 312.354 233.573 312.896 232.938 313.594C232.312 314.281 231.839 315.099 231.516 316.047C231.193 316.984 231.031 318.01 231.031 319.125V322.812C231.031 323.677 231.12 324.438 231.297 325.094C231.484 325.74 231.74 326.286 232.062 326.734C232.396 327.172 232.781 327.5 233.219 327.719C233.667 327.938 234.156 328.047 234.688 328.047C235.219 328.047 235.698 327.938 236.125 327.719C236.552 327.5 236.917 327.193 237.219 326.797C237.531 326.391 237.766 325.917 237.922 325.375C238.089 324.833 238.172 324.24 238.172 323.594C238.172 322.958 238.094 322.37 237.938 321.828C237.781 321.286 237.552 320.812 237.25 320.406C236.948 319.99 236.573 319.672 236.125 319.453C235.688 319.224 235.188 319.109 234.625 319.109C233.896 319.109 233.245 319.281 232.672 319.625C232.099 319.958 231.646 320.396 231.312 320.938C230.979 321.479 230.797 322.052 230.766 322.656L229.375 321.969C229.427 321.083 229.615 320.271 229.938 319.531C230.271 318.792 230.714 318.146 231.266 317.594C231.828 317.042 232.49 316.615 233.25 316.312C234.021 316.01 234.875 315.859 235.812 315.859C236.896 315.859 237.844 316.068 238.656 316.484C239.469 316.891 240.141 317.448 240.672 318.156C241.214 318.865 241.62 319.682 241.891 320.609C242.161 321.526 242.297 322.495 242.297 323.516C242.297 324.609 242.12 325.63 241.766 326.578C241.422 327.526 240.922 328.354 240.266 329.062C239.609 329.771 238.818 330.323 237.891 330.719C236.964 331.115 235.922 331.312 234.766 331.312C233.547 331.312 232.453 331.083 231.484 330.625C230.526 330.167 229.703 329.531 229.016 328.719C228.328 327.906 227.802 326.958 227.438 325.875C227.073 324.792 226.891 323.62 226.891 322.359V320.703C226.891 318.922 227.135 317.266 227.625 315.734C228.115 314.203 228.839 312.865 229.797 311.719C230.766 310.562 231.964 309.667 233.391 309.031C234.818 308.385 236.469 308.062 238.344 308.062ZM245.531 328.984C245.531 328.359 245.745 327.833 246.172 327.406C246.599 326.979 247.177 326.766 247.906 326.766C248.635 326.766 249.214 326.979 249.641 327.406C250.068 327.833 250.281 328.359 250.281 328.984C250.281 329.599 250.068 330.12 249.641 330.547C249.214 330.964 248.635 331.172 247.906 331.172C247.177 331.172 246.599 330.964 246.172 330.547C245.745 330.12 245.531 329.599 245.531 328.984Z" fill="black"/>
<path d="M269.297 317.672V321.5C269.297 323.25 269.12 324.745 268.766 325.984C268.411 327.224 267.901 328.24 267.234 329.031C266.568 329.812 265.771 330.391 264.844 330.766C263.917 331.13 262.885 331.312 261.75 331.312C260.844 331.312 260 331.198 259.219 330.969C258.438 330.729 257.734 330.365 257.109 329.875C256.495 329.375 255.964 328.74 255.516 327.969C255.078 327.198 254.74 326.276 254.5 325.203C254.271 324.13 254.156 322.896 254.156 321.5V317.672C254.156 315.922 254.333 314.432 254.688 313.203C255.052 311.974 255.568 310.969 256.234 310.188C256.901 309.406 257.698 308.839 258.625 308.484C259.552 308.12 260.583 307.938 261.719 307.938C262.635 307.938 263.479 308.052 264.25 308.281C265.031 308.51 265.729 308.87 266.344 309.359C266.969 309.839 267.5 310.464 267.938 311.234C268.375 311.995 268.708 312.911 268.938 313.984C269.177 315.047 269.297 316.276 269.297 317.672ZM265.172 322.062V317.094C265.172 316.219 265.12 315.458 265.016 314.812C264.922 314.156 264.781 313.599 264.594 313.141C264.406 312.682 264.172 312.312 263.891 312.031C263.609 311.74 263.286 311.526 262.922 311.391C262.557 311.255 262.156 311.188 261.719 311.188C261.177 311.188 260.693 311.297 260.266 311.516C259.839 311.724 259.479 312.057 259.188 312.516C258.896 312.974 258.672 313.583 258.516 314.344C258.37 315.094 258.297 316.01 258.297 317.094V322.062C258.297 322.938 258.344 323.703 258.438 324.359C258.542 325.016 258.688 325.578 258.875 326.047C259.073 326.516 259.307 326.901 259.578 327.203C259.859 327.495 260.182 327.714 260.547 327.859C260.911 327.995 261.312 328.062 261.75 328.062C262.302 328.062 262.786 327.953 263.203 327.734C263.63 327.516 263.99 327.172 264.281 326.703C264.573 326.224 264.792 325.604 264.938 324.844C265.094 324.073 265.172 323.146 265.172 322.062ZM287.578 317.672V321.5C287.578 323.25 287.401 324.745 287.047 325.984C286.693 327.224 286.182 328.24 285.516 329.031C284.849 329.812 284.052 330.391 283.125 330.766C282.198 331.13 281.167 331.312 280.031 331.312C279.125 331.312 278.281 331.198 277.5 330.969C276.719 330.729 276.016 330.365 275.391 329.875C274.776 329.375 274.245 328.74 273.797 327.969C273.359 327.198 273.021 326.276 272.781 325.203C272.552 324.13 272.438 322.896 272.438 321.5V317.672C272.438 315.922 272.615 314.432 272.969 313.203C273.333 311.974 273.849 310.969 274.516 310.188C275.182 309.406 275.979 308.839 276.906 308.484C277.833 308.12 278.865 307.938 280 307.938C280.917 307.938 281.76 308.052 282.531 308.281C283.312 308.51 284.01 308.87 284.625 309.359C285.25 309.839 285.781 310.464 286.219 311.234C286.656 311.995 286.99 312.911 287.219 313.984C287.458 315.047 287.578 316.276 287.578 317.672ZM283.453 322.062V317.094C283.453 316.219 283.401 315.458 283.297 314.812C283.203 314.156 283.062 313.599 282.875 313.141C282.688 312.682 282.453 312.312 282.172 312.031C281.891 311.74 281.568 311.526 281.203 311.391C280.839 311.255 280.438 311.188 280 311.188C279.458 311.188 278.974 311.297 278.547 311.516C278.12 311.724 277.76 312.057 277.469 312.516C277.177 312.974 276.953 313.583 276.797 314.344C276.651 315.094 276.578 316.01 276.578 317.094V322.062C276.578 322.938 276.625 323.703 276.719 324.359C276.823 325.016 276.969 325.578 277.156 326.047C277.354 326.516 277.589 326.901 277.859 327.203C278.141 327.495 278.464 327.714 278.828 327.859C279.193 327.995 279.594 328.062 280.031 328.062C280.583 328.062 281.068 327.953 281.484 327.734C281.911 327.516 282.271 327.172 282.562 326.703C282.854 326.224 283.073 325.604 283.219 324.844C283.375 324.073 283.453 323.146 283.453 322.062Z" fill="#484C4F"/>
<rect width="300" height="6" transform="translate(108 355)" fill="#F1F1F1"/>
<rect x="108" y="355" width="100" height="6" fill="#1F332C"/>
<path d="M110.309 371.049H111.182C111.49 371.049 111.744 370.996 111.943 370.891C112.146 370.781 112.297 370.633 112.395 370.445C112.496 370.254 112.547 370.033 112.547 369.783C112.547 369.537 112.502 369.324 112.412 369.145C112.322 368.961 112.186 368.82 112.002 368.723C111.822 368.621 111.592 368.57 111.311 368.57C111.084 368.57 110.875 368.615 110.684 368.705C110.496 368.795 110.346 368.924 110.232 369.092C110.123 369.256 110.068 369.453 110.068 369.684H108.516C108.516 369.223 108.637 368.818 108.879 368.471C109.125 368.119 109.457 367.844 109.875 367.645C110.293 367.445 110.76 367.346 111.275 367.346C111.838 367.346 112.33 367.439 112.752 367.627C113.178 367.811 113.508 368.082 113.742 368.441C113.98 368.801 114.1 369.246 114.1 369.777C114.1 370.031 114.039 370.285 113.918 370.539C113.801 370.789 113.627 371.016 113.396 371.219C113.17 371.418 112.891 371.58 112.559 371.705C112.23 371.826 111.854 371.887 111.428 371.887H110.309V371.049ZM110.309 372.244V371.418H111.428C111.908 371.418 112.324 371.475 112.676 371.588C113.031 371.697 113.324 371.854 113.555 372.057C113.785 372.256 113.955 372.488 114.064 372.754C114.178 373.02 114.234 373.305 114.234 373.609C114.234 374.008 114.16 374.363 114.012 374.676C113.863 374.984 113.654 375.246 113.385 375.461C113.119 375.676 112.807 375.84 112.447 375.953C112.088 376.062 111.699 376.117 111.281 376.117C110.918 376.117 110.564 376.068 110.221 375.971C109.881 375.869 109.574 375.719 109.301 375.52C109.027 375.316 108.811 375.062 108.65 374.758C108.49 374.449 108.41 374.092 108.41 373.686H109.963C109.963 373.92 110.02 374.129 110.133 374.312C110.25 374.496 110.41 374.641 110.613 374.746C110.82 374.848 111.053 374.898 111.311 374.898C111.596 374.898 111.84 374.848 112.043 374.746C112.25 374.641 112.408 374.492 112.518 374.301C112.627 374.105 112.682 373.873 112.682 373.604C112.682 373.283 112.621 373.023 112.5 372.824C112.379 372.625 112.205 372.479 111.979 372.385C111.756 372.291 111.49 372.244 111.182 372.244H110.309ZM121.131 373.668C121.131 374.199 121.006 374.648 120.756 375.016C120.51 375.379 120.172 375.654 119.742 375.842C119.316 376.025 118.832 376.117 118.289 376.117C117.75 376.117 117.264 376.025 116.83 375.842C116.4 375.654 116.059 375.379 115.805 375.016C115.555 374.648 115.43 374.199 115.43 373.668C115.43 373.312 115.5 372.99 115.641 372.701C115.785 372.412 115.984 372.164 116.238 371.957C116.492 371.746 116.793 371.586 117.141 371.477C117.488 371.363 117.867 371.307 118.277 371.307C118.824 371.307 119.312 371.406 119.742 371.605C120.176 371.801 120.516 372.076 120.762 372.432C121.008 372.783 121.131 373.195 121.131 373.668ZM119.572 373.574C119.572 373.301 119.518 373.064 119.408 372.865C119.303 372.662 119.152 372.506 118.957 372.396C118.762 372.287 118.535 372.232 118.277 372.232C118.016 372.232 117.787 372.287 117.592 372.396C117.4 372.506 117.25 372.662 117.141 372.865C117.035 373.064 116.982 373.301 116.982 373.574C116.982 373.852 117.035 374.09 117.141 374.289C117.25 374.484 117.402 374.635 117.598 374.74C117.793 374.846 118.023 374.898 118.289 374.898C118.555 374.898 118.783 374.846 118.975 374.74C119.166 374.635 119.312 374.484 119.414 374.289C119.52 374.09 119.572 373.852 119.572 373.574ZM120.943 369.719C120.943 370.148 120.83 370.531 120.604 370.867C120.377 371.199 120.062 371.459 119.66 371.646C119.262 371.834 118.805 371.928 118.289 371.928C117.773 371.928 117.312 371.834 116.906 371.646C116.504 371.459 116.188 371.199 115.957 370.867C115.73 370.531 115.617 370.148 115.617 369.719C115.617 369.211 115.732 368.781 115.963 368.43C116.193 368.074 116.508 367.805 116.906 367.621C117.309 367.438 117.766 367.346 118.277 367.346C118.797 367.346 119.258 367.438 119.66 367.621C120.062 367.805 120.377 368.074 120.604 368.43C120.83 368.781 120.943 369.211 120.943 369.719ZM119.396 369.783C119.396 369.541 119.352 369.33 119.262 369.15C119.172 368.967 119.043 368.824 118.875 368.723C118.711 368.621 118.512 368.57 118.277 368.57C118.051 368.57 117.855 368.619 117.691 368.717C117.527 368.814 117.4 368.955 117.311 369.139C117.221 369.318 117.176 369.533 117.176 369.783C117.176 370.029 117.221 370.244 117.311 370.428C117.4 370.611 117.527 370.756 117.691 370.861C117.859 370.963 118.059 371.014 118.289 371.014C118.52 371.014 118.717 370.963 118.881 370.861C119.045 370.756 119.172 370.611 119.262 370.428C119.352 370.244 119.396 370.029 119.396 369.783ZM122.285 369.561V369.109C122.285 368.785 122.355 368.49 122.496 368.225C122.637 367.959 122.842 367.746 123.111 367.586C123.385 367.426 123.717 367.346 124.107 367.346C124.506 367.346 124.84 367.426 125.109 367.586C125.383 367.746 125.588 367.959 125.725 368.225C125.865 368.49 125.936 368.785 125.936 369.109V369.561C125.936 369.877 125.865 370.168 125.725 370.434C125.588 370.699 125.385 370.912 125.115 371.072C124.846 371.232 124.514 371.312 124.119 371.312C123.725 371.312 123.391 371.232 123.117 371.072C122.844 370.912 122.637 370.699 122.496 370.434C122.355 370.168 122.285 369.877 122.285 369.561ZM123.334 369.109V369.561C123.334 369.709 123.361 369.85 123.416 369.982C123.475 370.111 123.562 370.217 123.68 370.299C123.797 370.381 123.943 370.422 124.119 370.422C124.295 370.422 124.438 370.381 124.547 370.299C124.66 370.217 124.744 370.111 124.799 369.982C124.857 369.85 124.887 369.709 124.887 369.561V369.109C124.887 368.957 124.857 368.814 124.799 368.682C124.744 368.549 124.658 368.441 124.541 368.359C124.428 368.277 124.283 368.236 124.107 368.236C123.936 368.236 123.791 368.277 123.674 368.359C123.561 368.441 123.475 368.549 123.416 368.682C123.361 368.814 123.334 368.957 123.334 369.109ZM126.381 374.359V373.908C126.381 373.588 126.451 373.295 126.592 373.029C126.736 372.764 126.945 372.551 127.219 372.391C127.492 372.23 127.822 372.15 128.209 372.15C128.611 372.15 128.947 372.23 129.217 372.391C129.486 372.551 129.689 372.764 129.826 373.029C129.967 373.295 130.037 373.588 130.037 373.908V374.359C130.037 374.68 129.967 374.973 129.826 375.238C129.689 375.504 129.486 375.717 129.217 375.877C128.951 376.037 128.621 376.117 128.227 376.117C127.832 376.117 127.496 376.037 127.219 375.877C126.945 375.717 126.736 375.504 126.592 375.238C126.451 374.973 126.381 374.68 126.381 374.359ZM127.436 373.908V374.359C127.436 374.512 127.467 374.654 127.529 374.787C127.592 374.916 127.682 375.021 127.799 375.104C127.92 375.186 128.061 375.227 128.221 375.227C128.416 375.227 128.57 375.186 128.684 375.104C128.797 375.021 128.877 374.916 128.924 374.787C128.971 374.654 128.994 374.512 128.994 374.359V373.908C128.994 373.756 128.965 373.615 128.906 373.486C128.848 373.354 128.76 373.246 128.643 373.164C128.529 373.082 128.385 373.041 128.209 373.041C128.037 373.041 127.893 373.082 127.775 373.164C127.662 373.246 127.576 373.354 127.518 373.486C127.463 373.615 127.436 373.756 127.436 373.908ZM128.596 368.688L124.43 375.355L123.662 374.928L127.828 368.26L128.596 368.688Z" fill="#787878"/>
<path d="M382.6 367.445V376H381.047V369.256L378.99 369.936V368.682L382.424 367.445H382.6ZM391.119 371.002V372.438C391.119 373.094 391.053 373.654 390.92 374.119C390.787 374.584 390.596 374.965 390.346 375.262C390.096 375.555 389.797 375.771 389.449 375.912C389.102 376.049 388.715 376.117 388.289 376.117C387.949 376.117 387.633 376.074 387.34 375.988C387.047 375.898 386.783 375.762 386.549 375.578C386.318 375.391 386.119 375.152 385.951 374.863C385.787 374.574 385.66 374.229 385.57 373.826C385.484 373.424 385.441 372.961 385.441 372.438V371.002C385.441 370.346 385.508 369.787 385.641 369.326C385.777 368.865 385.971 368.488 386.221 368.195C386.471 367.902 386.77 367.689 387.117 367.557C387.465 367.42 387.852 367.352 388.277 367.352C388.621 367.352 388.938 367.395 389.227 367.48C389.52 367.566 389.781 367.701 390.012 367.885C390.246 368.064 390.445 368.299 390.609 368.588C390.773 368.873 390.898 369.217 390.984 369.619C391.074 370.018 391.119 370.479 391.119 371.002ZM389.572 372.648V370.785C389.572 370.457 389.553 370.172 389.514 369.93C389.479 369.684 389.426 369.475 389.355 369.303C389.285 369.131 389.197 368.992 389.092 368.887C388.986 368.777 388.865 368.697 388.729 368.646C388.592 368.596 388.441 368.57 388.277 368.57C388.074 368.57 387.893 368.611 387.732 368.693C387.572 368.771 387.438 368.896 387.328 369.068C387.219 369.24 387.135 369.469 387.076 369.754C387.021 370.035 386.994 370.379 386.994 370.785V372.648C386.994 372.977 387.012 373.264 387.047 373.51C387.086 373.756 387.141 373.967 387.211 374.143C387.285 374.318 387.373 374.463 387.475 374.576C387.58 374.686 387.701 374.768 387.838 374.822C387.975 374.873 388.125 374.898 388.289 374.898C388.496 374.898 388.678 374.857 388.834 374.775C388.994 374.693 389.129 374.564 389.238 374.389C389.348 374.209 389.43 373.977 389.484 373.691C389.543 373.402 389.572 373.055 389.572 372.648ZM397.975 371.002V372.438C397.975 373.094 397.908 373.654 397.775 374.119C397.643 374.584 397.451 374.965 397.201 375.262C396.951 375.555 396.652 375.771 396.305 375.912C395.957 376.049 395.57 376.117 395.145 376.117C394.805 376.117 394.488 376.074 394.195 375.988C393.902 375.898 393.639 375.762 393.404 375.578C393.174 375.391 392.975 375.152 392.807 374.863C392.643 374.574 392.516 374.229 392.426 373.826C392.34 373.424 392.297 372.961 392.297 372.438V371.002C392.297 370.346 392.363 369.787 392.496 369.326C392.633 368.865 392.826 368.488 393.076 368.195C393.326 367.902 393.625 367.689 393.973 367.557C394.32 367.42 394.707 367.352 395.133 367.352C395.477 367.352 395.793 367.395 396.082 367.48C396.375 367.566 396.637 367.701 396.867 367.885C397.102 368.064 397.301 368.299 397.465 368.588C397.629 368.873 397.754 369.217 397.84 369.619C397.93 370.018 397.975 370.479 397.975 371.002ZM396.428 372.648V370.785C396.428 370.457 396.408 370.172 396.369 369.93C396.334 369.684 396.281 369.475 396.211 369.303C396.141 369.131 396.053 368.992 395.947 368.887C395.842 368.777 395.721 368.697 395.584 368.646C395.447 368.596 395.297 368.57 395.133 368.57C394.93 368.57 394.748 368.611 394.588 368.693C394.428 368.771 394.293 368.896 394.184 369.068C394.074 369.24 393.99 369.469 393.932 369.754C393.877 370.035 393.85 370.379 393.85 370.785V372.648C393.85 372.977 393.867 373.264 393.902 373.51C393.941 373.756 393.996 373.967 394.066 374.143C394.141 374.318 394.229 374.463 394.33 374.576C394.436 374.686 394.557 374.768 394.693 374.822C394.83 374.873 394.98 374.898 395.145 374.898C395.352 374.898 395.533 374.857 395.689 374.775C395.85 374.693 395.984 374.564 396.094 374.389C396.203 374.209 396.285 373.977 396.34 373.691C396.398 373.402 396.428 373.055 396.428 372.648ZM399.141 369.561V369.109C399.141 368.785 399.211 368.49 399.352 368.225C399.492 367.959 399.697 367.746 399.967 367.586C400.24 367.426 400.572 367.346 400.963 367.346C401.361 367.346 401.695 367.426 401.965 367.586C402.238 367.746 402.443 367.959 402.58 368.225C402.721 368.49 402.791 368.785 402.791 369.109V369.561C402.791 369.877 402.721 370.168 402.58 370.434C402.443 370.699 402.24 370.912 401.971 371.072C401.701 371.232 401.369 371.312 400.975 371.312C400.58 371.312 400.246 371.232 399.973 371.072C399.699 370.912 399.492 370.699 399.352 370.434C399.211 370.168 399.141 369.877 399.141 369.561ZM400.189 369.109V369.561C400.189 369.709 400.217 369.85 400.271 369.982C400.33 370.111 400.418 370.217 400.535 370.299C400.652 370.381 400.799 370.422 400.975 370.422C401.15 370.422 401.293 370.381 401.402 370.299C401.516 370.217 401.6 370.111 401.654 369.982C401.713 369.85 401.742 369.709 401.742 369.561V369.109C401.742 368.957 401.713 368.814 401.654 368.682C401.6 368.549 401.514 368.441 401.396 368.359C401.283 368.277 401.139 368.236 400.963 368.236C400.791 368.236 400.646 368.277 400.529 368.359C400.416 368.441 400.33 368.549 400.271 368.682C400.217 368.814 400.189 368.957 400.189 369.109ZM403.236 374.359V373.908C403.236 373.588 403.307 373.295 403.447 373.029C403.592 372.764 403.801 372.551 404.074 372.391C404.348 372.23 404.678 372.15 405.064 372.15C405.467 372.15 405.803 372.23 406.072 372.391C406.342 372.551 406.545 372.764 406.682 373.029C406.822 373.295 406.893 373.588 406.893 373.908V374.359C406.893 374.68 406.822 374.973 406.682 375.238C406.545 375.504 406.342 375.717 406.072 375.877C405.807 376.037 405.477 376.117 405.082 376.117C404.688 376.117 404.352 376.037 404.074 375.877C403.801 375.717 403.592 375.504 403.447 375.238C403.307 374.973 403.236 374.68 403.236 374.359ZM404.291 373.908V374.359C404.291 374.512 404.322 374.654 404.385 374.787C404.447 374.916 404.537 375.021 404.654 375.104C404.775 375.186 404.916 375.227 405.076 375.227C405.271 375.227 405.426 375.186 405.539 375.104C405.652 375.021 405.732 374.916 405.779 374.787C405.826 374.654 405.85 374.512 405.85 374.359V373.908C405.85 373.756 405.82 373.615 405.762 373.486C405.703 373.354 405.615 373.246 405.498 373.164C405.385 373.082 405.24 373.041 405.064 373.041C404.893 373.041 404.748 373.082 404.631 373.164C404.518 373.246 404.432 373.354 404.373 373.486C404.318 373.615 404.291 373.756 404.291 373.908ZM405.451 368.688L401.285 375.355L400.518 374.928L404.684 368.26L405.451 368.688Z" fill="#1F332C"/>
</g>
<g filter="url(#filter1_dd_1_1058)">
<rect x="218" y="32" width="236" height="147" rx="16" fill="white"/>
<path d="M250.799 70.3086C250.799 70.0352 250.757 69.791 250.672 69.5762C250.594 69.3548 250.447 69.1562 250.232 68.9805C250.024 68.7982 249.728 68.6224 249.344 68.4531C248.966 68.2773 248.478 68.0951 247.879 67.9062C247.215 67.6979 246.596 67.4635 246.023 67.2031C245.451 66.9427 244.946 66.64 244.51 66.2949C244.08 65.9499 243.745 65.5527 243.504 65.1035C243.263 64.6478 243.143 64.1204 243.143 63.5215C243.143 62.9355 243.266 62.4017 243.514 61.9199C243.768 61.4382 244.126 61.0247 244.588 60.6797C245.05 60.3281 245.594 60.0579 246.219 59.8691C246.85 59.6803 247.547 59.5859 248.309 59.5859C249.363 59.5859 250.275 59.778 251.043 60.1621C251.818 60.5462 252.417 61.0671 252.84 61.7246C253.263 62.3822 253.475 63.1211 253.475 63.9414H250.799C250.799 63.4987 250.704 63.1081 250.516 62.7695C250.333 62.431 250.053 62.1641 249.676 61.9688C249.305 61.7734 248.836 61.6758 248.27 61.6758C247.723 61.6758 247.267 61.7572 246.902 61.9199C246.544 62.0827 246.274 62.304 246.092 62.584C245.916 62.8639 245.828 63.1764 245.828 63.5215C245.828 63.7819 245.89 64.0163 246.014 64.2246C246.137 64.4264 246.323 64.6185 246.57 64.8008C246.818 64.9766 247.124 65.1426 247.488 65.2988C247.859 65.4486 248.289 65.5983 248.777 65.748C249.559 65.9824 250.242 66.2428 250.828 66.5293C251.421 66.8158 251.912 67.1413 252.303 67.5059C252.7 67.8704 252.996 68.2806 253.191 68.7363C253.393 69.1921 253.494 69.7096 253.494 70.2891C253.494 70.901 253.374 71.4479 253.133 71.9297C252.892 72.4115 252.547 72.8216 252.098 73.1602C251.648 73.4987 251.108 73.7559 250.477 73.9316C249.852 74.1074 249.152 74.1953 248.377 74.1953C247.687 74.1953 247.003 74.1042 246.326 73.9219C245.656 73.7331 245.047 73.4531 244.5 73.082C243.953 72.7044 243.517 72.2292 243.191 71.6562C242.866 71.0768 242.703 70.3997 242.703 69.625H245.398C245.398 70.0742 245.47 70.4583 245.613 70.7773C245.763 71.0898 245.971 71.347 246.238 71.5488C246.512 71.7441 246.831 71.8874 247.195 71.9785C247.56 72.0697 247.954 72.1152 248.377 72.1152C248.924 72.1152 249.373 72.0404 249.725 71.8906C250.083 71.7344 250.35 71.5195 250.525 71.2461C250.708 70.9727 250.799 70.6602 250.799 70.3086ZM257.947 65.4648V78.0625H255.359V63.4336H257.752L257.947 65.4648ZM264.734 68.6094V68.8145C264.734 69.5827 264.643 70.2956 264.461 70.9531C264.285 71.6042 264.025 72.1738 263.68 72.6621C263.335 73.1439 262.905 73.5215 262.391 73.7949C261.883 74.0618 261.297 74.1953 260.633 74.1953C259.982 74.1953 259.415 74.0716 258.934 73.8242C258.452 73.5703 258.045 73.2122 257.713 72.75C257.381 72.2878 257.114 71.7507 256.912 71.1387C256.717 70.5202 256.57 69.8464 256.473 69.1172V68.4629C256.57 67.6882 256.717 66.985 256.912 66.3535C257.114 65.7155 257.381 65.1654 257.713 64.7031C258.045 64.2344 258.449 63.873 258.924 63.6191C259.406 63.3652 259.969 63.2383 260.613 63.2383C261.284 63.2383 261.873 63.3652 262.381 63.6191C262.895 63.873 263.328 64.2376 263.68 64.7129C264.031 65.1882 264.295 65.7546 264.471 66.4121C264.646 67.0697 264.734 67.8021 264.734 68.6094ZM262.146 68.8145V68.6094C262.146 68.1406 262.104 67.7077 262.02 67.3105C261.935 66.9069 261.805 66.5553 261.629 66.2559C261.453 65.9499 261.225 65.7122 260.945 65.543C260.665 65.3737 260.327 65.2891 259.93 65.2891C259.533 65.2891 259.191 65.3542 258.904 65.4844C258.618 65.6146 258.383 65.8001 258.201 66.041C258.019 66.2819 257.876 66.5684 257.771 66.9004C257.674 67.2259 257.609 67.5872 257.576 67.9844V69.6055C257.635 70.0872 257.749 70.5202 257.918 70.9043C258.087 71.2884 258.335 71.5944 258.66 71.8223C258.992 72.0501 259.422 72.1641 259.949 72.1641C260.346 72.1641 260.685 72.0762 260.965 71.9004C261.245 71.7246 261.473 71.4837 261.648 71.1777C261.824 70.8652 261.951 70.5072 262.029 70.1035C262.107 69.6999 262.146 69.2702 262.146 68.8145ZM271.365 74.1953C270.564 74.1953 269.845 74.0651 269.207 73.8047C268.569 73.5443 268.025 73.1829 267.576 72.7207C267.133 72.252 266.792 71.7083 266.551 71.0898C266.316 70.4648 266.199 69.7943 266.199 69.0781V68.6875C266.199 67.8737 266.316 67.1348 266.551 66.4707C266.785 65.8001 267.117 65.224 267.547 64.7422C267.977 64.2604 268.491 63.8893 269.09 63.6289C269.689 63.3685 270.35 63.2383 271.072 63.2383C271.821 63.2383 272.482 63.3652 273.055 63.6191C273.628 63.8665 274.106 64.2181 274.49 64.6738C274.874 65.1296 275.164 65.6764 275.359 66.3145C275.555 66.946 275.652 67.6458 275.652 68.4141V69.498H267.371V67.7207H273.113V67.5254C273.1 67.1152 273.022 66.7409 272.879 66.4023C272.736 66.0573 272.514 65.7839 272.215 65.582C271.915 65.3737 271.528 65.2695 271.053 65.2695C270.669 65.2695 270.333 65.3542 270.047 65.5234C269.767 65.6862 269.533 65.9206 269.344 66.2266C269.161 66.526 269.025 66.8841 268.934 67.3008C268.842 67.7174 268.797 68.1797 268.797 68.6875V69.0781C268.797 69.5208 268.855 69.931 268.973 70.3086C269.096 70.6862 269.275 71.015 269.51 71.2949C269.751 71.5684 270.037 71.7832 270.369 71.9395C270.708 72.0892 271.092 72.1641 271.521 72.1641C272.062 72.1641 272.55 72.0599 272.986 71.8516C273.429 71.6367 273.813 71.321 274.139 70.9043L275.438 72.252C275.216 72.5775 274.917 72.89 274.539 73.1895C274.168 73.4889 273.719 73.7331 273.191 73.9219C272.664 74.1042 272.055 74.1953 271.365 74.1953ZM279.91 65.6895V74H277.332V63.4336H279.754L279.91 65.6895ZM279.5 68.3359H278.738C278.745 67.5677 278.849 66.8711 279.051 66.2461C279.253 65.6211 279.536 65.084 279.9 64.6348C280.271 64.1855 280.711 63.8405 281.219 63.5996C281.727 63.3587 282.293 63.2383 282.918 63.2383C283.426 63.2383 283.885 63.3099 284.295 63.4531C284.705 63.5964 285.057 63.8242 285.35 64.1367C285.649 64.4492 285.877 64.8594 286.033 65.3672C286.196 65.8685 286.277 66.487 286.277 67.2227V74H283.68V67.2031C283.68 66.7214 283.608 66.3405 283.465 66.0605C283.328 65.7806 283.126 65.582 282.859 65.4648C282.599 65.3477 282.277 65.2891 281.893 65.2891C281.495 65.2891 281.147 65.3704 280.848 65.5332C280.555 65.6895 280.307 65.9076 280.105 66.1875C279.91 66.4674 279.76 66.7897 279.656 67.1543C279.552 67.5189 279.5 67.9128 279.5 68.3359ZM294.891 71.7539V59H297.488V74H295.145L294.891 71.7539ZM288.104 68.8438V68.6387C288.104 67.8314 288.195 67.099 288.377 66.4414C288.566 65.7773 288.839 65.2077 289.197 64.7324C289.555 64.2572 289.988 63.8893 290.496 63.6289C291.01 63.3685 291.593 63.2383 292.244 63.2383C292.876 63.2383 293.426 63.3652 293.895 63.6191C294.37 63.873 294.773 64.2344 295.105 64.7031C295.444 65.1719 295.714 65.7285 295.916 66.373C296.118 67.0111 296.264 67.7142 296.355 68.4824V69.0391C296.264 69.7878 296.118 70.4746 295.916 71.0996C295.714 71.7246 295.444 72.2715 295.105 72.7402C294.773 73.2025 294.37 73.5605 293.895 73.8145C293.419 74.0684 292.863 74.1953 292.225 74.1953C291.58 74.1953 291.001 74.0618 290.486 73.7949C289.979 73.528 289.546 73.1536 289.188 72.6719C288.836 72.1901 288.566 71.6237 288.377 70.9727C288.195 70.3216 288.104 69.612 288.104 68.8438ZM290.691 68.6387V68.8438C290.691 69.2995 290.73 69.7259 290.809 70.123C290.887 70.5202 291.014 70.8717 291.189 71.1777C291.365 71.4772 291.59 71.7116 291.863 71.8809C292.143 72.0501 292.482 72.1348 292.879 72.1348C293.387 72.1348 293.803 72.0241 294.129 71.8027C294.461 71.5749 294.718 71.2656 294.9 70.875C295.083 70.4779 295.2 70.0319 295.252 69.5371V68.0039C295.226 67.6133 295.158 67.252 295.047 66.9199C294.943 66.5879 294.793 66.3014 294.598 66.0605C294.409 65.8197 294.174 65.6309 293.895 65.4941C293.615 65.3574 293.283 65.2891 292.898 65.2891C292.501 65.2891 292.163 65.377 291.883 65.5527C291.603 65.722 291.375 65.9596 291.199 66.2656C291.023 66.5716 290.893 66.9264 290.809 67.3301C290.73 67.7337 290.691 68.1699 290.691 68.6387ZM302.557 63.4336V74H299.969V63.4336H302.557ZM299.793 60.6699C299.793 60.2858 299.923 59.9668 300.184 59.7129C300.451 59.459 300.809 59.332 301.258 59.332C301.707 59.332 302.062 59.459 302.322 59.7129C302.589 59.9668 302.723 60.2858 302.723 60.6699C302.723 61.0475 302.589 61.3633 302.322 61.6172C302.062 61.8711 301.707 61.998 301.258 61.998C300.809 61.998 300.451 61.8711 300.184 61.6172C299.923 61.3633 299.793 61.0475 299.793 60.6699ZM307.547 65.6895V74H304.969V63.4336H307.391L307.547 65.6895ZM307.137 68.3359H306.375C306.382 67.5677 306.486 66.8711 306.688 66.2461C306.889 65.6211 307.173 65.084 307.537 64.6348C307.908 64.1855 308.348 63.8405 308.855 63.5996C309.363 63.3587 309.93 63.2383 310.555 63.2383C311.062 63.2383 311.521 63.3099 311.932 63.4531C312.342 63.5964 312.693 63.8242 312.986 64.1367C313.286 64.4492 313.514 64.8594 313.67 65.3672C313.833 65.8685 313.914 66.487 313.914 67.2227V74H311.316V67.2031C311.316 66.7214 311.245 66.3405 311.102 66.0605C310.965 65.7806 310.763 65.582 310.496 65.4648C310.236 65.3477 309.913 65.2891 309.529 65.2891C309.132 65.2891 308.784 65.3704 308.484 65.5332C308.191 65.6895 307.944 65.9076 307.742 66.1875C307.547 66.4674 307.397 66.7897 307.293 67.1543C307.189 67.5189 307.137 67.9128 307.137 68.3359ZM322.908 63.4336H325.252V73.6777C325.252 74.6348 325.044 75.4453 324.627 76.1094C324.217 76.7799 323.641 77.2878 322.898 77.6328C322.156 77.9844 321.294 78.1602 320.311 78.1602C319.887 78.1602 319.428 78.1016 318.934 77.9844C318.445 77.8672 317.973 77.6816 317.518 77.4277C317.068 77.1803 316.694 76.8581 316.395 76.4609L317.557 74.9375C317.908 75.3477 318.305 75.6569 318.748 75.8652C319.191 76.0801 319.669 76.1875 320.184 76.1875C320.704 76.1875 321.147 76.0898 321.512 75.8945C321.883 75.7057 322.166 75.4258 322.361 75.0547C322.563 74.6901 322.664 74.2409 322.664 73.707V65.8457L322.908 63.4336ZM315.77 68.8438V68.6387C315.77 67.8314 315.867 67.099 316.062 66.4414C316.258 65.7773 316.538 65.2077 316.902 64.7324C317.273 64.2572 317.719 63.8893 318.24 63.6289C318.768 63.3685 319.36 63.2383 320.018 63.2383C320.714 63.2383 321.3 63.3652 321.775 63.6191C322.257 63.873 322.654 64.2344 322.967 64.7031C323.286 65.1719 323.533 65.7285 323.709 66.373C323.891 67.0111 324.031 67.7142 324.129 68.4824V69.0391C324.038 69.7878 323.891 70.4746 323.689 71.0996C323.494 71.7246 323.234 72.2715 322.908 72.7402C322.583 73.2025 322.179 73.5605 321.697 73.8145C321.215 74.0684 320.649 74.1953 319.998 74.1953C319.347 74.1953 318.761 74.0618 318.24 73.7949C317.719 73.528 317.273 73.1536 316.902 72.6719C316.538 72.1901 316.258 71.6237 316.062 70.9727C315.867 70.3216 315.77 69.612 315.77 68.8438ZM318.348 68.6387V68.8438C318.348 69.2995 318.393 69.7259 318.484 70.123C318.576 70.5202 318.715 70.8717 318.904 71.1777C319.093 71.4772 319.331 71.7116 319.617 71.8809C319.904 72.0501 320.245 72.1348 320.643 72.1348C321.176 72.1348 321.613 72.0241 321.951 71.8027C322.296 71.5749 322.557 71.2656 322.732 70.875C322.915 70.4779 323.032 70.0319 323.084 69.5371V68.0039C323.051 67.6133 322.98 67.252 322.869 66.9199C322.765 66.5879 322.618 66.3014 322.43 66.0605C322.241 65.8197 322 65.6309 321.707 65.4941C321.414 65.3574 321.066 65.2891 320.662 65.2891C320.271 65.2891 319.93 65.377 319.637 65.5527C319.344 65.722 319.103 65.9596 318.914 66.2656C318.725 66.5716 318.582 66.9264 318.484 67.3301C318.393 67.7337 318.348 68.1699 318.348 68.6387ZM338.406 61.9395L334.354 74H331.512L336.824 59.7812H338.641L338.406 61.9395ZM341.795 74L337.723 61.9395L337.479 59.7812H339.305L344.646 74H341.795ZM341.609 68.7168V70.8359H333.982V68.7168H341.609ZM348.23 65.6016V74H345.652V63.4336H348.084L348.23 65.6016ZM347.85 68.3359H347.059C347.059 67.6003 347.146 66.9232 347.322 66.3047C347.505 65.6862 347.771 65.1491 348.123 64.6934C348.475 64.2311 348.908 63.873 349.422 63.6191C349.943 63.3652 350.545 63.2383 351.229 63.2383C351.704 63.2383 352.14 63.3099 352.537 63.4531C352.934 63.5898 353.276 63.8079 353.562 64.1074C353.855 64.4004 354.08 64.7845 354.236 65.2598C354.393 65.7285 354.471 66.2917 354.471 66.9492V74H351.893V67.2129C351.893 66.7181 351.821 66.3307 351.678 66.0508C351.541 65.7708 351.342 65.5755 351.082 65.4648C350.822 65.3477 350.509 65.2891 350.145 65.2891C349.741 65.2891 349.393 65.3704 349.1 65.5332C348.813 65.6895 348.576 65.9076 348.387 66.1875C348.204 66.4674 348.068 66.7897 347.977 67.1543C347.892 67.5189 347.85 67.9128 347.85 68.3359ZM354.275 67.8574L353.211 68.0527C353.217 67.3887 353.309 66.7669 353.484 66.1875C353.66 65.6016 353.917 65.0905 354.256 64.6543C354.601 64.2116 355.027 63.8665 355.535 63.6191C356.049 63.3652 356.642 63.2383 357.312 63.2383C357.833 63.2383 358.302 63.3132 358.719 63.4629C359.142 63.6061 359.503 63.8372 359.803 64.1562C360.102 64.4688 360.33 64.8757 360.486 65.377C360.649 65.8783 360.73 66.4902 360.73 67.2129V74H358.133V67.2031C358.133 66.6888 358.061 66.2949 357.918 66.0215C357.781 65.748 357.583 65.5592 357.322 65.4551C357.062 65.3444 356.756 65.2891 356.404 65.2891C356.046 65.2891 355.734 65.3574 355.467 65.4941C355.206 65.6243 354.985 65.8066 354.803 66.041C354.627 66.2754 354.493 66.5488 354.402 66.8613C354.318 67.1673 354.275 67.4993 354.275 67.8574ZM362.586 68.8242V68.6191C362.586 67.8444 362.697 67.1315 362.918 66.4805C363.139 65.8229 363.462 65.2533 363.885 64.7715C364.308 64.2897 364.826 63.9154 365.438 63.6484C366.049 63.375 366.746 63.2383 367.527 63.2383C368.322 63.2383 369.025 63.375 369.637 63.6484C370.255 63.9154 370.776 64.2897 371.199 64.7715C371.622 65.2533 371.945 65.8229 372.166 66.4805C372.387 67.1315 372.498 67.8444 372.498 68.6191V68.8242C372.498 69.5924 372.387 70.3053 372.166 70.9629C371.945 71.6139 371.622 72.1836 371.199 72.6719C370.776 73.1536 370.258 73.528 369.646 73.7949C369.035 74.0618 368.335 74.1953 367.547 74.1953C366.766 74.1953 366.066 74.0618 365.447 73.7949C364.829 73.528 364.308 73.1536 363.885 72.6719C363.462 72.1836 363.139 71.6139 362.918 70.9629C362.697 70.3053 362.586 69.5924 362.586 68.8242ZM365.164 68.6191V68.8242C365.164 69.2865 365.21 69.7194 365.301 70.123C365.392 70.5267 365.532 70.8815 365.721 71.1875C365.91 71.4935 366.154 71.7344 366.453 71.9102C366.759 72.0794 367.124 72.1641 367.547 72.1641C367.964 72.1641 368.322 72.0794 368.621 71.9102C368.921 71.7344 369.165 71.4935 369.354 71.1875C369.549 70.8815 369.692 70.5267 369.783 70.123C369.874 69.7194 369.92 69.2865 369.92 68.8242V68.6191C369.92 68.1634 369.874 67.737 369.783 67.3398C369.692 66.9362 369.549 66.5814 369.354 66.2754C369.165 65.9629 368.917 65.7188 368.611 65.543C368.312 65.3607 367.951 65.2695 367.527 65.2695C367.111 65.2695 366.753 65.3607 366.453 65.543C366.154 65.7188 365.91 65.9629 365.721 66.2754C365.532 66.5814 365.392 66.9362 365.301 67.3398C365.21 67.737 365.164 68.1634 365.164 68.6191ZM380.662 71.4902V63.4336H383.26V74H380.818L380.662 71.4902ZM380.994 69.3027L381.795 69.2832C381.795 69.9928 381.717 70.6471 381.561 71.2461C381.404 71.8451 381.16 72.3659 380.828 72.8086C380.503 73.2448 380.089 73.5866 379.588 73.834C379.087 74.0749 378.494 74.1953 377.811 74.1953C377.29 74.1953 376.814 74.1237 376.385 73.9805C375.955 73.8307 375.584 73.5996 375.271 73.2871C374.965 72.9681 374.728 72.5612 374.559 72.0664C374.389 71.5651 374.305 70.9629 374.305 70.2598V63.4336H376.883V70.2793C376.883 70.6309 376.922 70.9238 377 71.1582C377.085 71.3926 377.199 71.5846 377.342 71.7344C377.492 71.8776 377.664 71.9818 377.859 72.0469C378.061 72.1055 378.276 72.1348 378.504 72.1348C379.129 72.1348 379.62 72.0111 379.979 71.7637C380.343 71.5098 380.604 71.1712 380.76 70.748C380.916 70.3184 380.994 69.8366 380.994 69.3027ZM388.074 65.6895V74H385.496V63.4336H387.918L388.074 65.6895ZM387.664 68.3359H386.902C386.909 67.5677 387.013 66.8711 387.215 66.2461C387.417 65.6211 387.7 65.084 388.064 64.6348C388.436 64.1855 388.875 63.8405 389.383 63.5996C389.891 63.3587 390.457 63.2383 391.082 63.2383C391.59 63.2383 392.049 63.3099 392.459 63.4531C392.869 63.5964 393.221 63.8242 393.514 64.1367C393.813 64.4492 394.041 64.8594 394.197 65.3672C394.36 65.8685 394.441 66.487 394.441 67.2227V74H391.844V67.2031C391.844 66.7214 391.772 66.3405 391.629 66.0605C391.492 65.7806 391.29 65.582 391.023 65.4648C390.763 65.3477 390.441 65.2891 390.057 65.2891C389.66 65.2891 389.311 65.3704 389.012 65.5332C388.719 65.6895 388.471 65.9076 388.27 66.1875C388.074 66.4674 387.924 66.7897 387.82 67.1543C387.716 67.5189 387.664 67.9128 387.664 68.3359ZM401.717 63.4336V65.2891H395.662V63.4336H401.717ZM397.283 60.8359H399.871V70.9531C399.871 71.2656 399.913 71.5065 399.998 71.6758C400.083 71.8451 400.21 71.959 400.379 72.0176C400.548 72.0762 400.75 72.1055 400.984 72.1055C401.154 72.1055 401.31 72.0957 401.453 72.0762C401.596 72.0566 401.717 72.0371 401.814 72.0176L401.824 73.9512C401.609 74.0228 401.365 74.0814 401.092 74.127C400.825 74.1725 400.522 74.1953 400.184 74.1953C399.604 74.1953 399.096 74.0977 398.66 73.9023C398.224 73.7005 397.885 73.3783 397.645 72.9355C397.404 72.4863 397.283 71.8939 397.283 71.1582V60.8359ZM409.246 71.1094C409.246 70.888 409.188 70.6895 409.07 70.5137C408.953 70.3379 408.732 70.1784 408.406 70.0352C408.087 69.8854 407.618 69.7454 407 69.6152C406.453 69.498 405.949 69.3516 405.486 69.1758C405.024 69 404.627 68.7884 404.295 68.541C403.963 68.2871 403.702 67.9909 403.514 67.6523C403.331 67.3073 403.24 66.9102 403.24 66.4609C403.24 66.0247 403.335 65.6146 403.523 65.2305C403.712 64.8398 403.986 64.498 404.344 64.2051C404.702 63.9056 405.138 63.6712 405.652 63.502C406.167 63.3262 406.746 63.2383 407.391 63.2383C408.289 63.2383 409.061 63.3848 409.705 63.6777C410.356 63.9707 410.854 64.3743 411.199 64.8887C411.544 65.3965 411.717 65.9694 411.717 66.6074H409.139C409.139 66.3275 409.074 66.0736 408.943 65.8457C408.82 65.6178 408.628 65.4355 408.367 65.2988C408.107 65.1556 407.778 65.084 407.381 65.084C407.023 65.084 406.72 65.1426 406.473 65.2598C406.232 65.377 406.049 65.5299 405.926 65.7188C405.802 65.9076 405.74 66.1159 405.74 66.3438C405.74 66.513 405.773 66.666 405.838 66.8027C405.91 66.9329 406.023 67.0534 406.18 67.1641C406.336 67.2747 406.548 67.3757 406.814 67.4668C407.088 67.5579 407.423 67.6458 407.82 67.7305C408.608 67.8867 409.295 68.0951 409.881 68.3555C410.473 68.6094 410.936 68.9479 411.268 69.3711C411.6 69.7943 411.766 70.3346 411.766 70.9922C411.766 71.4609 411.665 71.8906 411.463 72.2812C411.261 72.6654 410.968 73.0007 410.584 73.2871C410.2 73.5736 409.741 73.7982 409.207 73.9609C408.673 74.1172 408.071 74.1953 407.4 74.1953C406.43 74.1953 405.61 74.0228 404.939 73.6777C404.269 73.3262 403.761 72.8835 403.416 72.3496C403.071 71.8092 402.898 71.2493 402.898 70.6699H405.369C405.389 71.0801 405.499 71.4089 405.701 71.6562C405.903 71.9036 406.157 72.0827 406.463 72.1934C406.775 72.2975 407.104 72.3496 407.449 72.3496C407.84 72.3496 408.169 72.2975 408.436 72.1934C408.702 72.0827 408.904 71.9362 409.041 71.7539C409.178 71.5651 409.246 71.3503 409.246 71.1094Z" fill="black"/>
<rect x="242" y="114" width="12" height="41" fill="#4E3E70"/>
<rect x="258" y="95" width="12" height="60" fill="#6A2FEA"/>
<rect x="274" y="136" width="12" height="19" fill="#1B0057"/>
<rect x="290" y="105" width="12" height="50" fill="#4E3E70"/>
<rect x="306" y="95" width="12" height="60" fill="#6A2FEA"/>
<rect x="322" y="114" width="12" height="41" fill="#4E3E70"/>
<rect x="338" y="136" width="12" height="19" fill="#1B0057"/>
<rect x="354" y="105" width="12" height="50" fill="#4E3E70"/>
<rect x="370" y="114" width="12" height="41" fill="#4E3E70"/>
<rect x="386" y="95" width="12" height="60" fill="#6A2FEA"/>
<rect x="402" y="136" width="12" height="19" fill="#1B0057"/>
<rect x="418" y="105" width="12" height="50" fill="#4E3E70"/>
</g>
<defs>
<filter id="filter0_dd_1_1058" x="0" y="153" width="516" height="352" filterUnits="userSpaceOnUse" color-interpolation-filters="sRGB">
<feFlood flood-opacity="0" result="BackgroundImageFix"/>
<feColorMatrix in="SourceAlpha" type="matrix" values="0 0 0 0 0 0 0 0 0 0 0 0 0 0 0 0 0 0 127 0" result="hardAlpha"/>
<feMorphology radius="4" operator="erode" in="SourceAlpha" result="effect1_dropShadow_1_1058"/>
<feOffset dy="18"/>
<feGaussianBlur stdDeviation="44"/>
<feColorMatrix type="matrix" values="0 0 0 0 0.0941176 0 0 0 0 0.152941 0 0 0 0 0.294118 0 0 0 0.14 0"/>
<feBlend mode="normal" in2="BackgroundImageFix" result="effect1_dropShadow_1_1058"/>
<feColorMatrix in="SourceAlpha" type="matrix" values="0 0 0 0 0 0 0 0 0 0 0 0 0 0 0 0 0 0 127 0" result="hardAlpha"/>
<feMorphology radius="6" operator="erode" in="SourceAlpha" result="effect2_dropShadow_1_1058"/>
<feOffset dy="8"/>
<feGaussianBlur stdDeviation="14"/>
<feColorMatrix type="matrix" values="0 0 0 0 0.0941176 0 0 0 0 0.152941 0 0 0 0 0.294118 0 0 0 0.12 0"/>
<feBlend mode="normal" in2="effect1_dropShadow_1_1058" result="effect2_dropShadow_1_1058"/>
<feBlend mode="normal" in="SourceGraphic" in2="effect2_dropShadow_1_1058" result="shape"/>
</filter>
<filter id="filter1_dd_1_1058" x="198" y="20" width="276" height="187" filterUnits="userSpaceOnUse" color-interpolation-filters="sRGB">
<feFlood flood-opacity="0" result="BackgroundImageFix"/>
<feColorMatrix in="SourceAlpha" type="matrix" values="0 0 0 0 0 0 0 0 0 0 0 0 0 0 0 0 0 0 127 0" result="hardAlpha"/>
<feMorphology radius="4" operator="erode" in="SourceAlpha" result="effect1_dropShadow_1_1058"/>
<feOffset dy="8"/>
<feGaussianBlur stdDeviation="12"/>
<feColorMatrix type="matrix" values="0 0 0 0 0.0941176 0 0 0 0 0.152941 0 0 0 0 0.294118 0 0 0 0.08 0"/>
<feBlend mode="normal" in2="BackgroundImageFix" result="effect1_dropShadow_1_1058"/>
<feColorMatrix in="SourceAlpha" type="matrix" values="0 0 0 0 0 0 0 0 0 0 0 0 0 0 0 0 0 0 127 0" result="hardAlpha"/>
<feMorphology radius="6" operator="erode" in="SourceAlpha" result="effect2_dropShadow_1_1058"/>
<feOffset dy="6"/>
<feGaussianBlur stdDeviation="6"/>
<feColorMatrix type="matrix" values="0 0 0 0 0.0941176 0 0 0 0 0.152941 0 0 0 0 0.294118 0 0 0 0.12 0"/>
<feBlend mode="normal" in2="effect1_dropShadow_1_1058" result="effect2_dropShadow_1_1058"/>
<feBlend mode="normal" in="SourceGraphic" in2="effect2_dropShadow_1_1058" result="shape"/>
</filter>
<linearGradient id="paint0_linear_1_1058" x1="246" y1="553.503" x2="246" y2="894.43" gradientUnits="userSpaceOnUse">
<stop stop-color="#6C2FED" stop-opacity="0.48"/>
<stop offset="0.469765" stop-color="#6C2FED" stop-opacity="0"/>
<stop offset="1" stop-color="#2F37ED" stop-opacity="0.1"/>
</linearGradient>
<linearGradient id="paint1_linear_1_1058" x1="428" y1="-27" x2="428" y2="567" gradientUnits="userSpaceOnUse">
<stop stop-color="#6C2FED" stop-opacity="0.48"/>
<stop offset="0.469765" stop-color="#6C2FED" stop-opacity="0"/>
<stop offset="1" stop-color="#2F37ED" stop-opacity="0.1"/>
</linearGradient>
<linearGradient id="paint2_linear_1_1058" x1="168" y1="152.503" x2="168" y2="493.43" gradientUnits="userSpaceOnUse">
<stop stop-color="#6C2FED" stop-opacity="0.48"/>
<stop offset="0.469765" stop-color="#6C2FED" stop-opacity="0"/>
<stop offset="1" stop-color="#2F37ED" stop-opacity="0.1"/>
</linearGradient>
<linearGradient id="paint3_linear_1_1058" x1="296" y1="463" x2="296" y2="1057" gradientUnits="userSpaceOnUse">
<stop stop-color="#6C2FED" stop-opacity="0.48"/>
<stop offset="0.469765" stop-color="#6C2FED" stop-opacity="0"/>
<stop offset="1" stop-color="#2F37ED" stop-opacity="0.1"/>
</linearGradient>
</defs>
</svg>
