<svg width="312" height="229" viewBox="0 0 312 229" fill="none" xmlns="http://www.w3.org/2000/svg">
<g clip-path="url(#clip0_1_1184)">
<rect width="312" height="229" fill="#F7F4FF"/>
<rect x="-32.373" y="64.5098" width="66.5198" height="66.5198" rx="13.004" transform="rotate(-17.4586 -32.373 64.5098)" fill="white"/>
<path d="M3.30807 95.232C5.42473 96.3358 9.15163 96.9332 12.3721 95.9203C16.3977 94.6543 20.1701 92.5831 18.904 88.5575C17.6379 84.5319 13.4388 84.9678 9.33354 86.2589C5.30795 87.525 1.02915 87.9859 -0.236917 83.9604C-1.50298 79.9348 2.26939 77.8636 6.29498 76.5975C9.51545 75.5847 13.2423 76.182 15.359 77.2859M4.7757 71.7668L13.8914 100.751" stroke="#6B2FEC" stroke-width="5.06398"/>
<rect x="-32.373" y="64.5098" width="66.5198" height="66.5198" rx="13.004" transform="rotate(-17.4586 -32.373 64.5098)" stroke="#6B2FEC"/>
<rect x="65.2735" y="104.813" width="66.5198" height="66.5198" rx="13.004" transform="rotate(-17.4586 65.2735 104.813)" fill="white"/>
<path d="M113.049 114.92C111.991 114.368 109.069 113.518 105.848 114.53C97.7972 117.063 97.9595 123.205 99.732 128.841C101.504 134.476 104.887 139.606 112.938 137.074C116.159 136.061 118.068 133.691 118.62 132.633M92.8301 126.587L108.932 121.523M95.3622 134.639L111.465 129.574" stroke="#6B2FEC" stroke-width="5.06398"/>
<rect x="65.2735" y="104.813" width="66.5198" height="66.5198" rx="13.004" transform="rotate(-17.4586 65.2735 104.813)" stroke="#6B2FEC"/>
<rect x="162.722" y="144.712" width="66.5198" height="66.5198" rx="13.004" transform="rotate(-17.4586 162.722 144.712)" fill="white"/>
<path d="M218.14 176.304C218.14 176.304 201.232 181.622 198.817 182.381C199.176 182.268 203.946 178.998 202.427 174.168C201.884 172.44 201.332 170.687 200.401 167.727M210.135 155.818C208.793 154.428 206.277 151.723 202.473 152.919C198.67 154.115 197.363 158.065 198.882 162.896C199.17 163.813 200.03 166.548 200.401 167.727M200.401 167.727L194.765 169.499M200.401 167.727L207.647 165.448" stroke="#6B2FEC" stroke-width="5.06398"/>
<rect x="162.722" y="144.712" width="66.5198" height="66.5198" rx="13.004" transform="rotate(-17.4586 162.722 144.712)" stroke="#6B2FEC"/>
<rect x="220.143" y="56.3285" width="66.5198" height="66.5198" rx="13.004" transform="rotate(-17.4586 220.143 56.3285)" fill="white"/>
<path d="M264.814 76.2598L252.738 80.058M264.814 76.2598V76.2598C267.038 75.5605 268.273 73.1914 267.574 70.9681V70.9681C266.875 68.7448 264.506 67.5094 262.282 68.2086L261.477 68.4618M264.814 76.2598L265.62 76.0066C268.288 75.1675 271.13 76.6501 271.97 79.318V79.318C272.809 81.9859 271.326 84.8289 268.658 85.668L267.048 86.1744M252.738 80.058L250.206 72.0068L255.036 70.4875M252.738 80.058L255.776 89.7194L260.607 88.2001M255.036 70.4875L253.264 64.8517M255.036 70.4875L261.477 68.4618M261.477 68.4618L259.705 62.826M260.607 88.2001L267.048 86.1744M260.607 88.2001L262.379 93.8359M267.048 86.1744L268.82 91.8102" stroke="#6B2FEC" stroke-width="5.06398"/>
<rect x="220.143" y="56.3285" width="66.5198" height="66.5198" rx="13.004" transform="rotate(-17.4586 220.143 56.3285)" stroke="#6B2FEC"/>
<rect x="260.273" y="184.813" width="66.5198" height="66.5198" rx="13.004" transform="rotate(-17.4586 260.273 184.813)" fill="white"/>
<path d="M308.049 194.92C306.99 194.368 304.069 193.518 300.848 194.53C292.797 197.063 292.959 203.205 294.732 208.841C296.504 214.476 299.887 219.606 307.938 217.074C311.158 216.061 313.067 213.691 313.619 212.633M287.83 206.587L303.932 201.523M290.362 214.639L306.464 209.574" stroke="#6B2FEC" stroke-width="5.06398"/>
<rect x="260.273" y="184.813" width="66.5198" height="66.5198" rx="13.004" transform="rotate(-17.4586 260.273 184.813)" stroke="#6B2FEC"/>
<rect x="105.69" y="233.43" width="66.5198" height="66.5198" rx="13.004" transform="rotate(-17.4586 105.69 233.43)" fill="white"/>
<rect x="105.69" y="233.43" width="66.5198" height="66.5198" rx="13.004" transform="rotate(-17.4586 105.69 233.43)" stroke="#6B2FEC"/>
<rect x="8.14214" y="193.329" width="66.5198" height="66.5198" rx="13.004" transform="rotate(-17.4586 8.14214 193.329)" fill="white"/>
<path d="M52.814 213.26L40.7372 217.058M52.814 213.26V213.26C55.0373 212.561 56.2727 210.192 55.5735 207.968V207.968C54.8743 205.745 52.5051 204.509 50.2819 205.209L49.4767 205.462M52.814 213.26L53.6191 213.007C56.287 212.168 59.13 213.65 59.9691 216.318V216.318C60.8082 218.986 59.3256 221.829 56.6577 222.668L55.0474 223.175M40.7372 217.058L38.2051 209.007L43.0358 207.488M40.7372 217.058L43.7758 226.719L48.6065 225.2M43.0358 207.488L41.2633 201.852M43.0358 207.488L49.4767 205.462M49.4767 205.462L47.7043 199.826M48.6065 225.2L55.0474 223.175M48.6065 225.2L50.379 230.836M55.0474 223.175L56.8199 228.81" stroke="#6B2FEC" stroke-width="5.06398"/>
<rect x="8.14214" y="193.329" width="66.5198" height="66.5198" rx="13.004" transform="rotate(-17.4586 8.14214 193.329)" stroke="#6B2FEC"/>
<rect x="122.21" y="15.8929" width="66.5198" height="66.5198" rx="13.004" transform="rotate(-17.4586 122.21 15.8929)" fill="white"/>
<g clip-path="url(#clip1_1_1184)">
<g clip-path="url(#clip2_1_1184)">
<rect opacity="0.2" x="147.087" y="28.8667" width="26.8391" height="26.8391" transform="rotate(-17.4586 147.087 28.8667)" stroke="#FF35D3" stroke-width="0.168799"/>
<rect opacity="0.2" x="153.437" y="32.1781" width="16.7111" height="16.7111" transform="rotate(-17.4586 153.437 32.1781)" stroke="#FF35D3" stroke-width="0.168799"/>
<rect opacity="0.2" x="149.802" y="26.2437" width="20.0871" height="30.2151" transform="rotate(-17.4586 149.802 26.2437)" stroke="#FF35D3" stroke-width="0.168799"/>
<rect opacity="0.2" x="175.313" y="23.5286" width="20.0871" height="30.2151" transform="rotate(72.5414 175.313 23.5286)" stroke="#FF35D3" stroke-width="0.168799"/>
<circle opacity="0.2" cx="163.915" cy="37.6421" r="16.7955" transform="rotate(-17.4586 163.915 37.6421)" stroke="#FF35D3" stroke-width="0.168799"/>
<circle opacity="0.2" cx="163.915" cy="37.6421" r="4.97958" transform="rotate(-17.4586 163.915 37.6421)" stroke="#FF35D3" stroke-width="0.168799"/>
<circle opacity="0.2" cx="163.915" cy="37.6421" r="11.7316" transform="rotate(-17.4586 163.915 37.6421)" stroke="#FF35D3" stroke-width="0.168799"/>
<line opacity="0.2" x1="147.021" y1="28.7367" x2="180.887" y2="46.3976" stroke="#FF35D3" stroke-width="0.168799"/>
<line opacity="0.2" x1="145.672" y1="43.2912" x2="182.107" y2="31.8321" stroke="#FF35D3" stroke-width="0.168799"/>
<line opacity="0.2" x1="172.82" y1="20.7478" x2="155.159" y2="54.6144" stroke="#FF35D3" stroke-width="0.168799"/>
<line opacity="0.2" x1="158.266" y1="19.399" x2="169.725" y2="55.8345" stroke="#FF35D3" stroke-width="0.168799"/>
</g>
<path d="M159.11 53.3094L151.767 29.961L152.572 29.7078L175.258 45.5765L176.063 45.3233L168.72 21.9749M148.157 38.1744L177.141 29.0587M150.689 46.2256L179.673 37.1099" stroke="#6B2FEC" stroke-width="5.06398"/>
</g>
<rect x="122.21" y="15.8929" width="66.5198" height="66.5198" rx="13.004" transform="rotate(-17.4586 122.21 15.8929)" stroke="#6B2FEC"/>
</g>
<defs>
<clipPath id="clip0_1_1184">
<rect width="312" height="229" fill="white"/>
</clipPath>
<clipPath id="clip1_1_1184">
<rect width="40.5119" height="40.5119" fill="white" transform="translate(138.515 24.3964) rotate(-17.4586)"/>
</clipPath>
<clipPath id="clip2_1_1184">
<rect width="40.5119" height="40.5119" fill="white" transform="translate(138.515 24.3964) rotate(-17.4586)"/>
</clipPath>
</defs>
</svg>
