<svg width="325" height="300" viewBox="0 0 325 300" fill="none" xmlns="http://www.w3.org/2000/svg">
<g clip-path="url(#clip0_1_1117)">
<rect width="325" height="300" fill="#F7F4FF"/>
<g filter="url(#filter0_dd_1_1117)">
<g clip-path="url(#clip1_1_1117)">
<rect x="132" y="143.275" width="163.538" height="223.056" rx="8.90001" transform="rotate(-20.8756 132 143.275)" fill="#6C2FED"/>
<path d="M169.266 297.19L82.0128 68.4046L228.578 12.5083L241.828 47.2506L136.708 87.3409L160.395 149.453L255.462 113.197L268.712 147.939L173.645 184.195L210.711 281.384L169.266 297.19Z" fill="#8348FF"/>
<path d="M292.083 332.892L234.788 182.658L331.032 145.953L339.732 168.767L270.704 195.093L286.258 235.879L348.685 212.071L357.385 234.885L294.959 258.693L319.298 322.513L292.083 332.892Z" fill="#8348FF"/>
<path d="M148.802 151.671L149.196 152.704L145.845 153.982L145.45 152.949L148.802 151.671ZM148.451 158.299L146.084 152.094C145.939 151.713 145.896 151.365 145.957 151.052C146.021 150.737 146.162 150.466 146.383 150.238C146.603 150.01 146.877 149.834 147.204 149.709C147.436 149.621 147.648 149.561 147.842 149.53C148.036 149.498 148.181 149.48 148.278 149.477L148.407 150.612C148.344 150.616 148.266 150.626 148.173 150.642C148.079 150.655 147.98 150.682 147.874 150.722C147.625 150.817 147.472 150.944 147.415 151.104C147.359 151.261 147.373 151.45 147.458 151.672L149.791 157.788L148.451 158.299ZM150.464 148.872L153.347 156.432L152.011 156.941L149.128 149.382L150.464 148.872ZM157.237 155.075C156.683 155.286 156.157 155.348 155.658 155.259C155.159 155.17 154.714 154.949 154.323 154.597C153.934 154.243 153.628 153.774 153.405 153.188C153.182 152.602 153.097 152.047 153.15 151.522C153.206 150.996 153.391 150.534 153.704 150.135C154.017 149.737 154.45 149.432 155.004 149.221C155.558 149.01 156.084 148.948 156.583 149.037C157.082 149.126 157.526 149.348 157.916 149.704C158.308 150.06 158.615 150.53 158.839 151.116C159.062 151.701 159.145 152.256 159.088 152.779C159.034 153.302 158.85 153.762 158.537 154.161C158.224 154.559 157.79 154.864 157.237 155.075ZM156.836 154.002C157.136 153.887 157.356 153.709 157.495 153.467C157.633 153.223 157.697 152.942 157.689 152.624C157.683 152.305 157.614 151.973 157.482 151.629C157.35 151.282 157.18 150.987 156.972 150.745C156.766 150.5 156.53 150.332 156.264 150.241C155.999 150.151 155.716 150.163 155.415 150.277C155.108 150.395 154.884 150.576 154.743 150.821C154.605 151.066 154.54 151.348 154.547 151.67C154.555 151.988 154.626 152.32 154.758 152.667C154.89 153.012 155.058 153.306 155.263 153.549C155.471 153.791 155.708 153.957 155.974 154.047C156.241 154.134 156.528 154.119 156.836 154.002ZM162.053 153.112L158.289 148.053L159.651 147.533L162.168 151.14L162.22 151.12L161.718 146.745L163.065 146.231L165.596 149.807L165.651 149.786L165.121 145.447L166.487 144.926L167.044 151.208L165.652 151.739L163.128 148.313L163.05 148.342L163.448 152.579L162.053 153.112ZM171.936 149.469C171.37 149.685 170.836 149.746 170.335 149.653C169.837 149.558 169.395 149.334 169.009 148.979C168.624 148.621 168.322 148.155 168.104 147.582C167.884 147.006 167.801 146.456 167.855 145.931C167.907 145.403 168.088 144.94 168.398 144.54C168.709 144.136 169.142 143.829 169.695 143.618C170.156 143.442 170.595 143.372 171.014 143.407C171.435 143.438 171.81 143.567 172.139 143.794C172.467 144.018 172.723 144.329 172.909 144.726L171.632 145.213C171.476 144.96 171.266 144.779 171.002 144.671C170.74 144.56 170.447 144.566 170.125 144.689C169.852 144.793 169.64 144.958 169.49 145.185C169.338 145.409 169.257 145.679 169.245 145.997C169.236 146.313 169.305 146.662 169.45 147.043C169.597 147.43 169.781 147.74 170 147.975C170.218 148.208 170.458 148.36 170.72 148.432C170.983 148.501 171.253 148.482 171.531 148.376C171.728 148.301 171.89 148.197 172.017 148.064C172.145 147.928 172.235 147.768 172.287 147.585C172.338 147.402 172.344 147.201 172.306 146.982L173.583 146.494C173.704 146.908 173.722 147.308 173.636 147.696C173.549 148.082 173.363 148.429 173.077 148.738C172.791 149.045 172.41 149.288 171.936 149.469ZM177.095 147.506C176.735 147.643 176.387 147.703 176.051 147.684C175.715 147.663 175.416 147.557 175.152 147.368C174.89 147.177 174.689 146.896 174.547 146.524C174.425 146.204 174.383 145.917 174.421 145.663C174.46 145.409 174.557 145.18 174.713 144.977C174.87 144.773 175.064 144.591 175.295 144.429C175.528 144.264 175.777 144.114 176.041 143.98C176.361 143.819 176.618 143.685 176.815 143.579C177.01 143.471 177.143 143.369 177.214 143.275C177.287 143.176 177.299 143.063 177.25 142.935L177.241 142.913C177.135 142.635 176.971 142.451 176.748 142.362C176.525 142.272 176.258 142.286 175.948 142.404C175.621 142.529 175.388 142.7 175.251 142.916C175.116 143.131 175.052 143.348 175.06 143.568L173.745 143.866C173.712 143.484 173.764 143.134 173.902 142.817C174.04 142.497 174.25 142.216 174.533 141.976C174.815 141.733 175.155 141.536 175.551 141.385C175.824 141.281 176.108 141.209 176.403 141.17C176.698 141.13 176.986 141.142 177.266 141.204C177.545 141.264 177.801 141.394 178.032 141.593C178.265 141.791 178.454 142.079 178.597 142.455L180.045 146.25L178.76 146.74L178.463 145.961L178.419 145.978C178.398 146.166 178.339 146.358 178.244 146.552C178.151 146.743 178.009 146.922 177.82 147.09C177.632 147.255 177.39 147.394 177.095 147.506ZM177.067 146.392C177.335 146.29 177.548 146.148 177.704 145.967C177.86 145.784 177.957 145.583 177.995 145.366C178.036 145.147 178.016 144.934 177.936 144.724L177.682 144.056C177.653 144.107 177.594 144.166 177.504 144.234C177.417 144.301 177.316 144.369 177.201 144.438C177.087 144.507 176.973 144.573 176.858 144.636C176.744 144.7 176.646 144.754 176.562 144.8C176.373 144.904 176.211 145.016 176.077 145.137C175.943 145.259 175.852 145.393 175.803 145.538C175.753 145.681 175.761 145.839 175.827 146.011C175.921 146.257 176.081 146.409 176.309 146.466C176.536 146.523 176.789 146.498 177.067 146.392ZM181.388 145.738L179.226 140.068L180.522 139.574L180.882 140.519L180.941 140.496C180.92 140.129 181.001 139.81 181.184 139.537C181.369 139.26 181.624 139.06 181.949 138.936C182.022 138.908 182.106 138.88 182.2 138.853C182.296 138.822 182.376 138.801 182.443 138.79L182.911 140.019C182.847 140.021 182.751 140.038 182.622 140.071C182.495 140.099 182.375 140.135 182.262 140.178C182.018 140.271 181.819 140.408 181.665 140.588C181.513 140.764 181.416 140.966 181.376 141.193C181.335 141.42 181.361 141.654 181.453 141.895L182.725 145.228L181.388 145.738ZM187.418 143.552C186.973 143.722 186.53 143.76 186.091 143.665C185.652 143.57 185.247 143.344 184.877 142.986C184.507 142.629 184.203 142.139 183.965 141.516C183.725 140.886 183.626 140.315 183.667 139.803C183.71 139.288 183.867 138.852 184.137 138.495C184.406 138.136 184.758 137.873 185.193 137.707C185.526 137.581 185.82 137.533 186.078 137.565C186.334 137.594 186.555 137.663 186.74 137.773C186.925 137.88 187.078 137.989 187.2 138.101L187.255 138.08L186.177 135.252L187.517 134.741L190.4 142.301L189.086 142.802L188.745 141.909L188.664 141.94C188.647 142.104 188.603 142.288 188.532 142.493C188.46 142.695 188.337 142.891 188.165 143.081C187.992 143.271 187.743 143.428 187.418 143.552ZM187.373 142.314C187.656 142.206 187.868 142.037 188.009 141.809C188.149 141.578 188.219 141.305 188.217 140.99C188.215 140.675 188.144 140.334 188.004 139.967C187.865 139.6 187.691 139.301 187.485 139.07C187.281 138.838 187.05 138.685 186.794 138.611C186.54 138.536 186.269 138.553 185.981 138.663C185.683 138.776 185.464 138.949 185.324 139.18C185.183 139.411 185.115 139.682 185.118 139.994C185.122 140.305 185.19 140.637 185.324 140.989C185.46 141.344 185.631 141.641 185.838 141.88C186.046 142.116 186.281 142.276 186.541 142.36C186.803 142.441 187.08 142.425 187.373 142.314Z" fill="white"/>
<path d="M196.911 307.239L345.556 250.55L359.034 285.892C360.348 289.336 358.621 293.194 355.176 294.507L219.005 346.439C215.561 347.753 211.704 346.026 210.39 342.581L196.911 307.239Z" fill="white"/>
<path d="M237.563 307.646L238.529 307.278L241.843 311.112L241.757 306.047L242.728 305.677L242.786 312.426L242.01 312.722L237.563 307.646ZM237.076 307.832L238.022 307.471L239.752 311.495L240.447 313.318L239.33 313.744L237.076 307.832ZM242.265 305.853L243.215 305.491L245.47 311.403L244.353 311.829L243.658 310.005L242.265 305.853ZM246.07 306.141L247.746 310.535L246.67 310.945L244.994 306.552L246.07 306.141ZM244.483 305.431C244.422 305.271 244.425 305.118 244.493 304.971C244.564 304.823 244.693 304.713 244.88 304.642C245.066 304.571 245.234 304.567 245.383 304.632C245.534 304.695 245.64 304.806 245.701 304.966C245.761 305.123 245.755 305.275 245.685 305.423C245.617 305.57 245.489 305.679 245.302 305.75C245.116 305.822 244.947 305.826 244.795 305.762C244.647 305.698 244.543 305.588 244.483 305.431ZM247.544 303.463L249.924 309.704L248.852 310.113L246.472 303.872L247.544 303.463ZM251.001 304.261L249.908 307.138L249.274 308.585L248.615 307.882L249.031 306.57L249.706 304.755L251.001 304.261ZM251.581 309.072L249.44 307.544L249.89 306.578L252.823 308.598L251.581 309.072ZM255.252 307.765C254.919 307.892 254.599 307.952 254.292 307.945C253.986 307.938 253.703 307.874 253.442 307.753C253.184 307.628 252.956 307.456 252.758 307.237C252.561 307.015 252.406 306.754 252.292 306.457L252.23 306.294C252.101 305.956 252.033 305.63 252.025 305.317C252.016 305.001 252.063 304.709 252.165 304.44C252.267 304.172 252.422 303.936 252.63 303.733C252.838 303.529 253.092 303.37 253.392 303.256C253.704 303.137 253.999 303.085 254.277 303.1C254.555 303.112 254.809 303.182 255.041 303.311C255.273 303.439 255.48 303.621 255.663 303.855C255.844 304.087 255.996 304.362 256.118 304.682L256.289 305.132L252.846 306.445L252.564 305.706L254.952 304.796L254.921 304.715C254.85 304.546 254.759 304.403 254.645 304.285C254.531 304.164 254.396 304.086 254.239 304.049C254.082 304.01 253.904 304.028 253.706 304.103C253.547 304.164 253.421 304.253 253.328 304.369C253.238 304.481 253.178 304.615 253.148 304.772C253.119 304.926 253.119 305.096 253.147 305.284C253.176 305.472 253.23 305.671 253.31 305.882L253.372 306.045C253.443 306.229 253.532 306.39 253.641 306.529C253.752 306.666 253.878 306.774 254.02 306.853C254.164 306.929 254.317 306.973 254.48 306.985C254.644 306.994 254.816 306.964 254.995 306.896C255.219 306.81 255.406 306.689 255.554 306.534C255.704 306.374 255.814 306.182 255.883 305.957L256.637 306.311C256.596 306.482 256.521 306.659 256.412 306.844C256.305 307.027 256.157 307.2 255.968 307.362C255.777 307.521 255.539 307.656 255.252 307.765ZM256.564 300.028L258.942 306.265L257.866 306.675L255.487 300.438L256.564 300.028ZM261.191 302.942L261.158 302.857C261.036 302.535 260.968 302.221 260.957 301.915C260.945 301.606 260.989 301.318 261.088 301.051C261.188 300.784 261.344 300.546 261.556 300.338C261.767 300.127 262.035 299.96 262.36 299.836C262.69 299.71 263.004 299.655 263.302 299.672C263.601 299.685 263.877 299.758 264.13 299.891C264.382 300.024 264.606 300.21 264.803 300.448C264.998 300.684 265.157 300.963 265.28 301.285L265.312 301.37C265.434 301.69 265.501 302.004 265.513 302.312C265.525 302.618 265.481 302.906 265.382 303.176C265.283 303.443 265.127 303.681 264.915 303.889C264.703 304.097 264.433 304.264 264.105 304.389C263.78 304.513 263.468 304.568 263.169 304.555C262.869 304.542 262.593 304.469 262.341 304.336C262.088 304.2 261.863 304.014 261.668 303.779C261.472 303.54 261.313 303.261 261.191 302.942ZM262.23 302.448L262.263 302.533C262.336 302.725 262.424 302.898 262.526 303.052C262.628 303.205 262.742 303.33 262.869 303.428C262.996 303.525 263.136 303.586 263.288 303.612C263.442 303.634 263.607 303.611 263.783 303.544C263.956 303.478 264.092 303.386 264.19 303.268C264.286 303.148 264.35 303.009 264.38 302.852C264.412 302.693 264.415 302.523 264.389 302.341C264.363 302.159 264.314 301.971 264.24 301.779L264.208 301.694C264.135 301.504 264.049 301.334 263.948 301.184C263.846 301.03 263.73 300.905 263.601 300.809C263.473 300.709 263.331 300.647 263.176 300.622C263.022 300.594 262.858 300.613 262.682 300.681C262.509 300.747 262.374 300.841 262.279 300.965C262.182 301.085 262.119 301.225 262.09 301.385C262.06 301.542 262.058 301.712 262.084 301.894C262.109 302.074 262.158 302.258 262.23 302.448ZM264.613 296.958L265.689 296.548L267.698 301.814L267.962 302.825L266.992 303.195L264.613 296.958ZM270.039 299.465L270.071 299.551C270.196 299.878 270.274 300.193 270.306 300.494C270.339 300.794 270.323 301.072 270.256 301.327C270.188 301.579 270.068 301.801 269.896 301.994C269.727 302.183 269.499 302.331 269.215 302.44C268.945 302.543 268.689 302.58 268.448 302.551C268.21 302.521 267.987 302.435 267.779 302.295C267.569 302.151 267.373 301.964 267.192 301.732C267.01 301.498 266.838 301.232 266.678 300.933L266.59 300.702C266.509 300.37 266.46 300.057 266.441 299.763C266.422 299.47 266.443 299.2 266.504 298.953C266.565 298.706 266.674 298.493 266.832 298.312C266.989 298.131 267.202 297.989 267.47 297.887C267.757 297.778 268.028 297.738 268.284 297.767C268.542 297.793 268.78 297.879 268.997 298.026C269.216 298.168 269.412 298.363 269.587 298.61C269.763 298.853 269.914 299.138 270.039 299.465ZM268.995 299.961L268.963 299.876C268.892 299.689 268.81 299.519 268.717 299.365C268.623 299.208 268.518 299.079 268.402 298.978C268.286 298.877 268.156 298.812 268.011 298.783C267.867 298.754 267.707 298.773 267.531 298.84C267.363 298.904 267.23 298.988 267.133 299.09C267.038 299.191 266.971 299.307 266.931 299.437C266.893 299.566 266.878 299.706 266.887 299.858C266.898 300.009 266.926 300.166 266.973 300.328L267.214 300.961C267.313 301.162 267.429 301.334 267.563 301.475C267.697 301.613 267.851 301.704 268.026 301.749C268.204 301.793 268.404 301.772 268.626 301.688C268.799 301.622 268.931 301.533 269.022 301.421C269.111 301.306 269.166 301.173 269.187 301.023C269.206 300.87 269.197 300.704 269.16 300.526C269.126 300.347 269.071 300.159 268.995 299.961ZM271.218 296.551L272.893 300.944L271.817 301.354L270.142 296.961L271.218 296.551ZM269.631 295.84C269.57 295.68 269.573 295.527 269.641 295.38C269.712 295.232 269.841 295.122 270.027 295.051C270.214 294.98 270.382 294.977 270.53 295.041C270.682 295.104 270.788 295.216 270.849 295.375C270.909 295.532 270.903 295.685 270.832 295.833C270.764 295.979 270.637 296.089 270.45 296.16C270.263 296.231 270.094 296.235 269.943 296.172C269.795 296.107 269.69 295.997 269.631 295.84Z" fill="#6C2FED"/>
<path d="M203.136 292.844L202.549 285.031L204.583 284.255L204.877 294.301L203.537 294.812L203.136 292.844ZM198.535 286.562L203.294 292.784L204.317 294.515L202.965 295.03L196.513 287.333L198.535 286.562ZM207.355 283.198L210.737 292.066L208.915 292.761L205.533 283.893L207.355 283.198ZM216.18 287.333C216.119 287.174 216.041 287.041 215.944 286.934C215.85 286.821 215.72 286.736 215.554 286.678C215.386 286.617 215.168 286.577 214.901 286.558C214.633 286.539 214.297 286.541 213.892 286.566C213.44 286.589 213.003 286.588 212.58 286.564C212.16 286.538 211.772 286.47 211.414 286.36C211.058 286.244 210.746 286.072 210.478 285.845C210.213 285.615 210.008 285.31 209.863 284.928C209.722 284.558 209.675 284.192 209.723 283.83C209.769 283.464 209.898 283.117 210.108 282.79C210.317 282.459 210.598 282.159 210.951 281.89C211.308 281.619 211.726 281.392 212.205 281.209C212.859 280.96 213.474 280.86 214.051 280.91C214.628 280.959 215.129 281.138 215.553 281.446C215.982 281.752 216.297 282.17 216.498 282.697L214.683 283.39C214.584 283.13 214.442 282.923 214.258 282.77C214.077 282.611 213.855 282.517 213.592 282.487C213.334 282.455 213.04 282.502 212.711 282.628C212.394 282.748 212.149 282.898 211.975 283.076C211.8 283.25 211.69 283.438 211.646 283.641C211.601 283.839 211.617 284.038 211.692 284.237C211.75 284.387 211.838 284.509 211.958 284.603C212.081 284.696 212.238 284.766 212.429 284.814C212.619 284.863 212.842 284.892 213.097 284.901C213.352 284.911 213.64 284.906 213.963 284.885C214.502 284.847 214.989 284.85 215.424 284.893C215.863 284.935 216.25 285.022 216.584 285.155C216.919 285.288 217.204 285.475 217.44 285.715C217.675 285.955 217.863 286.258 218.002 286.624C218.149 287.009 218.206 287.383 218.172 287.745C218.138 288.107 218.019 288.447 217.815 288.767C217.611 289.086 217.334 289.376 216.982 289.636C216.629 289.896 216.21 290.119 215.723 290.305C215.284 290.472 214.83 290.58 214.36 290.629C213.889 290.674 213.434 290.645 212.995 290.542C212.56 290.439 212.169 290.243 211.823 289.957C211.476 289.671 211.208 289.278 211.017 288.778L212.851 288.079C212.956 288.355 213.088 288.572 213.246 288.731C213.404 288.889 213.582 288.998 213.782 289.056C213.985 289.114 214.204 289.128 214.439 289.099C214.679 289.068 214.928 289.003 215.188 288.904C215.505 288.783 215.748 288.639 215.917 288.472C216.09 288.304 216.195 288.122 216.232 287.927C216.273 287.73 216.256 287.532 216.18 287.333ZM220.936 279.756L221.328 288.027L219.385 288.768L219.298 278.643L220.535 278.172L220.936 279.756ZM225.744 286.343L220.522 279.914L219.749 278.472L220.998 277.995L227.693 285.6L225.744 286.343ZM224.375 283.084L224.921 284.515L220.238 286.301L219.692 284.87L224.375 283.084Z" fill="white"/>
<rect x="263.504" y="103.045" width="17.0583" height="28.925" rx="2.59584" transform="rotate(-20.8756 263.504 103.045)" stroke="white" stroke-width="0.741668"/>
<path d="M269.049 100.93L272.353 109.592L267.734 114.132L269.584 118.983L276.053 119.294L279.356 127.956L284.207 126.106L280.903 117.444L285.522 112.904L283.672 108.054L277.203 107.742L274.032 99.4266" stroke="white" stroke-width="0.741668"/>
<mask id="path-10-inside-1_1_1117" fill="white">
<path d="M280.465 143.409C281.576 144.313 282.905 144.908 284.319 145.135C285.733 145.362 287.182 145.213 288.52 144.703C289.858 144.192 291.038 143.339 291.942 142.228C292.846 141.117 293.441 139.788 293.668 138.374L292.862 138.244C292.658 139.517 292.122 140.713 291.309 141.713C290.496 142.713 289.434 143.481 288.229 143.94C287.025 144.4 285.721 144.534 284.448 144.33C283.176 144.125 281.98 143.589 280.98 142.776L280.465 143.409Z"/>
</mask>
<path d="M280.465 143.409C281.576 144.313 282.905 144.908 284.319 145.135C285.733 145.362 287.182 145.213 288.52 144.703C289.858 144.192 291.038 143.339 291.942 142.228C292.846 141.117 293.441 139.788 293.668 138.374L292.862 138.244C292.658 139.517 292.122 140.713 291.309 141.713C290.496 142.713 289.434 143.481 288.229 143.94C287.025 144.4 285.721 144.534 284.448 144.33C283.176 144.125 281.98 143.589 280.98 142.776L280.465 143.409Z" stroke="white" stroke-width="1.48334" mask="url(#path-10-inside-1_1_1117)"/>
<mask id="path-11-inside-2_1_1117" fill="white">
<path d="M280.872 140.872C281.781 141.612 282.869 142.099 284.026 142.285C285.183 142.47 286.368 142.348 287.463 141.931C288.558 141.513 289.523 140.815 290.262 139.906C291.002 138.997 291.489 137.909 291.675 136.753L291.016 136.647C290.848 137.688 290.41 138.667 289.745 139.485C289.079 140.303 288.21 140.931 287.225 141.307C286.24 141.683 285.173 141.793 284.131 141.626C283.09 141.458 282.111 141.02 281.293 140.355L280.872 140.872Z"/>
</mask>
<path d="M280.872 140.872C281.781 141.612 282.869 142.099 284.026 142.285C285.183 142.47 286.368 142.348 287.463 141.931C288.558 141.513 289.523 140.815 290.262 139.906C291.002 138.997 291.489 137.909 291.675 136.753L291.016 136.647C290.848 137.688 290.41 138.667 289.745 139.485C289.079 140.303 288.21 140.931 287.225 141.307C286.24 141.683 285.173 141.793 284.131 141.626C283.09 141.458 282.111 141.02 281.293 140.355L280.872 140.872Z" stroke="white" stroke-width="1.48334" mask="url(#path-11-inside-2_1_1117)"/>
<mask id="path-12-inside-3_1_1117" fill="white">
<path d="M281.281 138.335C281.988 138.91 282.834 139.289 283.733 139.434C284.633 139.578 285.555 139.483 286.407 139.159C287.258 138.834 288.009 138.291 288.584 137.584C289.159 136.877 289.538 136.031 289.683 135.131L289.17 135.049C289.04 135.858 288.699 136.62 288.182 137.256C287.664 137.892 286.988 138.381 286.222 138.673C285.455 138.966 284.626 139.051 283.816 138.921C283.006 138.791 282.245 138.45 281.608 137.932L281.281 138.335Z"/>
</mask>
<path d="M281.281 138.335C281.988 138.91 282.834 139.289 283.733 139.434C284.633 139.578 285.555 139.483 286.407 139.159C287.258 138.834 288.009 138.291 288.584 137.584C289.159 136.877 289.538 136.031 289.683 135.131L289.17 135.049C289.04 135.858 288.699 136.62 288.182 137.256C287.664 137.892 286.988 138.381 286.222 138.673C285.455 138.966 284.626 139.051 283.816 138.921C283.006 138.791 282.245 138.45 281.608 137.932L281.281 138.335Z" stroke="white" stroke-width="1.48334" mask="url(#path-12-inside-3_1_1117)"/>
<mask id="path-13-inside-4_1_1117" fill="white">
<path d="M282.684 136.609C283.088 136.938 283.572 137.154 284.086 137.237C284.6 137.32 285.127 137.265 285.613 137.08C286.1 136.894 286.529 136.584 286.858 136.18C287.186 135.776 287.403 135.292 287.485 134.778L287.192 134.731C287.118 135.194 286.923 135.629 286.627 135.993C286.332 136.356 285.946 136.636 285.508 136.803C285.07 136.97 284.596 137.018 284.133 136.944C283.67 136.87 283.235 136.675 282.871 136.379L282.684 136.609Z"/>
</mask>
<path d="M282.684 136.609C283.088 136.938 283.572 137.154 284.086 137.237C284.6 137.32 285.127 137.265 285.613 137.08C286.1 136.894 286.529 136.584 286.858 136.18C287.186 135.776 287.403 135.292 287.485 134.778L287.192 134.731C287.118 135.194 286.923 135.629 286.627 135.993C286.332 136.356 285.946 136.636 285.508 136.803C285.07 136.97 284.596 137.018 284.133 136.944C283.67 136.87 283.235 136.675 282.871 136.379L282.684 136.609Z" stroke="white" stroke-width="1.48334" mask="url(#path-13-inside-4_1_1117)"/>
</g>
</g>
<g filter="url(#filter1_dd_1_1117)">
<g clip-path="url(#clip2_1_1117)">
<rect x="75.9023" y="-22" width="163.538" height="223.056" rx="8.90001" transform="rotate(26.0346 75.9023 -22)" fill="white"/>
<path d="M-11.0407 110.361L96.4313 -109.652L237.377 -40.8025L221.057 -7.39231L119.967 -56.7727L90.7899 2.95728L182.211 47.6148L165.891 81.0249L74.4697 36.3674L28.8152 129.83L-11.0407 110.361Z" fill="#F1F1F1"/>
<path d="M46.7889 224.442L117.361 79.9689L209.915 125.179L199.198 147.118L132.816 114.692L113.657 153.915L173.69 183.239L162.973 205.178L102.94 175.854L72.9606 237.227L46.7889 224.442Z" fill="#F1F1F1"/>
<path d="M81.2503 -3.9938L80.7648 -2.99986L77.5416 -4.57433L78.0271 -5.56826L81.2503 -3.9938ZM76.1695 0.277799L79.0843 -5.68936C79.2635 -6.05617 79.4883 -6.32446 79.7589 -6.49423C80.0318 -6.66284 80.3267 -6.74449 80.6436 -6.73918C80.9605 -6.73387 81.2763 -6.65434 81.591 -6.50059C81.8135 -6.39192 82.0024 -6.27765 82.1578 -6.15776C82.3133 -6.03788 82.4254 -5.94351 82.4944 -5.87465L81.7533 -5.00556C81.707 -5.04872 81.6464 -5.09881 81.5717 -5.15583C81.4981 -5.21522 81.4104 -5.26977 81.3087 -5.31948C81.0697 -5.43624 80.8721 -5.46091 80.7161 -5.3935C80.5636 -5.32731 80.4353 -5.18771 80.3313 -4.97473L77.458 0.907238L76.1695 0.277799ZM84.4295 -4.69199L80.8782 2.57794L79.5932 1.95024L83.1444 -5.31969L84.4295 -4.69199ZM84.526 4.49169C83.9935 4.23159 83.5892 3.88903 83.3132 3.464C83.0372 3.03898 82.8944 2.56325 82.8848 2.03682C82.8776 1.51154 83.0115 0.967282 83.2867 0.404052C83.5618 -0.159178 83.9093 -0.600576 84.3292 -0.920142C84.7515 -1.23855 85.2151 -1.41953 85.72 -1.46308C86.2249 -1.50662 86.7436 -1.39834 87.2761 -1.13824C87.8085 -0.878146 88.2128 -0.535584 88.4888 -0.110561C88.7648 0.314463 88.9059 0.790798 88.912 1.31844C88.9204 1.84724 88.787 2.39326 88.5119 2.95649C88.2368 3.51972 87.8887 3.95936 87.4675 4.2754C87.0488 4.5926 86.587 4.77297 86.082 4.81652C85.5771 4.86006 85.0584 4.75179 84.526 4.49169ZM85.0359 3.46572C85.3246 3.60675 85.6047 3.64539 85.8762 3.58162C86.1489 3.51549 86.3985 3.37065 86.6249 3.14711C86.8537 2.92473 87.049 2.64788 87.2109 2.31656C87.3739 1.98289 87.4728 1.65746 87.5075 1.34028C87.5458 1.02189 87.5072 0.73484 87.3918 0.479125C87.2763 0.223411 87.0742 0.0250379 86.7855 -0.115994C86.4897 -0.260493 86.2043 -0.300255 85.9293 -0.23528C85.6566 -0.169149 85.4053 -0.0237063 85.1753 0.201047C84.9489 0.424589 84.7541 0.7032 84.5912 1.03688C84.4293 1.36819 84.3298 1.69186 84.2927 2.00788C84.258 2.32506 84.2983 2.6115 84.4137 2.86722C84.5327 3.12172 84.7401 3.32122 85.0359 3.46572ZM89.2504 6.66756L90.3732 0.462566L91.683 1.10241L90.7688 5.40434L90.8185 5.42861L93.6709 2.07345L94.9666 2.70635L94.084 6.99739L94.1373 7.0234L96.9438 3.67219L98.2572 4.31376L94.0496 9.01192L92.7114 8.35821L93.4889 4.17416L93.4144 4.13774L90.5922 7.32301L89.2504 6.66756ZM98.6611 11.3964C98.1168 11.1306 97.7078 10.7828 97.4341 10.353C97.1628 9.92439 97.0247 9.44803 97.0198 8.92391C97.0185 8.39857 97.1525 7.86021 97.4218 7.30881C97.6923 6.75505 98.0375 6.31838 98.4574 5.99882C98.8785 5.67688 99.3409 5.49238 99.8446 5.44532C100.352 5.39704 100.872 5.50295 101.404 5.76305C101.847 5.97922 102.198 6.25218 102.459 6.58193C102.724 6.91047 102.886 7.27236 102.945 7.66759C103.005 8.06045 102.953 8.46024 102.79 8.86695L101.562 8.26699C101.64 7.98003 101.629 7.70333 101.527 7.43689C101.43 7.16923 101.226 6.95968 100.916 6.80825C100.653 6.67993 100.387 6.63822 100.119 6.68311C99.8523 6.72563 99.5991 6.85106 99.3595 7.05941C99.1224 7.26892 98.9142 7.55708 98.735 7.92389C98.5535 8.29543 98.4519 8.6415 98.4301 8.96209C98.4095 9.28031 98.4621 9.55958 98.588 9.79988C98.7175 10.039 98.9159 10.2238 99.1833 10.3545C99.3726 10.4469 99.5592 10.4941 99.743 10.4959C99.9302 10.4966 100.108 10.4531 100.277 10.3655C100.446 10.278 100.597 10.1453 100.731 9.96733L101.959 10.5673C101.74 10.938 101.459 11.2245 101.117 11.4267C100.776 11.6266 100.396 11.7279 99.9752 11.7306C99.5559 11.7309 99.1179 11.6196 98.6611 11.3964ZM103.619 13.8228C103.274 13.654 102.993 13.4405 102.776 13.1822C102.563 12.9227 102.435 12.6317 102.393 12.3094C102.354 11.9882 102.421 11.6489 102.596 11.2916C102.746 10.9839 102.927 10.7573 103.139 10.6116C103.351 10.4659 103.585 10.3807 103.84 10.356C104.095 10.3312 104.361 10.3482 104.637 10.4069C104.917 10.4644 105.196 10.5437 105.475 10.6447C105.811 10.7677 106.084 10.8647 106.296 10.9357C106.509 11.0044 106.674 11.0324 106.791 11.0195C106.913 11.0054 107.003 10.9368 107.063 10.8138L107.074 10.7925C107.204 10.5251 107.226 10.2793 107.139 10.0551C107.052 9.83092 106.86 9.646 106.562 9.50035C106.247 9.3466 105.964 9.29327 105.712 9.34036C105.463 9.38861 105.261 9.4906 105.105 9.64634L103.989 8.88987C104.245 8.60479 104.537 8.40421 104.863 8.28811C105.191 8.16964 105.539 8.13167 105.908 8.17419C106.278 8.21434 106.654 8.32748 107.035 8.51359C107.298 8.64191 107.544 8.80041 107.774 8.9891C108.005 9.17779 108.193 9.39573 108.339 9.64291C108.486 9.88773 108.566 10.1626 108.578 10.4676C108.592 10.7737 108.511 11.1078 108.334 11.4699L106.552 15.119L105.317 14.5156L105.682 13.7666L105.64 13.7458C105.488 13.8591 105.308 13.9474 105.102 14.0105C104.898 14.0725 104.671 14.0917 104.418 14.0681C104.17 14.0433 103.903 13.9615 103.619 13.8228ZM104.414 13.0416C104.672 13.1676 104.921 13.2259 105.16 13.2167C105.4 13.205 105.612 13.1388 105.797 13.0182C105.985 12.8986 106.128 12.7383 106.226 12.5372L106.54 11.8946C106.483 11.9081 106.4 11.9054 106.289 11.8864C106.18 11.8685 106.062 11.8414 105.933 11.8049C105.804 11.7683 105.678 11.7301 105.554 11.69C105.43 11.6499 105.322 11.615 105.231 11.5852C105.027 11.5176 104.834 11.4764 104.654 11.4616C104.474 11.4467 104.314 11.4712 104.174 11.5349C104.036 11.5963 103.926 11.7098 103.845 11.8754C103.73 12.1121 103.729 12.3329 103.842 12.538C103.956 12.7431 104.147 12.9109 104.414 13.0416ZM107.844 15.7502L110.507 10.2978L111.753 10.9064L111.31 11.8151L111.366 11.8429C111.619 11.5767 111.908 11.4174 112.233 11.3649C112.561 11.3112 112.881 11.3606 113.194 11.5132C113.265 11.5479 113.342 11.5902 113.426 11.6401C113.514 11.6887 113.584 11.7334 113.638 11.7742L113.06 12.9562C113.015 12.9107 112.937 12.8519 112.826 12.7799C112.718 12.7067 112.609 12.6435 112.5 12.5904C112.266 12.4759 112.031 12.4239 111.794 12.4344C111.561 12.4436 111.348 12.5109 111.155 12.6364C110.961 12.7619 110.808 12.9406 110.695 13.1725L109.129 16.3779L107.844 15.7502ZM113.559 18.6608C113.131 18.4515 112.801 18.1542 112.571 17.7688C112.34 17.3834 112.228 16.9333 112.236 16.4185C112.245 15.9037 112.395 15.3469 112.687 14.7482C112.983 14.1424 113.332 13.6797 113.735 13.3603C114.14 13.0397 114.566 12.8562 115.011 12.8096C115.457 12.7607 115.889 12.8386 116.308 13.0432C116.627 13.1993 116.863 13.382 117.016 13.5915C117.17 13.7985 117.27 14.0073 117.317 14.2177C117.365 14.4257 117.39 14.6122 117.391 14.7771L117.444 14.8031L118.773 12.084L120.061 12.7134L116.51 19.9833L115.246 19.366L115.666 18.507L115.588 18.4688C115.457 18.569 115.292 18.663 115.094 18.7508C114.897 18.8363 114.67 18.8808 114.413 18.8843C114.156 18.8879 113.872 18.8134 113.559 18.6608ZM114.433 17.7816C114.705 17.9146 114.973 17.9545 115.236 17.9014C115.501 17.8459 115.747 17.71 115.976 17.4935C116.205 17.277 116.406 16.9924 116.578 16.6398C116.75 16.2872 116.85 15.9565 116.878 15.6476C116.908 15.3399 116.863 15.067 116.741 14.829C116.623 14.5922 116.425 14.4061 116.148 14.2709C115.861 14.131 115.586 14.0888 115.322 14.1443C115.057 14.1997 114.812 14.3351 114.587 14.5504C114.361 14.7657 114.166 15.0425 114.001 15.3809C113.834 15.7217 113.734 16.0495 113.701 16.3643C113.671 16.6779 113.714 16.9584 113.83 17.2059C113.95 17.4521 114.151 17.6441 114.433 17.7816Z" fill="#6C2FED"/>
<path d="M0.506653 137.415L143.452 207.241L126.85 241.228C125.232 244.54 121.235 245.914 117.922 244.296L-13.0274 180.33C-16.3398 178.711 -17.7133 174.715 -16.0953 171.402L0.506653 137.415Z" fill="#6C2FED"/>
<rect x="1.59848" y="147.854" width="26.7" height="26.7" rx="13.35" transform="rotate(26.0346 1.59848 147.854)" fill="white"/>
<path d="M27.9803 167.381L28.9096 167.835L28.3732 172.874L32.0139 169.351L32.9471 169.807L28.0575 174.46L27.3117 174.096L27.9803 167.381ZM27.5117 167.152L28.4215 167.596L26.6648 171.609L25.8083 173.362L24.7345 172.837L27.5117 167.152ZM32.502 169.59L33.4157 170.036L30.6385 175.721L29.5647 175.197L30.4211 173.443L32.502 169.59ZM34.8908 172.565L32.827 176.79L31.7923 176.285L33.8561 172.06L34.8908 172.565ZM34.3256 170.921C34.4006 170.767 34.515 170.665 34.6687 170.614C34.825 170.565 34.993 170.584 35.1726 170.672C35.3522 170.759 35.4693 170.879 35.5238 171.032C35.581 171.186 35.572 171.339 35.497 171.493C35.4233 171.644 35.3082 171.744 35.1519 171.793C34.9982 171.844 34.8315 171.825 34.6519 171.738C34.4723 171.65 34.3539 171.529 34.2968 171.376C34.2422 171.223 34.2518 171.072 34.3256 170.921ZM37.8535 171.812L34.9219 177.814L33.891 177.31L36.8227 171.308L37.8535 171.812ZM39.6331 174.882L36.7849 176.049L35.2952 176.574L35.3582 175.613L36.6005 175.021L38.3875 174.273L39.6331 174.882ZM36.515 178.592L36.1682 175.985L37.1816 175.653L37.7099 179.175L36.515 178.592ZM39.9774 180.38C39.6572 180.223 39.395 180.031 39.1907 179.802C38.9865 179.573 38.8397 179.323 38.7504 179.05C38.6649 178.776 38.6344 178.492 38.6589 178.198C38.6872 177.902 38.7714 177.611 38.9112 177.325L38.9875 177.169C39.1465 176.843 39.3377 176.571 39.5611 176.351C39.7858 176.128 40.0311 175.963 40.297 175.854C40.5629 175.746 40.841 175.698 41.1314 175.71C41.4217 175.723 41.7114 175.8 42.0003 175.941C42.2997 176.088 42.5391 176.268 42.7186 176.481C42.8994 176.692 43.022 176.926 43.0866 177.183C43.1512 177.44 43.1602 177.716 43.1137 178.009C43.0684 178.299 42.9708 178.598 42.8207 178.906L42.609 179.339L39.2978 177.722L39.6449 177.011L41.9409 178.132L41.9791 178.054C42.054 177.888 42.0959 177.723 42.1047 177.559C42.1148 177.394 42.0797 177.241 41.9994 177.102C41.9204 176.96 41.7858 176.843 41.5958 176.75C41.4422 176.675 41.2916 176.643 41.144 176.655C41.0003 176.665 40.8608 176.713 40.7255 176.799C40.5941 176.883 40.4695 176.999 40.3517 177.148C40.2339 177.297 40.1254 177.473 40.0262 177.676L39.9499 177.832C39.8634 178.009 39.8068 178.185 39.7799 178.358C39.7556 178.534 39.7629 178.7 39.802 178.858C39.8449 179.014 39.9175 179.156 40.0197 179.283C40.1258 179.409 40.2648 179.514 40.4366 179.598C40.6527 179.704 40.8682 179.757 41.0833 179.759C41.3023 179.76 41.5176 179.709 41.7291 179.606L41.9852 180.398C41.8331 180.485 41.6524 180.552 41.4429 180.598C41.236 180.645 41.0087 180.655 40.761 180.627C40.5145 180.597 40.2533 180.515 39.9774 180.38ZM46.5239 176.052L43.5941 182.05L42.5594 181.544L45.4891 175.547L46.5239 176.052ZM47.5569 181.422L47.5969 181.34C47.7483 181.03 47.9318 180.767 48.1474 180.55C48.3644 180.33 48.6045 180.165 48.8678 180.055C49.1311 179.945 49.4112 179.897 49.708 179.91C50.0061 179.92 50.3113 180.001 50.6237 180.154C50.9413 180.309 51.1957 180.501 51.387 180.73C51.5822 180.957 51.7173 181.209 51.7924 181.484C51.8676 181.759 51.8851 182.05 51.8452 182.356C51.8066 182.66 51.7116 182.966 51.5603 183.276L51.5202 183.358C51.3702 183.665 51.1867 183.929 50.9697 184.149C50.7541 184.366 50.5139 184.53 50.2494 184.643C49.9861 184.753 49.706 184.802 49.4092 184.789C49.1123 184.776 48.8064 184.693 48.4914 184.539C48.1791 184.386 47.9253 184.196 47.7301 183.969C47.535 183.741 47.3998 183.49 47.3247 183.214C47.2509 182.936 47.2333 182.646 47.2719 182.342C47.3119 182.036 47.4068 181.729 47.5569 181.422ZM48.6278 181.844L48.5877 181.926C48.4975 182.111 48.4311 182.293 48.3887 182.472C48.3463 182.651 48.333 182.82 48.3487 182.979C48.3645 183.139 48.415 183.283 48.5004 183.411C48.5897 183.539 48.719 183.644 48.8882 183.727C49.0548 183.808 49.2145 183.844 49.3673 183.835C49.5214 183.823 49.666 183.774 49.8013 183.689C49.9392 183.605 50.0657 183.491 50.181 183.347C50.2963 183.204 50.3991 183.039 50.4894 182.855L50.5294 182.773C50.6184 182.59 50.6835 182.411 50.7246 182.234C50.767 182.055 50.779 181.885 50.7607 181.725C50.7463 181.563 50.695 181.417 50.607 181.287C50.5229 181.156 50.3962 181.049 50.227 180.966C50.0604 180.885 49.8994 180.851 49.7441 180.866C49.59 180.877 49.4447 180.927 49.3081 181.015C49.1729 181.101 49.0476 181.215 48.9323 181.359C48.8183 181.5 48.7168 181.662 48.6278 181.844ZM54.2648 179.833L55.2996 180.339L52.8257 185.403L52.2683 186.287L51.3351 185.831L54.2648 179.833ZM56.1404 185.509L56.1004 185.591C55.9465 185.906 55.7702 186.177 55.5715 186.406C55.3754 186.636 55.1613 186.813 54.9292 186.939C54.6984 187.061 54.4541 187.126 54.1963 187.132C53.9424 187.137 53.6788 187.073 53.4055 186.939C53.1452 186.812 52.9435 186.651 52.8004 186.455C52.66 186.261 52.5698 186.039 52.53 185.791C52.4914 185.54 52.4947 185.269 52.5399 184.978C52.5865 184.685 52.664 184.378 52.7724 184.057L52.8811 183.834C53.069 183.549 53.2636 183.299 53.465 183.085C53.6665 182.87 53.878 182.701 54.0998 182.577C54.3215 182.453 54.5521 182.387 54.7918 182.378C55.0314 182.37 55.2801 182.428 55.5378 182.554C55.8137 182.689 56.0284 182.86 56.1819 183.067C56.3393 183.273 56.4387 183.505 56.4799 183.764C56.5251 184.022 56.5173 184.298 56.4565 184.594C56.3996 184.889 56.2943 185.194 56.1404 185.509ZM55.0656 185.085L55.1057 185.003C55.1934 184.824 55.2617 184.647 55.3107 184.475C55.3609 184.299 55.3833 184.134 55.378 183.98C55.3727 183.826 55.3312 183.687 55.2536 183.562C55.176 183.437 55.0526 183.333 54.8834 183.25C54.722 183.171 54.5707 183.131 54.4294 183.13C54.2908 183.13 54.1602 183.16 54.0377 183.219C53.9177 183.28 53.8052 183.365 53.6999 183.475C53.5973 183.586 53.5026 183.714 53.4158 183.859L53.1183 184.468C53.0386 184.677 52.9932 184.879 52.982 185.073C52.9721 185.265 53.0107 185.44 53.0977 185.599C53.1872 185.759 53.3388 185.891 53.5522 185.995C53.7188 186.077 53.874 186.112 54.0177 186.102C54.1627 186.089 54.297 186.038 54.4206 185.95C54.5454 185.86 54.6603 185.74 54.7651 185.591C54.8726 185.444 54.9728 185.275 55.0656 185.085ZM59.0743 184.379L57.0105 188.603L55.9758 188.098L58.0396 183.873L59.0743 184.379ZM58.5091 182.734C58.5841 182.58 58.6985 182.478 58.8522 182.427C59.0085 182.378 59.1765 182.397 59.3561 182.485C59.5357 182.573 59.6528 182.693 59.7073 182.845C59.7645 182.999 59.7555 183.152 59.6805 183.306C59.6068 183.457 59.4917 183.557 59.3354 183.606C59.1817 183.657 59.015 183.639 58.8354 183.551C58.6558 183.463 58.5374 183.342 58.4803 183.189C58.4257 183.036 58.4353 182.885 58.5091 182.734Z" fill="white"/>
<path d="M23.8805 177.634L21.3144 180.195L20.6726 179.882L23.7457 176.982L24.1557 177.182L23.8805 177.634ZM23.2643 181.148L23.7048 177.548L23.8897 177.052L24.3021 177.254L23.9086 181.462L23.2643 181.148ZM23.8568 179.805L23.6196 180.291L21.6868 179.346L21.924 178.861L23.8568 179.805ZM25.8364 179.762L24.2986 182.91L23.7104 182.623L25.4962 178.967L26.038 179.232L25.8364 179.762ZM27.1719 181.391L27.1469 181.442C27.0531 181.634 26.9433 181.801 26.8175 181.943C26.6941 182.085 26.5586 182.195 26.4112 182.274C26.2661 182.352 26.1139 182.394 25.9544 182.398C25.7949 182.403 25.6322 182.365 25.4662 182.284C25.3019 182.204 25.1726 182.103 25.0784 181.982C24.9865 181.861 24.9257 181.724 24.896 181.57C24.8662 181.416 24.8622 181.251 24.8841 181.074C24.9084 180.897 24.9544 180.712 25.0223 180.519L25.1189 180.322C25.2346 180.138 25.3562 179.98 25.4837 179.847C25.6129 179.715 25.7476 179.612 25.8878 179.54C26.0281 179.467 26.1743 179.43 26.3265 179.427C26.4787 179.425 26.6362 179.464 26.7989 179.543C26.9648 179.624 27.0962 179.729 27.1929 179.857C27.2905 179.983 27.3541 180.127 27.384 180.288C27.4146 180.449 27.4114 180.622 27.3742 180.81C27.3379 180.995 27.2705 181.189 27.1719 181.391ZM26.5587 181.155L26.5838 181.104C26.6434 180.982 26.6872 180.863 26.7153 180.748C26.7442 180.631 26.7537 180.521 26.7438 180.417C26.7339 180.314 26.7015 180.221 26.6465 180.14C26.5939 180.058 26.5147 179.991 26.409 179.939C26.3049 179.888 26.2066 179.862 26.1143 179.862C26.0228 179.859 25.9367 179.877 25.8561 179.914C25.7754 179.951 25.701 180.004 25.6328 180.074C25.5654 180.142 25.5026 180.221 25.4443 180.311L25.213 180.785C25.1753 180.911 25.1562 181.035 25.1557 181.156C25.1552 181.276 25.1838 181.387 25.2414 181.488C25.3014 181.588 25.3998 181.671 25.5365 181.738C25.6422 181.789 25.7436 181.811 25.8407 181.802C25.9378 181.793 26.0294 181.76 26.1156 181.703C26.2041 181.646 26.2856 181.57 26.36 181.475C26.4345 181.38 26.5007 181.274 26.5587 181.155ZM28.6478 181.136L27.11 184.284L26.5219 183.996L28.3077 180.341L28.8494 180.605L28.6478 181.136ZM29.9833 182.764L29.9583 182.816C29.8645 183.008 29.7547 183.175 29.6289 183.317C29.5055 183.458 29.37 183.568 29.2226 183.647C29.0775 183.725 28.9253 183.767 28.7658 183.772C28.6063 183.776 28.4436 183.738 28.2776 183.657C28.1133 183.577 27.984 183.476 27.8898 183.356C27.7979 183.234 27.7372 183.097 27.7074 182.943C27.6776 182.79 27.6737 182.625 27.6955 182.448C27.7198 182.27 27.7658 182.085 27.8337 181.893L27.9303 181.695C28.046 181.512 28.1676 181.353 28.2951 181.22C28.4243 181.088 28.559 180.985 28.6992 180.913C28.8395 180.84 28.9857 180.803 29.1379 180.801C29.2901 180.798 29.4476 180.837 29.6103 180.917C29.7763 180.998 29.9076 181.102 30.0043 181.23C30.1019 181.356 30.1656 181.5 30.1954 181.662C30.226 181.822 30.2228 181.996 30.1857 182.183C30.1493 182.369 30.0819 182.563 29.9833 182.764ZM29.3701 182.528L29.3952 182.477C29.4548 182.355 29.4986 182.236 29.5267 182.121C29.5556 182.004 29.5651 181.894 29.5552 181.79C29.5454 181.687 29.5129 181.594 29.4579 181.513C29.4053 181.431 29.3262 181.364 29.2204 181.312C29.1163 181.262 29.018 181.236 28.9257 181.235C28.8342 181.233 28.7481 181.25 28.6675 181.287C28.5868 181.324 28.5124 181.378 28.4442 181.447C28.3768 181.515 28.314 181.594 28.2557 181.685L28.0244 182.158C27.9867 182.285 27.9676 182.408 27.9671 182.529C27.9666 182.65 27.9952 182.76 28.0528 182.861C28.1129 182.961 28.2112 183.044 28.3479 183.111C28.4536 183.163 28.5551 183.184 28.6522 183.175C28.7492 183.166 28.8409 183.133 28.927 183.077C29.0155 183.019 29.097 182.943 29.1715 182.848C29.2459 182.754 29.3121 182.647 29.3701 182.528ZM32.2875 180.912L30.4564 184.661L29.8658 184.372L31.6969 180.624L32.2875 180.912ZM32.2409 185.593C32.0457 185.498 31.8847 185.38 31.7579 185.239C31.6335 185.098 31.5441 184.942 31.4899 184.773C31.4374 184.604 31.4199 184.427 31.4377 184.243C31.4554 184.058 31.5084 183.875 31.5966 183.694L31.6443 183.597C31.7452 183.39 31.8667 183.218 32.0087 183.08C32.1508 182.941 32.3045 182.839 32.4699 182.773C32.6361 182.705 32.8079 182.675 32.9853 182.683C33.1628 182.691 33.3369 182.737 33.5077 182.82C33.6965 182.913 33.8461 183.025 33.9566 183.158C34.0672 183.29 34.1406 183.437 34.1769 183.598C34.2157 183.758 34.2193 183.928 34.1877 184.108C34.1578 184.289 34.0964 184.474 34.0034 184.665L33.8806 184.916L31.8404 183.919L32.0466 183.497L33.506 184.21L33.5287 184.164C33.5771 184.056 33.6044 183.947 33.6107 183.835C33.6185 183.724 33.5973 183.621 33.5471 183.526C33.4968 183.431 33.4066 183.351 33.2764 183.288C33.1788 183.24 33.0814 183.219 32.9843 183.224C32.8896 183.228 32.7979 183.257 32.7093 183.31C32.6207 183.363 32.5356 183.439 32.4539 183.536C32.3746 183.632 32.3016 183.749 32.2348 183.885L32.1872 183.983C32.1307 184.098 32.0937 184.213 32.0762 184.328C32.061 184.441 32.0665 184.55 32.0925 184.653C32.1186 184.757 32.1652 184.851 32.2324 184.936C32.3004 185.02 32.3905 185.089 32.5028 185.144C32.6443 185.213 32.7843 185.246 32.9228 185.243C33.0612 185.24 33.1966 185.207 33.3288 185.142L33.4921 185.594C33.3946 185.649 33.2817 185.692 33.1532 185.724C33.0255 185.755 32.8843 185.761 32.7294 185.744C32.5762 185.728 32.4134 185.677 32.2409 185.593ZM37.4733 183.687L35.7376 187.241L35.125 186.941L36.8607 183.388L37.4733 183.687ZM41.0535 185.436L39.3177 188.99L38.7052 188.69L38.3549 185.366L37.1115 187.912L36.499 187.613L38.2347 184.059L38.8473 184.359L39.2 187.69L40.4458 185.139L41.0535 185.436ZM42.7113 189.214L43.3214 189.512C43.1882 189.736 43.0218 189.911 42.8222 190.039C42.6233 190.166 42.3984 190.232 42.1474 190.239C41.8965 190.245 41.6278 190.178 41.3414 190.039C41.1218 189.931 40.9432 189.796 40.8056 189.632C40.6689 189.466 40.5732 189.28 40.5187 189.074C40.4649 188.867 40.4551 188.643 40.4894 188.404C40.5252 188.166 40.6055 187.919 40.7303 187.663L40.8746 187.368C40.9993 187.113 41.1455 186.898 41.3132 186.724C41.4824 186.551 41.6663 186.422 41.8647 186.337C42.064 186.251 42.2713 186.212 42.4868 186.221C42.7039 186.23 42.9239 186.289 43.1468 186.398C43.4299 186.537 43.6436 186.706 43.788 186.905C43.9324 187.105 44.0134 187.322 44.0309 187.559C44.0501 187.796 44.0139 188.039 43.9223 188.289L43.3122 187.991C43.3706 187.83 43.3988 187.681 43.3967 187.545C43.3963 187.41 43.3571 187.288 43.2792 187.179C43.202 187.069 43.078 186.972 42.9072 186.889C42.7673 186.821 42.6325 186.787 42.503 186.788C42.3734 186.789 42.249 186.823 42.1298 186.89C42.0106 186.957 41.8969 187.055 41.7888 187.186C41.6831 187.316 41.5841 187.475 41.4919 187.664L41.3453 187.964C41.2579 188.143 41.1939 188.313 41.1533 188.475C41.1151 188.635 41.1031 188.784 41.1173 188.919C41.1331 189.056 41.1784 189.178 41.2531 189.285C41.3278 189.392 41.4367 189.481 41.5799 189.55C41.7539 189.635 41.9082 189.677 42.0426 189.674C42.1786 189.672 42.3001 189.631 42.4071 189.553C42.5165 189.473 42.6179 189.36 42.7113 189.214Z" fill="white" fill-opacity="0.5"/>
<path d="M15.2711 132.127L20.5761 126.361L22.5324 127.317L15.3971 134.394L14.1085 133.765L15.2711 132.127ZM16.7162 124.476L15.4234 132.202L14.8582 134.131L13.5579 133.496L14.7717 123.526L16.7162 124.476ZM25.1973 128.619L21.0316 137.147L19.2803 136.291L23.4461 127.763L25.1973 128.619ZM28.2072 137.888C28.2816 137.735 28.3249 137.587 28.3372 137.443C28.3553 137.297 28.3286 137.144 28.2572 136.983C28.1876 136.819 28.0683 136.632 27.8992 136.424C27.7301 136.216 27.4986 135.972 27.2044 135.693C26.8789 135.379 26.5805 135.059 26.3093 134.733C26.042 134.409 25.8261 134.079 25.6617 133.742C25.5031 133.404 25.4153 133.059 25.3985 132.707C25.3855 132.357 25.4687 131.999 25.648 131.632C25.8215 131.276 26.057 130.992 26.3543 130.78C26.6536 130.563 26.9943 130.42 27.3765 130.351C27.7607 130.277 28.1717 130.277 28.6097 130.351C29.0516 130.426 29.5029 130.577 29.9637 130.802C30.5924 131.109 31.0857 131.49 31.4436 131.945C31.8015 132.401 32.013 132.889 32.0781 133.409C32.1471 133.931 32.0576 134.446 31.8096 134.954L30.0642 134.101C30.1863 133.851 30.2404 133.607 30.2265 133.368C30.2184 133.127 30.1357 132.9 29.9782 132.688C29.8247 132.477 29.5898 132.295 29.2735 132.14C28.9689 131.992 28.6922 131.915 28.4434 131.909C28.1965 131.9 27.9841 131.948 27.8063 132.055C27.6304 132.158 27.4957 132.305 27.4022 132.496C27.3317 132.64 27.3029 132.788 27.316 132.94C27.3329 133.093 27.3889 133.256 27.4837 133.428C27.5786 133.6 27.7096 133.783 27.8766 133.975C28.0435 134.168 28.2447 134.375 28.4799 134.597C28.8759 134.964 29.2067 135.322 29.4723 135.669C29.7418 136.018 29.9423 136.36 30.0736 136.696C30.205 137.031 30.2635 137.366 30.2491 137.703C30.2348 138.039 30.1417 138.383 29.9701 138.734C29.7889 139.105 29.5545 139.402 29.267 139.624C28.9794 139.846 28.6494 139.992 28.2769 140.062C27.9044 140.131 27.503 140.126 27.0727 140.047C26.6425 139.967 26.1931 139.813 25.7245 139.584C25.3028 139.378 24.9136 139.12 24.557 138.811C24.2024 138.497 23.9124 138.145 23.6872 137.755C23.466 137.366 23.3416 136.947 23.3141 136.499C23.2866 136.05 23.3902 135.585 23.6248 135.105L25.3878 135.966C25.2581 136.232 25.1894 136.476 25.1818 136.7C25.1741 136.924 25.2168 137.128 25.3099 137.314C25.4069 137.502 25.5464 137.671 25.7286 137.823C25.9147 137.977 26.1326 138.115 26.3825 138.237C26.6871 138.386 26.958 138.465 27.1952 138.474C27.4363 138.486 27.6409 138.438 27.809 138.332C27.981 138.227 28.1138 138.079 28.2072 137.888ZM36.9899 136.185L31.2171 142.122L29.3487 141.209L36.6832 134.229L37.8721 134.81L36.9899 136.185ZM35.4635 144.196L36.5916 135.991L37.1166 134.441L38.3173 135.027L37.3378 145.112L35.4635 144.196ZM36.9088 140.97L36.2365 142.347L31.7323 140.146L32.4047 138.77L36.9088 140.97Z" fill="black"/>
<rect x="195.119" y="46.5528" width="17.0583" height="28.925" rx="2.59584" transform="rotate(26.0346 195.119 46.5528)" stroke="black" stroke-width="0.741668"/>
<path d="M200.451 49.1574L196.382 57.4876L189.911 57.2158L187.633 61.8806L191.825 66.8173L187.756 75.1474L192.42 77.4261L196.489 69.096L202.96 69.3678L205.239 64.7029L201.047 59.7663L204.953 51.7694" stroke="black" stroke-width="0.741668"/>
<mask id="path-25-inside-5_1_1117" fill="white">
<path d="M177.228 86.5134C177.327 87.9421 177.8 89.3195 178.601 90.5072C179.401 91.695 180.499 92.6512 181.786 93.2797C183.073 93.9083 184.502 94.1871 185.931 94.088C187.36 93.989 188.737 93.5156 189.925 92.7155L189.469 92.0389C188.4 92.759 187.16 93.185 185.875 93.2741C184.589 93.3633 183.302 93.1124 182.144 92.5467C180.986 91.981 179.997 91.1204 179.277 90.0514C178.557 88.9825 178.131 87.7428 178.042 86.457L177.228 86.5134Z"/>
</mask>
<path d="M177.228 86.5134C177.327 87.9421 177.8 89.3195 178.601 90.5072C179.401 91.695 180.499 92.6512 181.786 93.2797C183.073 93.9083 184.502 94.1871 185.931 94.088C187.36 93.989 188.737 93.5156 189.925 92.7155L189.469 92.0389C188.4 92.759 187.16 93.185 185.875 93.2741C184.589 93.3633 183.302 93.1124 182.144 92.5467C180.986 91.981 179.997 91.1204 179.277 90.0514C178.557 88.9825 178.131 87.7428 178.042 86.457L177.228 86.5134Z" stroke="black" stroke-width="1.48334" mask="url(#path-25-inside-5_1_1117)"/>
<mask id="path-26-inside-6_1_1117" fill="white">
<path d="M179.359 85.078C179.44 86.2469 179.827 87.3739 180.482 88.3457C181.136 89.3175 182.035 90.0999 183.088 90.6141C184.141 91.1284 185.311 91.3565 186.479 91.2755C187.648 91.1944 188.775 90.8072 189.747 90.1525L189.374 89.5989C188.5 90.1881 187.485 90.5366 186.433 90.6096C185.381 90.6825 184.329 90.4772 183.381 90.0144C182.434 89.5515 181.625 88.8474 181.035 87.9728C180.446 87.0982 180.098 86.0839 180.025 85.0319L179.359 85.078Z"/>
</mask>
<path d="M179.359 85.078C179.44 86.2469 179.827 87.3739 180.482 88.3457C181.136 89.3175 182.035 90.0999 183.088 90.6141C184.141 91.1284 185.311 91.3565 186.479 91.2755C187.648 91.1944 188.775 90.8072 189.747 90.1525L189.374 89.5989C188.5 90.1881 187.485 90.5366 186.433 90.6096C185.381 90.6825 184.329 90.4772 183.381 90.0144C182.434 89.5515 181.625 88.8474 181.035 87.9728C180.446 87.0982 180.098 86.0839 180.025 85.0319L179.359 85.078Z" stroke="black" stroke-width="1.48334" mask="url(#path-26-inside-6_1_1117)"/>
<mask id="path-27-inside-7_1_1117" fill="white">
<path d="M181.491 83.6432C181.554 84.5524 181.855 85.4289 182.364 86.1848C182.873 86.9406 183.573 87.5491 184.391 87.9491C185.21 88.3491 186.12 88.5265 187.029 88.4635C187.938 88.4004 188.815 88.0992 189.571 87.5901L189.281 87.1595C188.6 87.6177 187.811 87.8888 186.993 87.9455C186.175 88.0023 185.356 87.8426 184.619 87.4826C183.882 87.1226 183.253 86.575 182.795 85.8947C182.337 85.2145 182.065 84.4256 182.009 83.6073L181.491 83.6432Z"/>
</mask>
<path d="M181.491 83.6432C181.554 84.5524 181.855 85.4289 182.364 86.1848C182.873 86.9406 183.573 87.5491 184.391 87.9491C185.21 88.3491 186.12 88.5265 187.029 88.4635C187.938 88.4004 188.815 88.0992 189.571 87.5901L189.281 87.1595C188.6 87.6177 187.811 87.8888 186.993 87.9455C186.175 88.0023 185.356 87.8426 184.619 87.4826C183.882 87.1226 183.253 86.575 182.795 85.8947C182.337 85.2145 182.065 84.4256 182.009 83.6073L181.491 83.6432Z" stroke="black" stroke-width="1.48334" mask="url(#path-27-inside-7_1_1117)"/>
<mask id="path-28-inside-8_1_1117" fill="white">
<path d="M183.71 83.4891C183.746 84.0086 183.918 84.5094 184.209 84.9414C184.5 85.3733 184.899 85.721 185.367 85.9495C185.835 86.1781 186.355 86.2795 186.875 86.2435C187.394 86.2075 187.895 86.0353 188.327 85.7444L188.161 85.4983C187.773 85.7602 187.322 85.9151 186.854 85.9475C186.387 85.9799 185.919 85.8887 185.498 85.683C185.076 85.4773 184.717 85.1643 184.455 84.7756C184.193 84.3869 184.038 83.9361 184.006 83.4685L183.71 83.4891Z"/>
</mask>
<path d="M183.71 83.4891C183.746 84.0086 183.918 84.5094 184.209 84.9414C184.5 85.3733 184.899 85.721 185.367 85.9495C185.835 86.1781 186.355 86.2795 186.875 86.2435C187.394 86.2075 187.895 86.0353 188.327 85.7444L188.161 85.4983C187.773 85.7602 187.322 85.9151 186.854 85.9475C186.387 85.9799 185.919 85.8887 185.498 85.683C185.076 85.4773 184.717 85.1643 184.455 84.7756C184.193 84.3869 184.038 83.9361 184.006 83.4685L183.71 83.4891Z" stroke="black" stroke-width="1.48334" mask="url(#path-28-inside-8_1_1117)"/>
</g>
</g>
</g>
<defs>
<filter id="filter0_dd_1_1117" x="48" y="19" width="400.286" height="434.689" filterUnits="userSpaceOnUse" color-interpolation-filters="sRGB">
<feFlood flood-opacity="0" result="BackgroundImageFix"/>
<feColorMatrix in="SourceAlpha" type="matrix" values="0 0 0 0 0 0 0 0 0 0 0 0 0 0 0 0 0 0 127 0" result="hardAlpha"/>
<feMorphology radius="4" operator="erode" in="SourceAlpha" result="effect1_dropShadow_1_1117"/>
<feOffset dy="18"/>
<feGaussianBlur stdDeviation="44"/>
<feColorMatrix type="matrix" values="0 0 0 0 0.0941176 0 0 0 0 0.152941 0 0 0 0 0.294118 0 0 0 0.14 0"/>
<feBlend mode="normal" in2="BackgroundImageFix" result="effect1_dropShadow_1_1117"/>
<feColorMatrix in="SourceAlpha" type="matrix" values="0 0 0 0 0 0 0 0 0 0 0 0 0 0 0 0 0 0 127 0" result="hardAlpha"/>
<feMorphology radius="6" operator="erode" in="SourceAlpha" result="effect2_dropShadow_1_1117"/>
<feOffset dy="8"/>
<feGaussianBlur stdDeviation="14"/>
<feColorMatrix type="matrix" values="0 0 0 0 0.0941176 0 0 0 0 0.152941 0 0 0 0 0.294118 0 0 0 0.12 0"/>
<feBlend mode="normal" in2="effect1_dropShadow_1_1117" result="effect2_dropShadow_1_1117"/>
<feBlend mode="normal" in="SourceGraphic" in2="effect2_dropShadow_1_1117" result="shape"/>
</filter>
<filter id="filter1_dd_1_1117" x="-106" y="-88" width="412.846" height="440.202" filterUnits="userSpaceOnUse" color-interpolation-filters="sRGB">
<feFlood flood-opacity="0" result="BackgroundImageFix"/>
<feColorMatrix in="SourceAlpha" type="matrix" values="0 0 0 0 0 0 0 0 0 0 0 0 0 0 0 0 0 0 127 0" result="hardAlpha"/>
<feMorphology radius="4" operator="erode" in="SourceAlpha" result="effect1_dropShadow_1_1117"/>
<feOffset dy="18"/>
<feGaussianBlur stdDeviation="44"/>
<feColorMatrix type="matrix" values="0 0 0 0 0.0941176 0 0 0 0 0.152941 0 0 0 0 0.294118 0 0 0 0.14 0"/>
<feBlend mode="normal" in2="BackgroundImageFix" result="effect1_dropShadow_1_1117"/>
<feColorMatrix in="SourceAlpha" type="matrix" values="0 0 0 0 0 0 0 0 0 0 0 0 0 0 0 0 0 0 127 0" result="hardAlpha"/>
<feMorphology radius="6" operator="erode" in="SourceAlpha" result="effect2_dropShadow_1_1117"/>
<feOffset dy="8"/>
<feGaussianBlur stdDeviation="14"/>
<feColorMatrix type="matrix" values="0 0 0 0 0.0941176 0 0 0 0 0.152941 0 0 0 0 0.294118 0 0 0 0.12 0"/>
<feBlend mode="normal" in2="effect1_dropShadow_1_1117" result="effect2_dropShadow_1_1117"/>
<feBlend mode="normal" in="SourceGraphic" in2="effect2_dropShadow_1_1117" result="shape"/>
</filter>
<clipPath id="clip0_1_1117">
<rect width="325" height="300" fill="white"/>
</clipPath>
<clipPath id="clip1_1_1117">
<rect x="132" y="143.275" width="163.538" height="223.056" rx="8.90001" transform="rotate(-20.8756 132 143.275)" fill="white"/>
</clipPath>
<clipPath id="clip2_1_1117">
<rect x="75.9023" y="-22" width="163.538" height="223.056" rx="8.90001" transform="rotate(26.0346 75.9023 -22)" fill="white"/>
</clipPath>
</defs>
</svg>
