<svg width="341" height="255" viewBox="0 0 341 255" fill="none" xmlns="http://www.w3.org/2000/svg">
<rect width="312" height="229" transform="translate(13 10)" fill="#F7F4FF"/>
<g filter="url(#filter0_dd_1_1166)">
<rect width="86" height="83" transform="translate(81.4062 26) rotate(31.5308)" fill="#6C2FED"/>
<path d="M114.308 62.6114L107.165 58.229C104.062 56.3254 101.078 57.0402 99.1743 60.1428L94.7972 67.2771C92.8884 70.3882 93.6032 73.3726 96.7058 75.2762L103.84 79.6533C106.943 81.5569 109.927 80.8421 111.831 77.7395L116.213 70.5967C118.125 67.4994 117.41 64.5149 114.308 62.6114ZM109.809 71.9706C109.595 72.32 109.127 72.432 108.778 72.2176C108.428 72.0032 108.316 71.5356 108.53 71.1861L110.11 68.612L99.4924 71.155C99.2861 71.2044 99.0875 71.1647 98.9256 71.0654C98.7636 70.966 98.6383 70.807 98.5889 70.6007C98.4934 70.2018 98.7444 69.7927 99.1432 69.6972L109.761 67.1542L107.187 65.5749C106.837 65.3604 106.725 64.8928 106.939 64.5434C107.154 64.1939 107.622 64.0819 107.971 64.2963L112.088 66.8222C112.437 67.0366 112.549 67.5042 112.335 67.8537L109.809 71.9706Z" fill="white"/>
<path d="M73.4613 94.2612C73.6145 94.0115 73.7119 93.7657 73.7534 93.5238C73.8004 93.2853 73.7789 93.0277 73.689 92.751C73.5991 92.4744 73.428 92.1556 73.1759 91.7946C72.9327 91.4316 72.5969 91.0079 72.1685 90.5235C71.7003 89.9918 71.2885 89.468 70.9329 88.952C70.5863 88.4338 70.3212 87.9198 70.1375 87.4099C69.9573 86.8945 69.883 86.3868 69.9148 85.8869C69.9499 85.3814 70.1207 84.879 70.4271 84.3796C70.7301 83.8857 71.1086 83.4992 71.5624 83.2201C72.0219 82.9444 72.5332 82.7769 73.0966 82.7177C73.6689 82.6564 74.268 82.707 74.8939 82.8695C75.5232 83.0265 76.1569 83.3007 76.7951 83.6923C77.6941 84.2438 78.366 84.8852 78.811 85.6165C79.2616 86.3512 79.4897 87.1061 79.4954 87.881C79.5067 88.6594 79.3046 89.3871 78.8893 90.0641L76.8166 88.7925C77.0618 88.3929 77.192 87.9878 77.2072 87.577C77.2314 87.1641 77.1259 86.7633 76.8908 86.3747C76.6613 85.9894 76.2857 85.6368 75.764 85.3167C75.2702 85.0137 74.8136 84.8367 74.3942 84.7856C73.9749 84.7346 73.6065 84.7873 73.2889 84.9439C72.9714 85.1004 72.7139 85.3396 72.5164 85.6614C72.3768 85.8889 72.3019 86.1294 72.2915 86.3827C72.2846 86.6306 72.34 86.9013 72.4577 87.195C72.5788 87.4832 72.7605 87.7971 73.0027 88.1367C73.245 88.4763 73.549 88.8461 73.9146 89.2461C74.4635 89.8578 74.9128 90.439 75.2624 90.9896C75.6154 91.5346 75.8648 92.0619 76.0105 92.5714C76.1562 93.0809 76.1931 93.5809 76.1212 94.0715C76.0528 94.5565 75.8688 95.0432 75.5692 95.5315C75.2559 96.0421 74.8707 96.4396 74.4134 96.7243C73.9595 97.0034 73.4526 97.1698 72.8927 97.2235C72.3417 97.2749 71.7522 97.215 71.1242 97.0435C70.505 96.8699 69.8709 96.5839 69.2216 96.1855C68.6389 95.8281 68.1123 95.398 67.6416 94.8953C67.1764 94.3961 66.8106 93.847 66.5441 93.2481C66.281 92.6437 66.1599 92.0194 66.1808 91.3754C66.2051 90.7257 66.4147 90.0791 66.8096 89.4354L68.8989 90.7172C68.6572 91.1112 68.5178 91.4878 68.4807 91.847C68.4492 92.2096 68.5011 92.5545 68.6363 92.8819C68.7749 93.2038 68.9796 93.505 69.2504 93.7857C69.5267 94.0698 69.8508 94.326 70.2226 94.5541C70.7109 94.8537 71.1613 95.0346 71.5739 95.0967C71.9919 95.1623 72.3608 95.1212 72.6805 94.9737C73.0002 94.8261 73.2605 94.5886 73.4613 94.2612ZM79.1603 102.283C78.4943 101.875 77.9586 101.397 77.5532 100.85C77.1566 100.302 76.8905 99.7145 76.7549 99.089C76.6249 98.4669 76.6234 97.8282 76.7504 97.1729C76.8775 96.5176 77.13 95.8819 77.5079 95.266L77.7122 94.933C78.1446 94.2283 78.6388 93.6531 79.1948 93.2075C79.7508 92.7619 80.3362 92.4489 80.951 92.2685C81.5692 92.0826 82.1944 92.0346 82.8266 92.1246C83.4588 92.2146 84.0663 92.4384 84.6489 92.7959C85.2926 93.1908 85.7895 93.6446 86.1395 94.1572C86.4895 94.6699 86.7018 95.2202 86.7763 95.8083C86.8599 96.3942 86.8142 97.0039 86.6393 97.6375C86.47 98.2745 86.1862 98.9177 85.7878 99.5669L85.2618 100.424L78.3031 96.1548L79.1866 94.7148L84.1642 97.7688L84.2613 97.6107C84.4715 97.2431 84.607 96.8604 84.6679 96.4624C84.7343 96.0678 84.694 95.6916 84.5468 95.334C84.3996 94.9763 84.104 94.6613 83.66 94.3889C83.3271 94.1847 82.986 94.0747 82.6366 94.0589C82.2962 94.041 81.9583 94.1125 81.6229 94.2733C81.2874 94.4341 80.9568 94.6743 80.6309 94.9937C80.314 95.3111 80.0126 95.7028 79.7266 96.1689L79.5223 96.5019C79.2806 96.8959 79.1086 97.2945 79.0063 97.6977C78.913 98.0987 78.8952 98.4888 78.9529 98.8679C79.0105 99.247 79.1449 99.6006 79.3561 99.9287C79.5706 100.251 79.8693 100.53 80.2522 100.765C80.735 101.061 81.2246 101.228 81.7212 101.265C82.2177 101.303 82.7136 101.229 83.209 101.044L83.6379 102.716C83.2701 102.88 82.8507 102.997 82.38 103.067C81.9126 103.132 81.4048 103.107 80.8566 102.992C80.3139 102.88 79.7485 102.644 79.1603 102.283ZM90.7669 99.4253L86.4209 106.509L84.4148 105.278L89.9406 96.2717L91.8301 97.431L90.7669 99.4253ZM89.0301 101.453L88.386 101.046C88.7831 100.412 89.231 99.8807 89.7299 99.4535C90.2343 99.0298 90.7594 98.7218 91.3051 98.5295C91.8563 98.3407 92.4141 98.2781 92.9784 98.3418C93.5462 98.3999 94.0992 98.594 94.6375 98.9243C95.0703 99.1898 95.4241 99.4909 95.6988 99.8275C95.9825 100.162 96.1674 100.539 96.2537 100.959C96.3456 101.381 96.327 101.847 96.198 102.356C96.0724 102.86 95.8207 103.42 95.4428 104.036L91.873 109.854L89.8586 108.618L93.4335 102.791C93.6991 102.359 93.8446 101.978 93.8702 101.65C93.9048 101.32 93.8351 101.029 93.6611 100.777C93.4962 100.523 93.2389 100.289 92.8893 100.074C92.5452 99.8633 92.193 99.7465 91.8325 99.7239C91.4721 99.7014 91.121 99.7571 90.7791 99.891C90.4427 100.028 90.1242 100.23 89.8234 100.496C89.5227 100.762 89.2582 101.081 89.0301 101.453ZM100.558 112.616L107.259 101.696L109.273 102.931L101.429 115.717L99.6058 114.598L100.558 112.616ZM96.256 106.482L96.3632 106.307C96.782 105.625 97.2438 105.053 97.7486 104.591C98.2568 104.124 98.7878 103.781 99.3415 103.563C99.8987 103.34 100.463 103.255 101.034 103.307C101.609 103.354 102.171 103.546 102.72 103.883C103.264 104.217 103.676 104.615 103.958 105.078C104.239 105.541 104.403 106.058 104.45 106.629C104.5 107.194 104.444 107.802 104.283 108.451C104.124 109.095 103.879 109.769 103.546 110.474L103.204 111.031C102.736 111.631 102.254 112.144 101.755 112.571C101.256 112.998 100.743 113.318 100.216 113.529C99.6891 113.741 99.1529 113.824 98.6073 113.779C98.0673 113.738 97.5226 113.549 96.9732 113.212C96.4294 112.879 96.0081 112.464 95.7093 111.967C95.416 111.474 95.2428 110.929 95.1895 110.331C95.1363 109.733 95.1994 109.107 95.3789 108.453C95.5619 107.794 95.8542 107.137 96.256 106.482ZM98.3693 107.538L98.262 107.713C98.0101 108.124 97.8112 108.529 97.6655 108.928C97.5253 109.331 97.4522 109.718 97.4463 110.088C97.4438 110.453 97.5225 110.792 97.6825 111.104C97.8513 111.414 98.1161 111.679 98.4768 111.901C98.9319 112.18 99.3677 112.31 99.7844 112.29C100.201 112.271 100.597 112.143 100.971 111.907C101.354 111.668 101.705 111.357 102.025 110.973L102.949 109.466C103.117 109.118 103.235 108.771 103.303 108.423C103.377 108.079 103.392 107.748 103.35 107.432C103.31 107.11 103.199 106.812 103.015 106.539C102.84 106.264 102.581 106.021 102.237 105.81C101.871 105.585 101.512 105.472 101.162 105.471C100.811 105.469 100.469 105.554 100.136 105.723C99.8081 105.897 99.4947 106.14 99.1957 106.453C98.8967 106.766 98.6212 107.128 98.3693 107.538Z" fill="white"/>
</g>
<g filter="url(#filter1_dd_1_1166)">
<rect width="86" height="83" transform="translate(108.075 166.229) rotate(-12.4306)" fill="white"/>
<path d="M157.172 169.743L148.989 171.547C145.434 172.33 143.782 174.916 144.566 178.471L146.367 186.645C147.153 190.209 149.739 191.861 153.294 191.078L161.468 189.276C165.022 188.492 166.674 185.906 165.891 182.352L164.087 174.168C163.313 170.611 160.727 168.959 157.172 169.743ZM160.431 179.602C160.519 180.003 160.26 180.408 159.86 180.496C159.46 180.584 159.054 180.326 158.966 179.925L158.316 176.976L152.439 186.177C152.325 186.356 152.154 186.465 151.969 186.506C151.783 186.547 151.582 186.519 151.404 186.405C151.058 186.184 150.955 185.715 151.176 185.37L157.053 176.169L154.104 176.819C153.703 176.907 153.298 176.649 153.21 176.248C153.121 175.848 153.38 175.443 153.781 175.354L158.497 174.315C158.898 174.226 159.303 174.485 159.391 174.886L160.431 179.602Z" fill="#6C2FED"/>
<path d="M149.741 220.879C149.678 220.593 149.578 220.348 149.44 220.145C149.308 219.941 149.114 219.771 148.857 219.634C148.6 219.497 148.256 219.386 147.824 219.302C147.396 219.209 146.861 219.137 146.216 219.086C145.51 219.028 144.85 218.937 144.236 218.812C143.627 218.68 143.079 218.494 142.593 218.255C142.105 218.009 141.699 217.695 141.375 217.313C141.05 216.925 140.824 216.445 140.698 215.872C140.573 215.307 140.577 214.766 140.71 214.25C140.849 213.732 141.101 213.257 141.465 212.823C141.835 212.382 142.301 212.002 142.865 211.685C143.427 211.361 144.073 211.118 144.804 210.957C145.834 210.73 146.763 210.725 147.591 210.943C148.425 211.159 149.114 211.544 149.656 212.098C150.204 212.65 150.564 213.314 150.735 214.09L148.36 214.613C148.259 214.156 148.072 213.774 147.798 213.467C147.528 213.153 147.174 212.938 146.735 212.822C146.302 212.704 145.787 212.71 145.19 212.842C144.624 212.967 144.172 213.156 143.835 213.411C143.498 213.665 143.269 213.959 143.149 214.292C143.029 214.625 143.01 214.976 143.091 215.345C143.149 215.605 143.262 215.831 143.43 216.02C143.597 216.203 143.825 216.36 144.114 216.489C144.401 216.613 144.749 216.713 145.16 216.789C145.57 216.865 146.045 216.92 146.586 216.954C147.406 217.014 148.133 217.12 148.767 217.274C149.399 217.421 149.945 217.627 150.403 217.893C150.862 218.159 151.235 218.493 151.524 218.896C151.812 219.293 152.017 219.771 152.14 220.33C152.269 220.915 152.268 221.469 152.136 221.991C152.003 222.507 151.754 222.979 151.388 223.406C151.027 223.825 150.561 224.192 149.99 224.504C149.424 224.809 148.769 225.043 148.025 225.207C147.358 225.354 146.68 225.41 145.992 225.375C145.311 225.339 144.666 225.198 144.059 224.952C143.45 224.699 142.929 224.334 142.497 223.856C142.064 223.371 141.766 222.76 141.603 222.023L143.997 221.495C144.097 221.947 144.258 222.314 144.48 222.599C144.709 222.881 144.986 223.094 145.311 223.236C145.634 223.371 145.99 223.446 146.38 223.46C146.776 223.473 147.187 223.432 147.613 223.338C148.173 223.215 148.623 223.032 148.963 222.791C149.309 222.548 149.546 222.262 149.674 221.934C149.801 221.606 149.824 221.254 149.741 220.879ZM159.412 222.697C158.649 222.865 157.932 222.894 157.261 222.782C156.594 222.662 155.995 222.424 155.463 222.068C154.938 221.71 154.493 221.251 154.13 220.692C153.767 220.132 153.507 219.499 153.351 218.793L153.267 218.412C153.089 217.604 153.046 216.847 153.137 216.14C153.228 215.434 153.432 214.802 153.749 214.246C154.065 213.683 154.482 213.214 154.999 212.84C155.517 212.466 156.109 212.205 156.777 212.058C157.514 211.896 158.187 211.877 158.795 212.003C159.403 212.129 159.937 212.378 160.399 212.75C160.866 213.113 161.257 213.584 161.571 214.161C161.891 214.738 162.133 215.397 162.297 216.141L162.514 217.124L154.541 218.881L154.177 217.231L159.88 215.974L159.84 215.793C159.736 215.382 159.568 215.013 159.336 214.684C159.11 214.354 158.819 214.111 158.465 213.956C158.111 213.801 157.68 213.779 157.171 213.891C156.79 213.975 156.468 214.133 156.205 214.364C155.948 214.588 155.754 214.874 155.624 215.222C155.495 215.571 155.423 215.973 155.41 216.429C155.403 216.878 155.458 217.369 155.575 217.903L155.659 218.284C155.759 218.736 155.912 219.142 156.118 219.503C156.329 219.857 156.587 220.15 156.892 220.383C157.197 220.616 157.539 220.777 157.919 220.867C158.297 220.95 158.705 220.943 159.144 220.846C159.697 220.724 160.165 220.505 160.549 220.187C160.932 219.869 161.238 219.472 161.466 218.995L162.936 219.901C162.785 220.274 162.564 220.649 162.274 221.027C161.982 221.397 161.599 221.732 161.125 222.03C160.657 222.326 160.086 222.549 159.412 222.697ZM165.783 212.583L167.572 220.699L165.273 221.205L162.999 210.887L165.164 210.409L165.783 212.583ZM165.94 215.248L165.194 215.403C165.039 214.67 164.993 213.977 165.056 213.323C165.125 212.668 165.289 212.082 165.548 211.565C165.814 211.046 166.172 210.614 166.622 210.268C167.071 209.916 167.604 209.671 168.221 209.536C168.717 209.426 169.181 209.397 169.612 209.449C170.048 209.493 170.443 209.636 170.796 209.878C171.156 210.119 171.466 210.467 171.727 210.923C171.986 211.372 172.193 211.95 172.349 212.656L173.818 219.322L171.51 219.831L170.039 213.155C169.929 212.659 169.77 212.284 169.561 212.03C169.357 211.769 169.104 211.608 168.804 211.547C168.509 211.479 168.161 211.489 167.761 211.577C167.367 211.664 167.032 211.824 166.757 212.058C166.482 212.292 166.268 212.576 166.115 212.91C165.968 213.242 165.879 213.609 165.847 214.009C165.815 214.409 165.846 214.822 165.94 215.248ZM181.987 215.281L179.23 202.769L181.537 202.26L184.766 216.909L182.678 217.369L181.987 215.281ZM174.633 213.852L174.588 213.652C174.416 212.87 174.351 212.138 174.394 211.455C174.435 210.766 174.58 210.151 174.827 209.609C175.073 209.062 175.42 208.609 175.868 208.25C176.314 207.885 176.852 207.633 177.481 207.494C178.104 207.357 178.678 207.357 179.201 207.495C179.725 207.633 180.202 207.891 180.632 208.27C181.061 208.642 181.442 209.118 181.777 209.698C182.11 210.271 182.401 210.927 182.65 211.665L182.791 212.304C182.871 213.06 182.88 213.764 182.817 214.418C182.755 215.072 182.607 215.658 182.375 216.176C182.142 216.694 181.814 217.126 181.391 217.473C180.973 217.818 180.45 218.06 179.821 218.199C179.198 218.336 178.606 218.33 178.046 218.18C177.493 218.028 176.99 217.756 176.536 217.363C176.083 216.969 175.694 216.475 175.369 215.88C175.044 215.278 174.798 214.603 174.633 213.852ZM176.887 213.145L176.931 213.346C177.035 213.816 177.173 214.246 177.345 214.634C177.524 215.022 177.739 215.351 177.993 215.622C178.244 215.886 178.536 216.075 178.868 216.189C179.204 216.295 179.579 216.302 179.992 216.211C180.514 216.096 180.918 215.887 181.204 215.584C181.491 215.281 181.687 214.914 181.792 214.484C181.902 214.047 181.939 213.579 181.902 213.08L181.522 211.354C181.401 210.987 181.244 210.655 181.052 210.357C180.866 210.058 180.648 209.81 180.398 209.612C180.146 209.407 179.859 209.27 179.537 209.201C179.22 209.124 178.865 209.129 178.471 209.216C178.051 209.309 177.715 209.476 177.461 209.719C177.208 209.961 177.021 210.259 176.898 210.613C176.783 210.965 176.726 211.358 176.728 211.79C176.73 212.223 176.783 212.675 176.887 213.145Z" fill="#6C2FED"/>
</g>
<g filter="url(#filter2_dd_1_1166)">
<rect width="111" height="91.4339" transform="translate(202 96.8737) rotate(-27.8612)" fill="#261E39"/>
<path d="M268.443 85.883L260.063 85.883C256.423 85.883 254.253 88.053 254.253 91.693L254.253 100.063C254.253 103.713 256.423 105.883 260.063 105.883L268.433 105.883C272.073 105.883 274.243 103.713 274.243 100.073L274.243 91.693C274.253 88.053 272.083 85.883 268.443 85.883ZM269.783 91.413L262.063 99.133L265.083 99.133C265.493 99.133 265.833 99.473 265.833 99.883C265.833 100.293 265.493 100.633 265.083 100.633L260.253 100.633C259.843 100.633 259.503 100.293 259.503 99.883L259.503 95.053C259.503 94.643 259.843 94.303 260.253 94.303C260.663 94.303 261.003 94.643 261.003 95.053L261.003 98.073L268.723 90.353C268.873 90.203 269.063 90.133 269.253 90.133C269.443 90.133 269.633 90.203 269.783 90.353C270.073 90.643 270.073 91.123 269.783 91.413Z" fill="white"/>
<path d="M249.1 140.087L253.546 137.737C254.502 137.231 255.392 136.945 256.218 136.877C257.043 136.808 257.783 136.962 258.438 137.338C259.096 137.704 259.643 138.299 260.078 139.122C260.409 139.749 260.586 140.363 260.609 140.962C260.631 141.562 260.519 142.137 260.272 142.687C260.022 143.231 259.654 143.746 259.167 144.232L258.679 144.898L254.682 147.011L253.757 145.302L256.752 143.719C257.27 143.445 257.653 143.125 257.901 142.758C258.149 142.391 258.276 142.004 258.281 141.596C258.29 141.179 258.187 140.77 257.974 140.367C257.743 139.929 257.456 139.595 257.113 139.364C256.772 139.124 256.381 139.011 255.939 139.024C255.493 139.031 255 139.177 254.459 139.463L252.18 140.668L257.912 151.512L255.745 152.657L249.1 140.087ZM262.919 148.865L256.982 144.779L259.248 143.57L265.174 147.53L265.233 147.642L262.919 148.865ZM270.884 144.875C270.194 145.241 269.51 145.458 268.833 145.529C268.159 145.591 267.518 145.521 266.91 145.319C266.309 145.114 265.758 144.79 265.259 144.347C264.76 143.904 264.341 143.363 264.003 142.725L263.821 142.379C263.434 141.648 263.191 140.93 263.091 140.225C262.99 139.519 263.019 138.856 263.177 138.235C263.331 137.608 263.608 137.046 264.008 136.548C264.407 136.049 264.909 135.64 265.513 135.321C266.181 134.968 266.825 134.771 267.444 134.731C268.063 134.691 268.645 134.788 269.189 135.024C269.736 135.25 270.238 135.6 270.694 136.073C271.156 136.543 271.565 137.115 271.921 137.788L272.391 138.677L265.173 142.493L264.384 140.999L269.547 138.27L269.46 138.106C269.251 137.738 268.99 137.426 268.679 137.171C268.373 136.913 268.029 136.757 267.646 136.701C267.263 136.646 266.841 136.74 266.381 136.983C266.036 137.166 265.767 137.403 265.576 137.696C265.387 137.98 265.277 138.307 265.244 138.678C265.212 139.048 265.25 139.455 265.359 139.898C265.471 140.332 265.655 140.791 265.91 141.275L266.093 141.62C266.309 142.029 266.564 142.38 266.859 142.673C267.157 142.958 267.484 143.172 267.839 143.315C268.195 143.458 268.568 143.523 268.957 143.508C269.344 143.488 269.736 143.372 270.134 143.163C270.634 142.898 271.027 142.561 271.312 142.153C271.597 141.745 271.786 141.28 271.879 140.76L273.537 141.242C273.49 141.642 273.378 142.063 273.198 142.503C273.016 142.939 272.736 143.363 272.358 143.776C271.986 144.187 271.494 144.553 270.884 144.875ZM279.186 138.366C279.525 138.187 279.795 137.96 279.996 137.684C280.199 137.4 280.32 137.093 280.359 136.763C280.404 136.43 280.352 136.101 280.202 135.775L282.161 134.739C282.469 135.349 282.582 135.993 282.498 136.671C282.414 137.348 282.165 137.985 281.75 138.579C281.333 139.168 280.778 139.645 280.088 140.01C279.374 140.388 278.689 140.595 278.031 140.634C277.371 140.666 276.751 140.559 276.172 140.313C275.592 140.067 275.065 139.709 274.588 139.239C274.117 138.767 273.711 138.208 273.371 137.563L273.211 137.261C272.87 136.616 272.637 135.966 272.511 135.311C272.389 134.647 272.389 134.006 272.512 133.389C272.635 132.772 272.897 132.202 273.299 131.681C273.697 131.153 274.251 130.702 274.959 130.328C275.707 129.933 276.442 129.735 277.164 129.736C277.884 129.732 278.544 129.909 279.147 130.268C279.752 130.619 280.244 131.139 280.623 131.829L278.664 132.865C278.464 132.529 278.213 132.264 277.912 132.07C277.613 131.867 277.281 131.755 276.917 131.734C276.558 131.71 276.189 131.799 275.809 131.999C275.389 132.222 275.086 132.492 274.901 132.811C274.713 133.124 274.619 133.468 274.619 133.844C274.615 134.214 274.675 134.598 274.798 134.997C274.923 135.388 275.088 135.776 275.292 136.161L275.451 136.463C275.655 136.849 275.885 137.206 276.139 137.536C276.394 137.865 276.676 138.132 276.983 138.338C277.294 138.535 277.632 138.646 278 138.673C278.364 138.694 278.76 138.592 279.186 138.366ZM289.602 134.981C288.911 135.346 288.228 135.564 287.551 135.635C286.876 135.697 286.235 135.627 285.628 135.425C285.026 135.22 284.476 134.896 283.977 134.453C283.477 134.01 283.059 133.469 282.721 132.83L282.539 132.485C282.152 131.754 281.909 131.036 281.808 130.33C281.708 129.625 281.737 128.962 281.894 128.341C282.049 127.714 282.326 127.152 282.726 126.653C283.125 126.155 283.627 125.746 284.231 125.427C284.899 125.074 285.542 124.877 286.162 124.837C286.781 124.797 287.363 124.894 287.907 125.129C288.454 125.356 288.955 125.706 289.412 126.179C289.874 126.649 290.283 127.221 290.639 127.894L291.109 128.783L283.891 132.599L283.101 131.105L288.264 128.376L288.178 128.212C287.968 127.844 287.708 127.532 287.396 127.277C287.091 127.019 286.746 126.862 286.364 126.807C285.981 126.751 285.559 126.845 285.099 127.089C284.753 127.271 284.485 127.509 284.294 127.802C284.105 128.085 283.994 128.413 283.962 128.783C283.93 129.154 283.968 129.561 284.077 130.004C284.189 130.438 284.372 130.897 284.628 131.381L284.81 131.726C285.026 132.135 285.282 132.486 285.577 132.779C285.875 133.063 286.201 133.277 286.557 133.421C286.912 133.564 287.285 133.628 287.675 133.614C288.062 133.593 288.454 133.478 288.851 133.268C289.352 133.004 289.745 132.667 290.03 132.259C290.315 131.85 290.504 131.386 290.597 130.865L292.254 131.348C292.208 131.748 292.095 132.168 291.916 132.609C291.734 133.044 291.454 133.469 291.076 133.882C290.703 134.292 290.212 134.659 289.602 134.981ZM292.162 121.455L297.1 130.797L295.01 131.901L290.072 122.56L292.162 121.455ZM288.638 120.181C288.471 119.864 288.436 119.548 288.534 119.231C288.634 118.905 288.871 118.644 289.245 118.446C289.614 118.251 289.961 118.204 290.286 118.304C290.609 118.399 290.854 118.605 291.021 118.921C291.185 119.232 291.216 119.547 291.112 119.867C291.009 120.187 290.773 120.444 290.405 120.639C290.03 120.837 289.682 120.888 289.36 120.794C289.043 120.696 288.802 120.492 288.638 120.181ZM301.546 126.337L299.768 117.435L301.926 116.294L303.618 127.351L302.271 128.063L301.546 126.337ZM295.727 119.571L302.143 126.065L303.109 127.621L301.762 128.332L293.56 120.716L295.727 119.571ZM312.239 123.015C311.549 123.38 310.865 123.598 310.188 123.669C309.514 123.73 308.873 123.66 308.265 123.459C307.664 123.254 307.113 122.93 306.614 122.487C306.115 122.044 305.696 121.503 305.358 120.864L305.176 120.519C304.79 119.788 304.546 119.07 304.446 118.364C304.345 117.659 304.374 116.996 304.532 116.375C304.686 115.748 304.964 115.185 305.363 114.687C305.762 114.189 306.264 113.78 306.868 113.46C307.536 113.107 308.18 112.911 308.799 112.871C309.418 112.83 310 112.928 310.544 113.163C311.091 113.39 311.593 113.739 312.049 114.212C312.511 114.683 312.92 115.254 313.276 115.928L313.746 116.817L306.528 120.632L305.739 119.139L310.902 116.41L310.815 116.246C310.606 115.877 310.345 115.566 310.034 115.311C309.728 115.053 309.384 114.896 309.001 114.841C308.618 114.785 308.197 114.879 307.736 115.123C307.391 115.305 307.122 115.543 306.931 115.835C306.742 116.119 306.632 116.446 306.599 116.817C306.567 117.188 306.605 117.595 306.714 118.038C306.826 118.472 307.01 118.931 307.265 119.414L307.448 119.76C307.664 120.168 307.919 120.519 308.214 120.813C308.512 121.097 308.839 121.311 309.194 121.454C309.55 121.598 309.923 121.662 310.313 121.648C310.699 121.627 311.091 121.512 311.489 121.302C311.989 121.037 312.382 120.701 312.667 120.292C312.952 119.884 313.141 119.42 313.234 118.899L314.892 119.382C314.846 119.782 314.733 120.202 314.553 120.643C314.371 121.078 314.091 121.502 313.713 121.916C313.341 122.326 312.849 122.692 312.239 123.015Z" fill="white"/>
</g>
<defs>
<filter id="filter0_dd_1_1166" x="0.000793457" y="0" width="192.708" height="191.72" filterUnits="userSpaceOnUse" color-interpolation-filters="sRGB">
<feFlood flood-opacity="0" result="BackgroundImageFix"/>
<feColorMatrix in="SourceAlpha" type="matrix" values="0 0 0 0 0 0 0 0 0 0 0 0 0 0 0 0 0 0 127 0" result="hardAlpha"/>
<feMorphology radius="4" operator="erode" in="SourceAlpha" result="effect1_dropShadow_1_1166"/>
<feOffset dy="12"/>
<feGaussianBlur stdDeviation="21"/>
<feColorMatrix type="matrix" values="0 0 0 0 0.0941176 0 0 0 0 0.152941 0 0 0 0 0.294118 0 0 0 0.12 0"/>
<feBlend mode="normal" in2="BackgroundImageFix" result="effect1_dropShadow_1_1166"/>
<feColorMatrix in="SourceAlpha" type="matrix" values="0 0 0 0 0 0 0 0 0 0 0 0 0 0 0 0 0 0 127 0" result="hardAlpha"/>
<feMorphology radius="6" operator="erode" in="SourceAlpha" result="effect2_dropShadow_1_1166"/>
<feOffset dy="8"/>
<feGaussianBlur stdDeviation="9"/>
<feColorMatrix type="matrix" values="0 0 0 0 0.0941176 0 0 0 0 0.152941 0 0 0 0 0.294118 0 0 0 0.12 0"/>
<feBlend mode="normal" in2="effect1_dropShadow_1_1166" result="effect2_dropShadow_1_1166"/>
<feBlend mode="normal" in="SourceGraphic" in2="effect2_dropShadow_1_1166" result="shape"/>
</filter>
<filter id="filter1_dd_1_1166" x="70.0749" y="121.717" width="177.85" height="175.566" filterUnits="userSpaceOnUse" color-interpolation-filters="sRGB">
<feFlood flood-opacity="0" result="BackgroundImageFix"/>
<feColorMatrix in="SourceAlpha" type="matrix" values="0 0 0 0 0 0 0 0 0 0 0 0 0 0 0 0 0 0 127 0" result="hardAlpha"/>
<feMorphology radius="4" operator="erode" in="SourceAlpha" result="effect1_dropShadow_1_1166"/>
<feOffset dy="12"/>
<feGaussianBlur stdDeviation="21"/>
<feColorMatrix type="matrix" values="0 0 0 0 0.0941176 0 0 0 0 0.152941 0 0 0 0 0.294118 0 0 0 0.12 0"/>
<feBlend mode="normal" in2="BackgroundImageFix" result="effect1_dropShadow_1_1166"/>
<feColorMatrix in="SourceAlpha" type="matrix" values="0 0 0 0 0 0 0 0 0 0 0 0 0 0 0 0 0 0 127 0" result="hardAlpha"/>
<feMorphology radius="6" operator="erode" in="SourceAlpha" result="effect2_dropShadow_1_1166"/>
<feOffset dy="8"/>
<feGaussianBlur stdDeviation="9"/>
<feColorMatrix type="matrix" values="0 0 0 0 0.0941176 0 0 0 0 0.152941 0 0 0 0 0.294118 0 0 0 0.12 0"/>
<feBlend mode="normal" in2="effect1_dropShadow_1_1166" result="effect2_dropShadow_1_1166"/>
<feBlend mode="normal" in="SourceGraphic" in2="effect2_dropShadow_1_1166" result="shape"/>
</filter>
<filter id="filter2_dd_1_1166" x="164" y="19" width="216.863" height="208.709" filterUnits="userSpaceOnUse" color-interpolation-filters="sRGB">
<feFlood flood-opacity="0" result="BackgroundImageFix"/>
<feColorMatrix in="SourceAlpha" type="matrix" values="0 0 0 0 0 0 0 0 0 0 0 0 0 0 0 0 0 0 127 0" result="hardAlpha"/>
<feMorphology radius="4" operator="erode" in="SourceAlpha" result="effect1_dropShadow_1_1166"/>
<feOffset dy="12"/>
<feGaussianBlur stdDeviation="21"/>
<feColorMatrix type="matrix" values="0 0 0 0 0.0941176 0 0 0 0 0.152941 0 0 0 0 0.294118 0 0 0 0.12 0"/>
<feBlend mode="normal" in2="BackgroundImageFix" result="effect1_dropShadow_1_1166"/>
<feColorMatrix in="SourceAlpha" type="matrix" values="0 0 0 0 0 0 0 0 0 0 0 0 0 0 0 0 0 0 127 0" result="hardAlpha"/>
<feMorphology radius="6" operator="erode" in="SourceAlpha" result="effect2_dropShadow_1_1166"/>
<feOffset dy="8"/>
<feGaussianBlur stdDeviation="9"/>
<feColorMatrix type="matrix" values="0 0 0 0 0.0941176 0 0 0 0 0.152941 0 0 0 0 0.294118 0 0 0 0.12 0"/>
<feBlend mode="normal" in2="effect1_dropShadow_1_1166" result="effect2_dropShadow_1_1166"/>
<feBlend mode="normal" in="SourceGraphic" in2="effect2_dropShadow_1_1166" result="shape"/>
</filter>
</defs>
</svg>
